<?xml version="1.0" encoding="utf-8"?>
<!-- Generator: Adobe Illustrator 27.5.0, SVG Export Plug-In . SVG Version: 6.00 Build 0)  -->
<svg version="1.1" xmlns="http://www.w3.org/2000/svg" xmlns:xlink="http://www.w3.org/1999/xlink" x="0px" y="0px"
	 viewBox="0 0 500 500" style="enable-background:new 0 0 500 500;" xml:space="preserve">
<g id="Floor">
	<path id="Floor_6_" style="fill:#F5F5F5;" d="M410.246,258.961c-89.627-51.534-234.942-51.534-324.571,0
		c-89.628,51.534-89.627,135.088,0.001,186.621c89.63,51.533,234.944,51.533,324.571,0
		C499.872,394.049,499.872,310.495,410.246,258.961z"/>
</g>
<g id="Shadows">
	<ellipse id="Shadow_22_" style="fill:#E0E0E0;" cx="351.59" cy="353.982" rx="40.967" ry="23.653"/>
	<path id="Shadow_11_" style="fill:#E0E0E0;" d="M302.715,395.385c-16.364-1.503-30.287-0.468-41.342,1.824
		c-1.468-10.435-10.028-20.66-25.679-28.638c-34.543-17.608-90.549-17.608-125.093,0s-34.544,46.156,0,63.764
		c34.543,17.608,90.549,17.608,125.093,0c3.89-1.983,7.338-4.106,10.353-6.335c11.065,2.5,23.353,3.843,34.502,3.525
		c0.386,0.135,0.784,0.267,1.194,0.398c9.847,3.145,20.295,4.744,29.072,4.744c7.621,0,13.983-1.207,17.595-3.654
		c0.402-0.272,0.76-0.553,1.077-0.837c4.721,0.143,9.851,0.337,15.252-0.75c7.829-1.577,11.676-5.025,11.457-9.121
		C355.64,409.953,325.596,397.49,302.715,395.385z M280.975,426.207c-6.714-2.467-10.296-5.836-9.896-9.374
		c0.528-4.664,7.412-8.859,15.672-9.551c1.142-0.096,2.305-0.141,3.473-0.141c6.367,0,12.895,1.355,17.046,3.348
		c-1.909,0.048-3.744,0.334-5.417,0.909c-2.472,0.849-3.613,2.829-2.98,5.168c0.478,1.76,1.967,3.694,4.314,5.54
		C297.406,424.656,289.585,425.939,280.975,426.207z M307.858,413.742c1.177,0,2.391,0.103,3.612,0.295
		c0.036,0.092,0.067,0.183,0.092,0.275c0.487,1.743-1.346,3.918-5.083,6.105c-2.574-1.721-4.111-3.446-4.453-4.706
		c-0.106-0.393-0.227-0.838,0.887-1.22C304.416,413.974,306.096,413.742,307.858,413.742z M289.983,428.815
		c6.086-0.782,11.53-2.193,15.839-4.335c0.172-0.085,0.344-0.171,0.512-0.258c4.302,2.494,10.243,4.589,17.353,5.499
		C316.475,432.296,303.145,431.925,289.983,428.815z M328.088,426.854c-7.672-0.438-13.932-2.354-18.4-4.589
		c3.561-2.397,5.315-4.897,5.236-7.467c3.675,1.037,7.176,2.745,9.698,4.685c2.643,2.03,4.089,4.183,3.968,5.904
		C328.552,425.906,328.386,426.393,328.088,426.854z M344.093,426.222c-4.441,0.894-8.621,0.711-12.486,0.725
		c0.143-0.48,0.215-0.93,0.243-1.331c0.203-2.877-1.657-5.975-5.236-8.726c-3.394-2.608-8.221-4.794-13.145-5.805
		c-4.385-5.467-17.772-7.829-26.991-7.061c-9.922,0.832-17.938,6.18-18.647,12.44c-0.268,2.362,0.355,6.214,5.692,9.732
		c-8.004-0.255-16.353-1.266-24.147-2.85c8.143-7.034,12.218-14.954,12.224-22.874c10.786-2.281,24.524-3.331,40.814-1.831
		c23.944,2.201,50.133,14.702,50.515,21.839C353.044,422.61,349.83,425.068,344.093,426.222z"/>
</g>
<g id="Clouds">
	<g id="Clouds_2_">
		<path id="XMLID_440_" style="fill:#EBEBEB;" d="M137.167,59.218l-11.457,6.615c0.057-0.512,0.096-1.02,0.096-1.517v-3.319
			c0-5.907-4.147-8.301-9.263-5.348c-2.072,1.196-3.978,3.091-5.521,5.309c-0.838-7.427-6.665-10.194-13.743-6.108
			c-7.653,4.419-13.857,15.165-13.857,24.002v4.966c0,2.289,0.423,4.217,1.173,5.753l-9.517,5.494
			c-2.838,1.638-5.138,5.623-5.138,8.899c0,3.277,2.3,4.605,5.138,2.966l62.089-35.847c2.838-1.638,5.138-5.623,5.138-8.899
			C142.305,58.908,140.005,57.579,137.167,59.218z"/>
		<path id="XMLID_332_" style="fill:#EBEBEB;" d="M183.719,79.001l-7.305,4.218c0.036-0.326,0.061-0.65,0.061-0.967v-2.116
			c0-3.766-2.644-5.293-5.906-3.41c-1.321,0.762-2.536,1.971-3.52,3.385c-0.534-4.736-4.25-6.5-8.763-3.894
			c-4.88,2.817-8.836,9.669-8.836,15.304v3.166c0,1.46,0.27,2.689,0.748,3.668l-6.068,3.503c-1.809,1.045-3.276,3.585-3.276,5.674
			c0,2.089,1.467,2.936,3.276,1.891l39.589-22.856c1.809-1.045,3.276-3.585,3.276-5.674
			C186.995,78.803,185.528,77.956,183.719,79.001z"/>
	</g>
</g>
<g id="Plant">
	<g id="Plants_1_">
		<g id="XMLID_231_">
			<g id="XMLID_232_">
				<path id="XMLID_234_" style="fill:#27DEBF;" d="M345.195,350.334c-1.029-11.323-0.226-23.125,2.059-34.997
					c2.658-13.814,10.588-25.049,20.073-30.255c3.297-1.809,10.171-3.752,14.669,0.306c4.295,3.874,1.992,10.107-3.248,16.508
					c-10.336,12.626-20.527,23.188-23.317,39.745l-1.158,12.279L345.195,350.334z"/>
				<path id="XMLID_233_" style="opacity:0.2;" d="M345.195,350.334c-1.029-11.323-0.226-23.125,2.059-34.997
					c2.658-13.814,10.588-25.049,20.073-30.255c3.297-1.809,10.171-3.752,14.669,0.306c4.295,3.874,1.992,10.107-3.248,16.508
					c-10.336,12.626-20.527,23.188-23.317,39.745l-1.158,12.279L345.195,350.334z"/>
				<g>
					<path style="fill:#FFFFFF;" d="M348.386,348.779c-0.285,0-0.515-0.23-0.515-0.515c0-15.996,3.39-29.851,10.364-42.355
						c4.607-8.262,10.242-14.26,17.228-18.336c0.243-0.146,0.56-0.061,0.704,0.185c0.144,0.245,0.06,0.561-0.185,0.704
						c-6.822,3.981-12.334,9.852-16.848,17.948c-6.886,12.347-10.233,26.038-10.233,41.854
						C348.901,348.549,348.671,348.779,348.386,348.779z"/>
				</g>
			</g>
		</g>
		<g id="XMLID_226_">
			<g id="XMLID_229_">
				<path id="XMLID_230_" style="fill:#27DEBF;" d="M359.607,356.086c-0.034-3.925,2.624-11.204,8.318-18.249
					c6.299-7.794,15.57-13.259,16.624-18.189c1.266-5.922-4.165-8.794-12.217-5.954c-9.677,3.413-19.212,16.722-18.06,40.226
					L359.607,356.086z"/>
			</g>
			<g id="XMLID_227_">
				<path id="XMLID_228_" style="fill:#FFFFFF;" d="M357.291,352.594c0.174-0.067,0.302-0.231,0.314-0.431
					c1.182-20.822,13.221-31.515,19.621-34.344c0.248-0.109,0.36-0.399,0.251-0.647c-0.11-0.249-0.389-0.364-0.647-0.25
					c-7.077,3.128-18.998,13.933-20.204,35.186c-0.015,0.27,0.192,0.502,0.462,0.518
					C357.159,352.63,357.228,352.618,357.291,352.594z"/>
			</g>
		</g>
	</g>
</g>
<g id="Cat_2_">
	<g id="Cat_3_">
		<g id="Yarn_3_">
			<path style="fill:#455A64;" d="M309.713,429.758c-8.777,0-19.225-1.599-29.072-4.745c-0.41-0.131-0.808-0.263-1.194-0.398
				c-16.448,0.469-35.381-2.67-49.195-7.816l1.141-3.062c11.372,4.236,26.749,7.094,41.029,7.549
				c-5.337-3.518-5.961-7.369-5.692-9.731c0.709-6.261,8.725-11.608,18.647-12.44c9.219-0.768,22.606,1.594,26.991,7.061
				c4.924,1.011,9.751,3.197,13.145,5.805c3.579,2.75,5.439,5.849,5.236,8.726c-0.028,0.401-0.099,0.851-0.243,1.331
				c3.865-0.014,8.044,0.169,12.486-0.725c5.737-1.154,8.951-3.612,8.837-5.742c-0.382-7.137-26.572-19.637-50.515-21.839
				c-31.903-2.938-54.046,3.892-63.311,10.632l-1.922-2.643c9.724-7.074,32.727-14.258,65.533-11.245
				c22.881,2.105,52.925,14.567,53.48,24.92c0.219,4.096-3.628,7.544-11.457,9.121c-5.401,1.086-10.531,0.892-15.252,0.75
				c-0.317,0.284-0.675,0.565-1.077,0.837C323.696,428.552,317.334,429.758,309.713,429.758z M288.881,423.905
				c13.162,3.11,26.492,3.481,33.704,0.907c-7.11-0.91-13.051-3.005-17.353-5.499c-0.168,0.086-0.339,0.172-0.512,0.258
				C300.411,421.712,294.967,423.123,288.881,423.905z M308.586,417.355c4.468,2.236,10.729,4.151,18.4,4.589
				c0.299-0.461,0.465-0.948,0.502-1.467c0.121-1.722-1.325-3.874-3.968-5.904c-2.523-1.94-6.023-3.647-9.698-4.685
				C313.901,412.459,312.147,414.958,308.586,417.355z M289.122,402.231c-1.168,0-2.331,0.046-3.473,0.142
				c-8.26,0.692-15.144,4.887-15.672,9.551c-0.4,3.538,3.182,6.907,9.896,9.374c8.61-0.268,16.43-1.55,22.211-4.101
				c-2.346-1.846-3.836-3.78-4.314-5.54c-0.633-2.339,0.509-4.319,2.98-5.168c1.673-0.575,3.508-0.861,5.417-0.909
				C302.017,403.587,295.489,402.231,289.122,402.231z M306.757,408.832c-1.762,0-3.442,0.232-4.943,0.748
				c-1.114,0.382-0.994,0.828-0.887,1.22c0.342,1.26,1.879,2.986,4.453,4.706c3.737-2.188,5.57-4.362,5.083-6.105
				c-0.025-0.092-0.056-0.183-0.093-0.275C309.148,408.936,307.934,408.832,306.757,408.832z"/>
			<path style="fill:#37474F;" d="M319.122,425.729c2.135,0.538,5.006,0.964,6.774,1.198c0.507-0.257,0.98-0.53,1.411-0.822
				c0.402-0.272,0.76-0.553,1.077-0.837c0,0-3.202-0.156-5.799-0.455C321.554,425.18,320.385,425.481,319.122,425.729z"/>
			<path style="fill:#37474F;" d="M302.817,420.433c0.654-0.274,1.293-0.559,1.903-0.862c0.172-0.085,0.344-0.171,0.512-0.258
				c0,0-1.309-0.66-3.147-2.116c-0.775,0.342-1.592,0.657-2.437,0.954C300.688,419.183,301.855,419.926,302.817,420.433z"/>
			<path style="fill:#37474F;" d="M310.462,409.402c0.156,0.559,0.071,1.163-0.237,1.798c1.34,0.173,2.454,0.522,3.22,0.822
				c0.263-0.706,0.399-1.417,0.377-2.134c0,0-1.633-0.577-3.453-0.761C310.405,409.219,310.436,409.31,310.462,409.402z"/>
			<path style="fill:#37474F;" d="M268.459,421.094c1.501,1.459,3.456,2.689,4.995,3.535c2.024,0.044,4.027,0.043,5.993-0.013
				c0,0-4.618-1.763-7.025-3.329C271.11,421.245,269.786,421.176,268.459,421.094z"/>
			<path style="fill:#37474F;" d="M236.081,401.721l1.922,2.643c3.658-2.661,9.33-5.333,16.81-7.415
				c0.38-1.226,0.658-2.421,0.835-3.573C246.868,395.637,240.25,398.688,236.081,401.721z"/>
			<path style="fill:#37474F;" d="M241.253,416.809c-3.505-0.914-6.828-1.942-9.861-3.071l-1.141,3.062
				c2.459,0.916,5.085,1.765,7.825,2.545C239.172,418.548,240.232,417.701,241.253,416.809z"/>
		</g>
		<g id="Cat_4_">
			<g>
				<path style="fill:#455A64;" d="M177.958,278.37c-0.021,0-0.043,0-0.063-0.001c-12.426-0.473-24.183-9.698-35.554-18.62
					c-9.723-7.629-18.906-14.834-26.757-14.834c-0.902,0-1.634-0.732-1.634-1.634c0-0.902,0.732-1.634,1.634-1.634
					c8.979,0,18.595,7.545,28.775,15.531c10.96,8.6,22.294,17.493,33.659,17.926c0.902,0.034,1.606,0.794,1.572,1.695
					C179.556,277.679,178.831,278.37,177.958,278.37z"/>
			</g>
			<g id="Tail_1_">
				<path style="fill:#27DEBF;" d="M97.268,350.053c-8.839-3.284-16.399-15.369-13.111-28.837
					c3.959-16.216,21.771-27.708,31.547-37.12c18.161-17.485,29.277-31.466,23.487-56.63c-5.069-22.032-25.461-29.356-37.578-28.902
					c-15.021,0.563-24.478,6.83-23.649,11.694c0.369,2.164,4.457,3.128,7.689,4.31c10.015,3.663,13.114,5.908,16.314,10.216
					c4.874,6.561,5.69,15.124,4.643,15.72c-1.054,0.6-2.437-4.338-9.087-7.18c-6.65-2.842-9.902-0.795-9.842,0.685
					c0.063,1.553,6.182,2.885,8.034,11.684c1.541,7.32,1.177,16.753-9.833,31.819c-6.778,9.275-22.194,26.65-18.83,48.816
					c3.364,22.165,20.195,30.271,27.15,30.662L97.268,350.053z"/>
				<path style="opacity:0.05;" d="M97.268,350.053c-8.839-3.284-16.399-15.369-13.111-28.837
					c3.959-16.216,21.771-27.708,31.547-37.12c18.161-17.485,29.277-31.466,23.487-56.63c-5.069-22.032-25.461-29.356-37.578-28.902
					c-15.021,0.563-24.478,6.83-23.649,11.694c0.369,2.164,4.457,3.128,7.689,4.31c10.015,3.663,13.114,5.908,16.314,10.216
					c4.874,6.561,5.69,15.124,4.643,15.72c-1.054,0.6-2.437-4.338-9.087-7.18c-6.65-2.842-9.902-0.795-9.842,0.685
					c0.063,1.553,6.182,2.885,8.034,11.684c1.541,7.32,1.177,16.753-9.833,31.819c-6.778,9.275-22.194,26.65-18.83,48.816
					c3.364,22.165,20.195,30.271,27.15,30.662L97.268,350.053z"/>
				<path style="opacity:0.15;" d="M94.203,356.988l3.065-6.936c-2.413-0.897-4.728-2.453-6.755-4.51
					c-1.312,2.959-2.368,6.135-3.095,9.568C90.058,356.296,92.446,356.89,94.203,356.988z"/>
				<path style="fill:#455A64;" d="M122.949,224.398c1.351-0.885,0.871-2.953,0.198-4.421c-1.801-3.924-3.999-7.118-7.102-10.147
					c2.229,0.37,4.333,1.172,6.493,1.837c3.085,0.949,5.071,2.316,5.53,1.169c0.195-0.486,0.105-1.764-0.115-2.61
					c-0.548-2.112-1.059-2.888-1.789-3.459c-7.94-6.16-17.604-8.464-24.551-8.204c-15.021,0.563-24.478,6.83-23.649,11.694
					c0.369,2.164,4.457,3.128,7.689,4.31c10.015,3.663,13.114,5.908,16.314,10.216c0.04,0.054,3.62,1.792,5.248,2.83
					c0.723,0.461,1.586,0.956,2.398,1.018c0.396,0.03,0.78-0.043,1.129-0.273c1.118-0.736,0.882-2.42,0.466-3.692
					c-0.815-2.488-1.821-4.914-3.006-7.249c3.868,0.886,7.499,2.782,10.437,5.449C119.861,223.976,121.568,225.303,122.949,224.398z
					"/>
			</g>
			<g id="Paw_7_">
				<path style="fill:#27DEBF;" d="M171.669,344.22c1.267,17.383,6.963,28.198,18.825,38.242
					c11.862,10.044,28.691,16.043,36.135,19.277c7.445,3.234,12.985,7.201,18.364,2.641c5.379-4.56,4.915-14.43,14.47-22.266
					c9.555-7.836,12.898-10.031,13.142-15.72c0.322-7.515-6.903-7.322-9.119-6.194c0,0-1.865-3.201-7.194-2.018
					c-4.484,0.995-6.609,4.78-6.609,4.78s-3.326-0.2-6.837,3.075c-3.111,2.902-9.155,10.698-9.155,10.698s6.456-10.155,3.64-20.986
					c-2.552-9.814-8.83-12.503-8.83-12.503s2.701-1.375,9.922-0.085c0,0-3.057-8.377-16.181-11.628s-21.894,6.18-21.894,6.18
					L171.669,344.22z"/>
				<path style="opacity:0.15;" d="M252.039,360.29L252.039,360.29c-1.583,1.306-2.355,2.67-2.355,2.67
					c1.954-0.055,6.187,0.208,7.653,5.307C257.336,368.268,259.002,362.522,252.039,360.29z"/>
				<path style="opacity:0.15;" d="M264.735,366.177c0,0,2.711-1.529,1.14-6.542c-0.977,0.061-1.837,0.283-2.388,0.563
					C265.033,361.838,265.233,364.733,264.735,366.177z"/>
				<g>
					<path style="fill:#F28F8F;" d="M256.26,375.868c-6.467,1.586-11.881,5.829-14.879,12.967
						c-2.998,7.139-1.933,11.905,0.958,12.637c2.888,0.731,4.303,0.32,6.835-3.528c2.1-4.795,4.079-10.739,10.289-15.832
						c1.838-1.507,3.441-2.802,4.841-3.957C264.034,376.089,261.257,374.643,256.26,375.868z"/>
					<path style="fill:#FFA8A7;" d="M254.74,369.069c-1.95-0.793-4.001,3.838-1.744,4.718
						C254.871,374.517,257.352,370.131,254.74,369.069z"/>
					<path style="fill:#F28F8F;" d="M262.402,367.5c-1.95-0.793-4.001,3.839-1.744,4.718
						C262.533,372.948,265.014,368.562,262.402,367.5z"/>
					<path style="fill:#F28F8F;" d="M268.694,367.336c-1.95-0.793-4.001,3.838-1.744,4.718
						C268.825,372.784,271.306,368.398,268.694,367.336z"/>
				</g>
			</g>
			<g id="Body_1_">
				<path style="fill:#27DEBF;" d="M151.067,299.583c-0.981,5.546-21.885,10.825-36.227,21.633
					c-14.342,10.809-27.004,25.552-24.749,51.105c2.473,28.022,27.704,38.329,40.983,38.328c13.279,0,58.67-3.517,81.899-36.569
					C236.202,341.027,204.933,297.506,151.067,299.583z"/>
				<path style="opacity:0.15;" d="M118.388,364.313c0,0,7.232-12.749,27.083-9.233c19.852,3.515,18.072,34.267,18.072,34.267
					s0.221,17.193-12.477,15.395C138.37,402.945,118.388,364.313,118.388,364.313z"/>
				<path style="opacity:0.15;" d="M151.067,299.583c-0.101,0.572-0.425,1.141-0.92,1.713c-0.848,10.244,2.316,23.442,13.996,27.077
					c12.71,3.956,27.061,1.678,36.691-1.714c2.846-1.003,6.004-2.366,9.229-4.062C198.245,308.413,177.348,298.57,151.067,299.583z"
					/>
			</g>
			<g>
				<path style="fill:#455A64;" d="M159.08,372.194c-0.114,0-0.23-0.012-0.346-0.036c-43.965-9.45-60.202-37.221-65.967-52.935
					c-7.499-20.441-8.15-42.832-1.622-55.715c0.409-0.805,1.395-1.128,2.196-0.719c0.805,0.407,1.128,1.392,0.719,2.196
					c-6.145,12.125-5.431,33.47,1.775,53.112c5.534,15.081,21.153,41.745,63.585,50.864c0.882,0.19,1.444,1.059,1.255,1.942
					C160.511,371.67,159.833,372.194,159.08,372.194z"/>
			</g>
			<g id="Yarn_2_">
				<path style="fill:#455A64;" d="M256.528,361.25c5.066,29.3-14.001,57.06-42.589,62.003
					c-28.587,4.943-55.869-14.802-60.936-44.102c-4.265-24.665,9.095-45.211,30.482-54.043c4.019-1.66,8.322-2.906,12.845-3.688
					c2.314-0.4,4.615-0.666,6.891-0.802C229.074,319.073,251.871,334.322,256.528,361.25z"/>
				<g>
					<defs>
						<path id="SVGID_1_" d="M256.528,361.25c5.066,29.3-14.001,57.06-42.589,62.003c-28.587,4.943-55.869-14.802-60.936-44.102
							c-4.265-24.665,9.095-45.211,30.482-54.043c4.019-1.66,8.322-2.906,12.845-3.688c2.314-0.4,4.615-0.666,6.891-0.802
							C229.074,319.073,251.871,334.322,256.528,361.25z"/>
					</defs>
					<clipPath id="SVGID_00000140715278358546026340000012410887270763471492_">
						<use xlink:href="#SVGID_1_"  style="overflow:visible;"/>
					</clipPath>
					<path style="opacity:0.15;clip-path:url(#SVGID_00000140715278358546026340000012410887270763471492_);" d="M290.379,369.617
						c-12.748,4.173-25.572,6.407-38.298,6.058c2.452-0.926,4.925-2.19,7.638-3.628c5.611-2.964,12.617-6.352,14.153-12.998
						c0.294-1.242-1.22-0.992-1.809-0.512c-4.38,3.617-9.653,8.204-15.374,11.702c-6.396,3.911-14.099,5.012-21.421,3.421
						c-1.515-0.327-3.029-0.697-4.543-1.111c5.491-0.959,11.212-3.432,14.796-5.481c10.645-6.069,16.114-14.589,17.999-26.454
						c0.218-1.34-1.155-1.787-2.049-0.915c-1.645,1.634-1.939,3.367-2.691,5.578c-2.408,7.039-5.764,11.059-11.734,15.439
						c-4.118,3.018-9.021,5.328-13.979,6.581c-2.56,0.643-5.208,0.752-7.801,1.155c-2.549,0.392-5.546,0.316-7.921-0.763
						c-1.907-0.872-3.813-1.95-5.687-3.116c11.212-0.665,23.73-10.569,30.932-17.28c7.616-7.115,13.129-15.951,11.898-26.563
						c-0.207-1.885-2.386-0.752-2.648,0.534c-0.97,4.925-1.449,8.172-3.748,12.868c-2.332,4.761-5.491,8.27-9.544,11.789
						c-8.281,7.169-19.677,14.894-30.932,15.918c-1.569-1.155-3.127-2.364-4.609-3.661c8.433-3.149,15.635-9.436,21.519-16.234
						c3.541-4.086,6.287-8.401,8.106-13.521c1.122-3.182,3.65-8.433,2.321-11.756c-0.632-1.569-2.561-0.087-2.67,1.046
						c-0.795,8.106-5.448,15.962-10.612,22.205c-2.462-6.832-4.173-12.846-3.705-20.407c0.229-3.65,0.817-7.038,1.493-10.634
						c0.218-1.133,0.588-2.244,0.022-3.29c-0.817-1.515-2.713,0.839-2.43,1.939c-0.076-0.283-1.024,1.166-1.09,1.264
						c-0.85,1.482-0.774,3.705-1.046,5.361c-0.458,2.778-0.795,5.6-0.85,8.422c-0.174,7.442,1.885,13.837,4.751,20.549
						c-2.669,2.68-5.698,4.859-8.738,7.028c-1.885-1.395-3.214-5.023-4.271-6.93c-1.613-2.865-3.334-5.6-4.522-8.705
						c-2.767-7.213-2.103-15.733-5.132-22.575c-0.349-0.795-1.819,0.12-1.841,0.752c-0.262,9.381,1.286,19.067,5.393,27.598
						c1.602,3.345,3.923,9.141,6.919,12.377c-0.774,0.577-1.569,1.024-2.452,1.395c-0.937,0.392-1.907,0.763-2.92,0.828
						c-2.386,0.164-3.715-1.972-5.132-3.563c-1.656-1.852-3.214-3.792-4.652-5.818c-3.41-4.816-6.45-10.394-8.172-16.06
						c-1.46-4.783-1.122-10.307-3.421-14.829c-1.111-2.179-3.792,0.076-3.182,1.95c1.613,4.968,0.741,10.471,2.299,15.581
						c2.059,6.755,5.709,13.14,9.828,18.849c6.298,8.716,16.104,16.964,25.79,21.704c14.034,6.864,31.924,10.83,48.616,9.196
						c-17.945,3.617-37.317,1.406-53.987-5.306c-19.503-7.867-38.952-25.506-44.083-46.557c-0.207-0.806-1.634-0.36-1.7,0.338
						c-0.948,10.405,7.006,21.432,13.837,28.535c7.812,8.106,16.115,15.755,26.607,20.342c11.408,4.968,22.848,8.335,35.4,8.564
						c4.881,0.076,10.057,0.12,15.167-0.327c-6.407,2.027-13.184,3.508-19.416,3.585c-8.575,0.109-17.084-1.406-25.397-3.323
						c-13.521-3.105-24.82-8.662-35.051-18.141c-4.216-3.912-7.638-8.379-10.928-13.075c-3.094-4.434-7.659-9.523-8.814-14.872
						c-0.261-1.209-2.266,0.12-2.19,1.046c0.316,4.413,2.408,8.607,4.674,12.323c1.275,2.103,2.735,4.053,4.162,6.047
						c1.34,1.885,2.473,3.77,2.582,6.156c0.076,1.918-0.621,3.519-0.904,5.361c-0.262,1.689-0.61,3.367-0.893,5.056
						c-0.588,3.497-0.828,7.049-0.85,10.59c-0.098,11.419,5.35,21.312,11.506,30.529c0.643,0.981,2.288-0.567,2.005-1.449
						c-3.378-10.623-9.882-19.045-9.272-30.747c0.305-5.818,1.961-11.19,3.334-16.736c0.109,0.12,0.229,0.251,0.338,0.36
						c1.939,2.037,3.977,3.977,6.101,5.807c1.7,1.46,3.617,3.105,3.367,5.579c-0.164,1.667-0.97,3.28-1.406,4.87
						c-0.501,1.809-0.763,3.683-0.992,5.535c-0.403,3.214-0.534,6.45-0.774,9.675c-0.752,10.482,2.048,23.905,9.577,31.739
						c0.349,0.36,0.926,0.272,1.373-0.022c1.057,2.375,2.473,4.576,4.336,6.516c0.687,0.708,1.852-0.065,1.504-0.992
						c-2.996-7.899-4.249-16.082-3.694-24.09c7.257,3.258,17.553,2.724,24.471,0.577c5.415-1.667,10.351-3.781,15.003-7.006
						c5.273-3.661,9.457-7.474,12.889-12.726c8.836-0.73,16.202-3.465,23.937-8.084c0.632-0.381,0.948-1.297,0.915-2.125
						c1.929-0.577,3.803-1.275,5.6-2.135c0.915-0.436,1.286-2.081,0.85-2.942c6.635-1.58,12.9-4.195,18.446-8.063
						C291.883,371.6,292.264,368.996,290.379,369.617z M193.017,397.531c0.414-0.915,0.85-1.83,1.318-2.724
						c0.937-1.82,1.994-3.596,3.149-5.284c0.065-0.109,0.12-0.218,0.164-0.338c1.874,0.697,3.781,1.318,5.742,1.863
						c3.999,1.101,8.15,2.059,12.377,2.811c-0.349,0-1.58,1.155-1.863,1.362c-0.665,0.468-1.34,0.937-2.037,1.373
						c-1.329,0.839-2.713,1.613-4.162,2.223c-2.757,1.177-5.764,2.038-8.771,1.994c-1.525-0.022-2.964-0.414-4.402-0.817
						C193.366,399.656,192.451,398.817,193.017,397.531z M184.235,412c-0.425,4.075-0.545,8.422,0,12.65
						c-2.713-7.387-4.598-14.861-4.097-22.946c0.414-6.57,1.558-13.249,3.443-19.579c0,0.316,4.075,2.441,4.5,2.68
						c1.101,0.61,3.944,1.438,4.391,2.735c0.087,0.251,0.065,0.523,0,0.774c-0.153,0.588-0.49,1.111-0.828,1.612
						C187.155,396.616,185.085,404.036,184.235,412z M227.752,403.426c-4.042,2.975-8.324,5.066-13.075,6.668
						c-7.224,2.43-17.934,3.541-25.376-0.033c0.349-2.168,0.795-4.326,1.438-6.45c3.672,1.754,9.229,1.58,12.541,0.959
						c5.96-1.111,14.088-4.478,17.422-9.948c5.186,0.686,10.95,1.079,16.158,0.883C234.3,398.414,230.934,401.094,227.752,403.426z"
						/>
				</g>
			</g>
			<g style="opacity:0.15;">
				<path d="M163.326,381.815c-4.426-12.514-10.835-11.63-10.835-11.63s2.625-1.515,9.903-0.607c0,0-2.047-5.458-9.299-8.706
					c-1.108,5.726-1.201,11.862-0.092,18.28c1.338,7.737,4.237,14.798,8.288,20.924
					C163.271,396.032,165.806,388.829,163.326,381.815z"/>
				<path d="M178.738,416.72c1.425-3.108,3.403-6.329,6.717-9.352c9.129-8.328,12.352-10.696,12.296-16.39
					c-0.074-7.522-7.279-6.949-9.432-5.705c0,0-2.031-3.098-7.29-1.637c-4.425,1.23-6.348,5.122-6.348,5.122
					s-3.569-0.366-7.283,3.614c-1.727,1.851-4.213,5.382-5.947,7.943C165.969,407.07,171.9,412.669,178.738,416.72z"/>
			</g>
			<g id="Paw_6_">
				<path style="fill:#27DEBF;" d="M254.62,339.102c-0.179-4.441-2.871-10.415-6.348-15.331c-5.8-8.2-14.152-13.282-22.572-16.044
					l-21.664,13.54c23.146-0.779,31.114,11.407,33.257,18.206c1.48,4.696,2.728,8.319,5.469,8.321
					c2.685,0.002,2.963-2.344,2.963-2.344c1.895,1.794,4.726,0.733,4.845-1.577c1.042,0.46,2.1,0.33,2.91-0.522
					C254.56,342.217,254.683,340.669,254.62,339.102z"/>
				<path style="opacity:0.15;" d="M225.7,307.727l-21.664,13.54c2.974-0.1,5.693,0.017,8.186,0.306
					c5.838-3.138,11.842-7.398,16.625-12.7C227.803,308.453,226.752,308.072,225.7,307.727z"/>
				<path style="opacity:0.15;" d="M253.482,343.351c0.015-0.016,0.026-0.034,0.041-0.051c-0.913,0.31-1.745-0.067-2.217-1.203
					c-0.734-1.766-0.959-2.597-1.358-2.996c0,0,0.843,2.753,0.624,4.771C251.614,344.333,252.672,344.203,253.482,343.351z"/>
				<path style="opacity:0.15;" d="M248.912,346.161c-1.107-0.044-1.961-0.842-2.355-2.169c-0.554-1.865-0.891-2.443-1.29-2.842
					c0,0,0.679,2.282,0.46,4.301C246.707,346.379,247.935,346.538,248.912,346.161z"/>
			</g>
			<g id="Paw_5_">
				<path style="fill:#27DEBF;" d="M90.091,372.321c2.18,17.292,8.438,27.793,20.812,37.198c12.375,9.405,29.495,14.51,37.1,17.347
					c7.605,2.837,13.346,6.507,18.478,1.67c5.131-4.837,4.148-14.669,13.277-22.997c9.129-8.328,12.352-10.696,12.296-16.39
					c-0.074-7.522-7.279-6.949-9.432-5.705c0,0-2.031-3.098-7.291-1.637c-4.425,1.23-6.348,5.122-6.348,5.122
					s-3.569-0.366-7.283,3.614c-2.902,3.111-7.961,10.982-7.961,10.982s7.621-10.988,3.89-21.538
					c-4.426-12.514-10.835-11.63-10.835-11.63s2.625-1.515,9.903-0.607c0,0-3.367-8.982-16.771-10.759
					c-13.277-1.76-21.538,7.324-21.538,7.324L90.091,372.321z"/>
				<path style="opacity:0.15;" d="M171.196,384.138L171.196,384.138c-1.512,1.387-2.211,2.791-2.211,2.791
					c2.867-0.05,6.349,0.201,8.126,5.37C177.11,392.298,179.354,386.468,171.196,384.138z"/>
				<path style="opacity:0.15;" d="M184.184,389.348c0,0,2.627-1.669,0.794-6.593c-0.972,0.112-1.82,0.379-2.355,0.688
					C184.253,384.999,184.605,387.88,184.184,389.348z"/>
				<g>
					<path style="fill:#F28F8F;" d="M176.231,399.472c-6.375,1.924-11.558,6.446-14.176,13.733
						c-2.618,7.286-1.304,11.99,1.622,12.569c2.922,0.578,4.313,0.094,6.64-3.883c1.845-4.899,3.508-10.939,9.441-16.352
						c1.756-1.602,3.289-2.98,4.626-4.206C184.006,399.283,181.157,397.985,176.231,399.472z"/>
					<path style="fill:#F28F8F;" d="M173.863,393.258c-1.989-0.689-3.794,4.044-1.493,4.803
						C174.281,398.691,176.527,394.181,173.863,393.258z"/>
					<path style="fill:#F28F8F;" d="M181.924,390.792c-1.989-0.689-3.794,4.044-1.493,4.803
						C182.342,396.226,184.588,391.715,181.924,390.792z"/>
					<path style="fill:#F28F8F;" d="M188.199,390.296c-1.989-0.689-3.794,4.044-1.493,4.803
						C188.616,395.73,190.863,391.219,188.199,390.296z"/>
				</g>
				<path style="opacity:0.05;" d="M160.647,428.536c-11.868-2.556-10.281-8.943-15.583-12.777
					c-5.302-3.833-17.147-2.371-36.118-17.887c-18.97-15.516-19.845-49.198-7.727-63.878c-7.647,9.408-12.609,21.532-11.127,38.327
					c0.249,2.816,0.736,5.445,1.41,7.911c2.982,12.753,9.042,21.412,19.403,29.287c12.375,9.405,29.495,14.51,37.1,17.347
					c7.605,2.837,13.346,6.507,18.478,1.67c0.413-0.39,0.776-0.823,1.118-1.274C165.554,428.597,163.231,429.093,160.647,428.536z"
					/>
			</g>
			<path style="opacity:0.15;" d="M205.404,345.407c-6.196-8.504-11.059-12.482-18.574-16.688v-4.865
				c-1.134,0.389-2.252,0.804-3.345,1.255c-10.724,4.429-19.428,11.803-24.905,21.165c22.855-1.728,33.146,9.933,35.699,16.648
				c1.79,4.707,3.28,8.333,6.08,8.173c2.742-0.157,2.887-2.569,2.887-2.569c2.042,1.72,4.87,0.468,4.854-1.898
				c1.092,0.407,2.164,0.212,2.941-0.706c1.034-1.222,1.068-2.811,0.91-4.407C211.504,356.988,209.031,350.385,205.404,345.407z"/>
			<g id="Paw_4_">
				<path style="fill:#27DEBF;" d="M212.903,358.163c-0.447-4.525-2.92-11.128-6.547-16.106
					c-6.196-8.504-11.059-12.482-18.574-16.688v-5.914c0,0-27.09,5.54-27.595,23.5c23.59-2.171,32.452,9.8,35.044,16.616
					c1.79,4.707,3.28,8.333,6.08,8.173c2.742-0.157,2.887-2.569,2.887-2.569c2.042,1.72,4.87,0.468,4.854-1.898
					c1.092,0.407,2.164,0.212,2.941-0.706C213.027,361.347,213.061,359.759,212.903,358.163z"/>
				<path style="opacity:0.15;" d="M211.993,362.569c0.015-0.017,0.025-0.037,0.039-0.054c-0.914,0.371-1.786,0.035-2.336-1.096
					c-0.855-1.76-1.133-2.595-1.565-2.978c0,0,1.025,2.761,0.921,4.835C210.144,363.683,211.216,363.487,211.993,362.569z"/>
				<path style="opacity:0.15;" d="M207.493,365.71c-1.133,0.021-2.053-0.744-2.534-2.075c-0.676-1.872-1.055-2.442-1.486-2.826
					c0,0,0.829,2.29,0.725,4.365C205.254,366.064,206.518,366.153,207.493,365.71z"/>
				<path style="opacity:0.15;" d="M167.221,329.191c8.855,2.049,18.232,1.375,26.106-0.394c-1.71-1.186-3.53-2.3-5.545-3.428
					v-5.914C187.782,319.455,175.399,321.995,167.221,329.191z"/>
			</g>
			<g>
				<g>
					<path style="fill:#27DEBF;" d="M193.623,260.229c2.73-8.645,14.668-19.555,24.723-16.389
						c5.667,1.784,3.393,22.672,3.393,22.672S203.352,267.917,193.623,260.229z"/>
					<path style="opacity:0.15;" d="M193.623,260.229c2.73-8.645,14.668-19.555,24.723-16.389
						c5.667,1.784,3.393,22.672,3.393,22.672S203.352,267.917,193.623,260.229z"/>
					<path style="fill:#FFA8A7;" d="M202.17,264.468c9.263,2.83,19.569,2.044,19.569,2.044s2.274-20.888-3.393-22.672
						C214.676,243.296,205.785,248.889,202.17,264.468z"/>
					<path style="fill:#F28F8F;" d="M214.057,256.783c-0.861-2.326,0.801-5.317,0.801-5.317c-3.39,0-7.812,3.481-8.213,9.094
						c0,0,6.902,8.32,13.986,3.912c0.343-1.411,0.881-2.485,1.481-3.314c0.06-1.442,0.094-3.062,0.066-4.725
						C218.509,255.612,214.057,256.783,214.057,256.783z"/>
				</g>
				<g>
					<path style="fill:#27DEBF;" d="M170.168,268.473c-7.531-5.046-23.668-6.111-29.544,2.642
						c-3.311,4.933,11.54,19.846,11.54,19.846S167.371,280.554,170.168,268.473z"/>
					<path style="opacity:0.15;" d="M170.168,268.473c-7.531-5.046-23.668-6.111-29.544,2.642
						c-3.311,4.933,11.54,19.846,11.54,19.846S167.371,280.554,170.168,268.473z"/>
					<path style="fill:#FFA8A7;" d="M166.141,277.122c-5.466,7.996-13.977,13.839-13.977,13.839s-14.852-14.913-11.54-19.846
						C143.151,268.398,153.587,267.213,166.141,277.122z"/>
					<path style="fill:#F28F8F;" d="M148.52,274.618c0,0,3.166,1.298,3.947,3.652c0,0-4.595,2.037-6.865,5.2
						c0.852,1.096,1.717,2.142,2.529,3.087c1.183,0.196,2.564,0.71,4.034,1.845c8.285-0.983,8.002-11.218,8.002-11.218
						C157.206,272.989,151.167,272.501,148.52,274.618z"/>
				</g>
				<g>
					<path style="fill:#27DEBF;" d="M201.888,322.072c-9.63,3.392-23.981,5.67-36.691,1.714
						c-15.147-4.715-15.979-25.518-12.301-35.095c3.678-9.576,11.256-19.344,28.582-25.447c17.326-6.103,29.353-3.242,38.221,1.915
						c8.868,5.157,21.259,21.889,12.411,35.056C224.685,311.263,211.517,318.679,201.888,322.072z"/>
					<path style="fill:#F0F0F0;" d="M201.807,319.896c19.198-6.763,18.197-18.029,13.344-22.519s-12.888-5.499-22.073-2.263
						c-9.186,3.236-14.814,9.058-15.782,15.598C176.328,317.252,182.609,326.658,201.807,319.896z"/>
					<path style="fill:#F28F8F;" d="M196.562,311.863c0,0,0.774,3.246,3.197,2.439c2.497-0.832,1.01-3.882,1.01-3.882l-2.97-2.175
						L196.562,311.863z"/>
					<g>
						<g>
							<path style="fill:#455A64;" d="M196.445,304.694l-4.512-0.505c-0.34-0.038-0.586-0.346-0.548-0.686s0.346-0.579,0.686-0.548
								l3.929,0.439l2.852-2.777c0.244-0.241,0.638-0.236,0.878,0.012c0.239,0.246,0.234,0.638-0.012,0.878L196.445,304.694z"/>
						</g>
						<g>
							<path style="fill:#455A64;" d="M193.177,314.023c-0.753,0-1.502-0.169-2.201-0.504c-1.231-0.588-2.158-1.623-2.611-2.909
								c-0.113-0.323,0.056-0.679,0.38-0.793c0.323-0.112,0.678,0.056,0.793,0.38c0.343,0.975,1.044,1.757,1.975,2.203
								c0.93,0.446,1.98,0.503,2.954,0.16c0.974-0.344,1.756-1.045,2.201-1.976c0.446-0.931,0.503-1.98,0.161-2.954l-1.191-3.379
								c-0.115-0.323,0.055-0.678,0.379-0.792c0.323-0.116,0.678,0.055,0.792,0.379l1.191,3.379
								c0.453,1.286,0.379,2.673-0.211,3.903c-0.589,1.231-1.623,2.158-2.909,2.61C194.323,313.926,193.75,314.023,193.177,314.023z
								"/>
						</g>
						<g>
							<path style="fill:#455A64;" d="M201.641,311.042c-0.753,0-1.503-0.168-2.203-0.503c-1.231-0.589-2.158-1.623-2.61-2.909
								l-1.191-3.379c-0.115-0.323,0.055-0.678,0.379-0.792c0.323-0.116,0.678,0.055,0.792,0.379l1.191,3.379
								c0.344,0.974,1.045,1.756,1.976,2.201c0.933,0.446,1.98,0.501,2.954,0.161c2.01-0.709,3.069-2.921,2.361-4.931
								c-0.113-0.323,0.056-0.679,0.38-0.793c0.326-0.113,0.679,0.056,0.793,0.38c0.934,2.657-0.466,5.579-3.121,6.514
								C202.785,310.945,202.212,311.042,201.641,311.042z"/>
						</g>
					</g>
					<path style="fill:#455A64;" d="M215.057,285.078c0.822,2.332-0.403,4.889-2.735,5.71c-2.332,0.822-4.889-0.403-5.71-2.735
						c-0.822-2.332,0.403-4.889,2.735-5.71C211.679,281.522,214.236,282.746,215.057,285.078z"/>
					<path style="fill:#455A64;" d="M169.66,301.07c0.821,2.332,3.378,3.557,5.71,2.735c2.332-0.822,3.557-3.378,2.735-5.71
						c-0.821-2.332-3.378-3.557-5.71-2.735C170.063,296.181,168.838,298.738,169.66,301.07z"/>
					<g>
						<g>
							<path style="fill:#455A64;" d="M156.61,301.834c-0.242,0-0.483-0.093-0.665-0.279c-3.419-3.489-9.188-7.062-17.239-4.259
								c-0.491,0.17-1.017-0.089-1.186-0.573c-0.169-0.486,0.088-1.017,0.574-1.186c8.979-3.121,15.386,0.842,19.182,4.715
								c0.361,0.368,0.354,0.958-0.013,1.317C157.081,301.746,156.846,301.834,156.61,301.834z"/>
						</g>
						<g>
							<path style="fill:#455A64;" d="M154.539,304.153c-0.167,0-0.336-0.046-0.488-0.139c-3.089-1.908-8.707-1.91-11.664-0.638
								c-0.47,0.204-1.02-0.015-1.224-0.487c-0.203-0.472,0.015-1.02,0.487-1.224c3.385-1.456,9.711-1.499,13.379,0.764
								c0.437,0.27,0.573,0.845,0.303,1.282C155.156,303.995,154.852,304.153,154.539,304.153z"/>
						</g>
						<g>
							<path style="fill:#455A64;" d="M140.12,311.996c-0.265,0-0.528-0.112-0.712-0.331c-0.332-0.393-0.282-0.981,0.112-1.312
								c5.532-4.665,12.694-5.525,16.998-4.357c0.497,0.135,0.791,0.647,0.655,1.143c-0.135,0.497-0.653,0.789-1.143,0.655
								c-3.857-1.049-10.291-0.247-15.31,3.983C140.546,311.925,140.333,311.996,140.12,311.996z"/>
						</g>
					</g>
					<g>
						<g>
							<path style="fill:#455A64;" d="M224.458,277.934c-0.031,0-0.061-0.001-0.093-0.004c-0.512-0.05-0.885-0.505-0.835-1.018
								c0.53-5.398,3.042-12.503,11.993-15.696c0.482-0.175,1.018,0.08,1.19,0.564c0.173,0.484-0.079,1.017-0.564,1.19
								c-8.031,2.866-10.287,9.263-10.765,14.126C225.337,277.576,224.932,277.934,224.458,277.934z"/>
						</g>
						<g>
							<path style="fill:#455A64;" d="M227.524,278.443c-0.103,0-0.209-0.018-0.311-0.054c-0.485-0.171-0.74-0.703-0.567-1.188
								c1.439-4.063,6.396-7.993,9.946-8.979c0.497-0.141,1.009,0.152,1.146,0.648c0.138,0.495-0.152,1.009-0.648,1.146
								c-3.102,0.862-7.477,4.384-8.689,7.807C228.266,278.203,227.907,278.443,227.524,278.443z"/>
						</g>
						<g>
							<path style="fill:#455A64;" d="M228.474,282.392c-0.189,0-0.381-0.058-0.547-0.178c-0.416-0.302-0.508-0.885-0.205-1.301
								c2.625-3.612,8.725-7.408,15.975-7.258c0.515,0.012,0.921,0.438,0.91,0.952c-0.012,0.508-0.427,0.91-0.931,0.91
								c-0.006,0-0.014,0-0.021,0c-6.585-0.144-12.077,3.259-14.426,6.492C229.046,282.259,228.762,282.392,228.474,282.392z"/>
						</g>
					</g>
				</g>
				<path style="fill:#27DEBF;" d="M208.321,260.688c0.798-3.66,4.255-7.183,7.644-7.183c0,0-1.662,2.991-0.801,5.317
					c0,0,8.644-2.274,11.768,1.737c0,0-3.921,0.722-5.194,5.952C214.655,270.92,208.321,260.688,208.321,260.688z"/>
				<path style="fill:#27DEBF;" d="M158.976,278.012c-2.91-2.359-7.809-2.952-10.456-0.835c0,0,3.166,1.298,3.947,3.652
					c0,0-8.171,3.623-8.105,8.707c0,0,3.543-1.864,7.803,1.426C160.449,289.979,158.976,278.012,158.976,278.012z"/>
				<path style="fill:#27DEBF;" d="M189.336,260.989c-1.174,0.269-1.268-1.916-0.727-4.644c0.487-2.456,2.475-7.367-0.974-7.308
					c-3.449,0.058-7.191,3.187-8.653,9.121c0,0-1.597-2.008-2.143-4.249c-0.546-2.241-3.347-2.443-4.58,2.027
					c-0.936,3.391,0.695,6.785,1.59,8.208c0.498,0.79,0.292,2.095-1.381,3.03c0,0,7.216,2.468,12.069,0
					C189.389,264.706,189.336,260.989,189.336,260.989z"/>
				<g>
					<path style="fill:#455A64;" d="M180.788,279.952c1.198-0.114,2.078-1.177,1.964-2.375c-0.413-4.353-2.265-8.598-5.508-12.669
						c-1.434,0.613-2.803,1.249-4.087,1.915c3.118,3.654,4.899,7.398,5.256,11.165c0.107,1.129,1.057,1.974,2.167,1.974
						C180.649,279.961,180.719,279.958,180.788,279.952z"/>
					<path style="fill:#455A64;" d="M193.961,272.548c0.204,1.039,1.115,1.76,2.137,1.76c0.138,0,0.28-0.013,0.421-0.04
						c1.181-0.232,1.95-1.377,1.719-2.558c-0.782-3.986-2.811-7.75-6.001-11.255c-1.635,0.266-3.323,0.613-5.074,1.064
						C190.905,264.972,193.201,268.67,193.961,272.548z"/>
					<path style="fill:#455A64;" d="M180.117,263.759c2.288,2.535,5.948,7.383,6.825,13.275c0.162,1.081,1.092,1.858,2.152,1.858
						c0.108,0,0.215-0.007,0.325-0.023c1.189-0.178,2.011-1.286,1.834-2.477c-0.897-6.018-4.094-10.985-6.689-14.155
						c-1.011,0.305-2.038,0.639-3.087,1.008C181.008,263.41,180.573,263.588,180.117,263.759z"/>
				</g>
			</g>
		</g>
		<g>
			<path style="fill:#455A64;" d="M101.307,404.617c-0.052,0-0.105-0.002-0.157-0.007c-0.899-0.086-1.558-0.884-1.472-1.782
				c0.659-6.88,7.427-18.849,23.373-23.628c15.462-4.637,31.65,0.593,38.369,8.322c0.593,0.681,0.52,1.714-0.161,2.306
				c-0.683,0.593-1.714,0.519-2.306-0.161c-4.956-5.701-19.496-11.972-34.965-7.336c-14.401,4.317-20.483,14.809-21.058,20.808
				C102.851,403.984,102.139,404.617,101.307,404.617z"/>
		</g>
		<g>
			<path style="fill:#455A64;" d="M117.317,417.117c-0.896,0-1.626-0.721-1.634-1.619c-0.031-3.348,2.471-14.767,10.792-21.934
				c12.884-11.095,27.833-6.846,32.502-4.271c0.791,0.435,1.079,1.429,0.643,2.22c-0.436,0.792-1.429,1.08-2.22,0.643
				c-4.12-2.268-17.321-5.994-28.793,3.886c-7.354,6.333-9.681,16.601-9.656,19.427c0.009,0.902-0.717,1.641-1.619,1.649
				C117.327,417.117,117.322,417.117,117.317,417.117z"/>
		</g>
		<g>
			<path style="fill:#455A64;" d="M96.376,251.941c-4.822,11.382-0.409,35.571,9.504,50.483
				c10.701,16.094,32.396,36.364,56.742,45.365c0.846,0.314,1.279,1.253,0.966,2.1c-0.245,0.66-0.869,1.067-1.533,1.067
				c-0.188,0-0.38-0.032-0.567-0.101c-25.035-9.257-47.335-30.086-58.329-46.623c-11.125-16.734-15.46-43.638-8.917-55.362
				c0.552-0.989,1.117-1.787,1.626-2.414C96.207,248.275,96.393,250.102,96.376,251.941z"/>
		</g>
	</g>
</g>
<g id="Sign_1_">
	<g id="Sign_3_">
		<g>
			<g id="XMLID_211_">
				<polygon id="XMLID_224_" style="fill:#37474F;" points="350.014,73.169 360.029,67.387 360.031,356.495 350.016,362.278 				"/>
				<g>
					<polygon id="XMLID_223_" style="fill:#455A64;" points="334.993,353.604 350.016,362.278 350.014,73.169 346.376,71.068 
						345.157,83.631 343.913,69.646 334.992,64.496 					"/>
					<path style="opacity:0.1;" d="M350.015,269.13l0-35.64c-0.585-13.853-1.258-32.006-1.148-39.925l-3.466-2.001
						c0,12.084-1.359,34.362-2.098,49.391c-1.047,21.287,2.763,48.797,2.929,59.896c0.166,11.099,0,59.241,0,59.243l1.711,0.988
						c0-0.003-0.514-60.538,0.924-76.621C349.362,278.933,349.735,273.72,350.015,269.13z M346.595,276.674
						c-2.29-1.002-1.74-54.819,0.639-53.964C349.092,223.378,348.885,277.676,346.595,276.674z"/>
					<polygon id="XMLID_221_" style="fill:#263238;" points="346.376,71.068 343.913,69.646 345.157,83.631 					"/>
					<path id="XMLID_220_" style="opacity:0.05;fill:#FFFFFF;" d="M339.848,67.298c-0.209,15.487,2.827,25.865,2.772,47.385
						c0,0-0.34-15.221-2.388-26.504c-2.283-12.581-2.283-21.977-2.283-21.977L339.848,67.298z"/>
					<path id="XMLID_219_" style="opacity:0.05;fill:#FFFFFF;" d="M350.014,73.169c0,5.096-0.22,16.733-0.857,23.893
						c-0.553,6.212-0.654,19.562-0.229,29.902c0,0-1.788-16.894-1.192-26.906c0.596-10.012,0.591-27.862,0.591-27.862
						L350.014,73.169z"/>
					<path style="opacity:0.1;" d="M334.992,121.951l0,18.54c1.587-9.767,4.081-20.084,4.518-24.467
						c0.656-6.575-0.437-18.646-1.56-25.463c-1.123-6.817-2.956-18.319-2.665-25.897l-0.293-0.169l0,18.435
						c0.048,0.397,0.094,0.794,0.147,1.185c1.238,9.127,1.894,22.628,1.434,28.643C336.36,115.549,335.67,119.022,334.992,121.951z"
						/>
					<path id="XMLID_218_" style="opacity:0.05;fill:#FFFFFF;" d="M340.873,254.034c-0.302,6.793,2.607,32.152,3.168,40.146
						c1.094,15.608,0.603,64.995,0.603,64.995l-2.024-1.169c0,0,0.241-55.836,0-62.325
						C342.286,286.693,339.968,261.872,340.873,254.034z"/>
					<path id="XMLID_217_" style="opacity:0.1;" d="M342.62,190.464c0,12.36-0.39,35.799-1.955,45.682
						c-1.565,9.882-2.823,25.969-0.958,44.176c1.866,18.208,0.578,33.008,0.578,33.008s-0.602-19.064-2.336-34.657
						c-1.734-15.594-1.357-31.555,0-46.633c1.357-15.078,1.754-43.766,1.754-43.766L342.62,190.464z"/>
					<path id="XMLID_216_" style="opacity:0.05;fill:#FFFFFF;" d="M337.369,187.432c0,0-0.225,19.624-0.583,26.147
						c-0.357,6.523-1.298,19.249-1.298,19.249s-0.313-20.901,0-27.609s-0.139-19.315-0.139-19.315L337.369,187.432z"/>
					<path id="XMLID_215_" style="opacity:0.05;fill:#FFFFFF;" d="M337.369,295.764c1.116,10.5,1.269,22.79,1.573,27.424
						c0.305,4.634,0.758,33.134,0.758,33.134l-2.334-1.348c0,0-0.192-29.511-0.268-36.144
						C337,310.328,337.777,301.396,337.369,295.764z"/>
					<path id="XMLID_214_" style="opacity:0.1;" d="M342.57,71.781c0.505,8.15,2.41,16.026,2.96,21.742
						c0.55,5.716,0.981,23.407,0.981,23.407l-1.962-1.133c0,0,0.409-16.171-0.573-24.057
						C342.995,83.854,342.336,76.958,342.57,71.781z"/>
				</g>
				<polygon style="fill:#263238;" points="360.029,67.387 345.007,58.713 334.992,64.496 350.014,73.169 				"/>
				<polygon style="opacity:0.15;" points="360.031,232.179 350.016,237.962 350.017,252.008 360.031,246.225 				"/>
				<polygon id="XMLID_212_" style="opacity:0.15;" points="350.016,237.962 334.992,229.288 334.992,243.334 350.017,252.008 				
					"/>
			</g>
			<g>
				<g id="XMLID_178_">
					<polygon id="XMLID_209_" style="fill:#263238;" points="252.777,138.79 438.037,245.712 448.779,239.532 263.536,132.569 					
						"/>
					<polygon id="XMLID_208_" style="fill:#455A64;" points="244.062,131.53 430.487,239.122 430.487,196.042 413.989,186.517 
						412.188,199.08 411.107,184.853 244.062,88.449 244.068,116.311 249.426,121.648 244.062,120.088 					"/>
					<g id="XMLID_194_">
						<g id="XMLID_196_">
							<path id="XMLID_207_" style="opacity:0.05;fill:#FFFFFF;" d="M430.487,231.956c-9.702-5.612-50.494-28.632-55.195-30.879
								c-13.663-6.533-25.441-11.679-43.719-22.087c0,0,8.477,6.053,26.756,15.477c8.577,4.422,16.444,8.204,20.565,10.257
								c4.121,2.053,51.592,29.374,51.592,29.374V231.956z"/>
							<path id="XMLID_206_" style="opacity:0.1;" d="M244.103,97.695c0,0,6.886,3.981,15.907,9.199
								c14.255,8.246,23.829,14.182,30.019,19.862c6.19,5.68,18.171,12.878,23.557,15.801c0,0-6.322-2.293-18.169-9.631
								c-11.847-7.337-14.005-11.155-30.833-20.889c-16.829-9.735-20.484-11.847-20.484-11.847L244.103,97.695z"/>
							<path id="XMLID_205_" style="opacity:0.1;" d="M430.487,226.843c-10.193-5.896-44.254-25.529-49.651-28.651
								c-5.396-3.121-18.108-5.572-25.078-9.604c0,0,5.171,3.763,12.255,6.49c7.085,2.726,55.84,30.24,62.474,34.077V226.843z"/>
							<path id="XMLID_204_" style="opacity:0.05;fill:#FFFFFF;" d="M249.426,121.648c0,0,36.708,21.232,47.482,27.464
								c10.774,6.232,28.672,18.737,43.756,26.906c15.084,8.169,26.192,12.862,26.192,12.862s-14.426-4.113-26.361-11.016
								c-11.935-6.904-33.646-20.484-46.74-28.059c-13.094-7.575-49.686-28.739-49.686-28.739l0.001-0.973L249.426,121.648z"/>
							<path id="XMLID_203_" style="opacity:0.05;fill:#FFFFFF;" d="M430.487,211.432c-10.008-5.789-43.121-24.878-51.042-29.46
								c-7.921-4.582-19.972-13.029-33.403-20.799c-13.431-7.769-24.453-12.557-32.893-15.863s-17.738-8.572-17.738-8.572
								s8.859,6.213,22.167,12.26c13.308,6.047,29.251,14.386,43.404,24.441c14.153,10.055,69.506,40.819,69.506,40.819V211.432z"/>
							<path id="XMLID_202_" style="opacity:0.05;fill:#FFFFFF;" d="M244.111,91.901c0,0,59.932,33.958,74.913,42.624
								c14.981,8.666,34.609,20.728,34.609,20.728s-31.685-16.854-63.369-35.182c-31.683-18.328-46.156-26.697-46.156-26.697
								L244.111,91.901z"/>
							<path id="XMLID_201_" style="opacity:0.1;" d="M430.487,203.344c0,0-69.231-39.973-88.744-51.26
								c-19.512-11.287-41.258-21.716-41.258-21.716s16.211,10.719,40.183,24.622c7.099,4.118,89.818,51.878,89.818,51.878V203.344"
								/>
							<path id="XMLID_200_" style="opacity:0.1;" d="M244.063,124.758c0,0,42.642,24.664,53.646,31.029
								c11.004,6.366,39.527,23.748,46.332,28.063c0,0-28.092-14.76-65.448-36.369l-34.533-19.974L244.063,124.758z"/>
							<path id="XMLID_197_" style="opacity:0.1;" d="M244.077,114.995c0,0,34.673,20.054,45.188,26.137
								c10.515,6.083,35.047,22.612,45.812,28.839c10.765,6.227,81.891,44.941,95.41,52.762v-3.037
								c-8.387-4.852-76.493-49.069-92.766-58.482c-16.273-9.414-32.927-14.138-43.067-20.005
								c-10.141-5.866-50.572-29.251-50.572-29.251L244.077,114.995z M314.404,153.461c0.002-1.511,13.88,4.825,23.419,10.343
								c8.409,4.864,25.116,16.112,25.114,17.515c-0.002,1.403-16.326-7.361-25.122-12.449
								C329.02,163.782,314.402,154.972,314.404,153.461z"/>
						</g>
						<path id="XMLID_195_" style="opacity:0.05;fill:#FFFFFF;" d="M244.109,103.415c6.574,3.796,27.044,15.372,32.739,19.749
							c5.694,4.377,11.601,11.419,22.606,17.773c0,0-11.356-4.74-17.884-10.931c-6.528-6.19-37.515-23.523-37.515-23.523
							L244.109,103.415z"/>
					</g>
					<polygon id="XMLID_193_" style="opacity:0.2;fill:#FFFFFF;" points="263.618,99.738 411.244,186.659 412.239,190.693 
						413.755,188.151 428.624,197.436 430.487,239.122 430.487,196.042 413.989,186.516 412.548,185.656 411.107,184.853 					"/>
					<polygon id="XMLID_191_" style="fill:#37474F;" points="441.229,232.911 430.487,239.122 430.487,196.042 441.229,189.709 
											"/>
					<polygon id="XMLID_189_" style="fill:#263238;" points="413.989,186.517 412.188,199.08 411.107,184.853 412.548,185.656 					
						"/>
					<polygon id="XMLID_187_" style="fill:#37474F;" points="411.107,184.853 412.548,185.656 412.188,199.08 					"/>
					<polygon id="XMLID_185_" style="fill:#37474F;" points="244.068,116.311 245.67,119.282 244.07,120.093 249.426,121.648 					
						"/>
					<polygon id="XMLID_183_" style="fill:#263238;" points="244.068,116.311 245.67,119.282 249.426,121.648 					"/>
					<polygon id="XMLID_181_" style="fill:#263238;" points="435.044,232.844 430.487,232.995 422.154,229.459 430.487,237.504 
											"/>
					<polygon id="XMLID_179_" style="fill:#37474F;" points="435.044,232.844 430.487,235.14 422.154,229.459 430.487,232.995 					
						"/>
				</g>
				<g id="XMLID_139_">
					<polygon id="XMLID_176_" style="fill:#263238;" points="244.062,88.449 430.487,196.042 441.229,189.709 254.919,82.181 					
						"/>
					<polygon id="XMLID_175_" style="fill:#455A64;" points="249.058,89.039 434.318,195.961 434.318,152.88 267.45,56.577 
						265.648,69.14 264.568,54.913 249.058,45.958 					"/>
					<g id="XMLID_161_">
						<g id="XMLID_163_">
							<path id="XMLID_174_" style="opacity:0.05;fill:#FFFFFF;" d="M434.318,188.795c-9.701-5.612-50.493-28.632-55.194-30.879
								c-13.663-6.533-25.442-11.678-43.719-22.087c0,0,8.477,6.053,26.756,15.477c8.577,4.422,16.444,8.204,20.565,10.256
								c4.121,2.053,51.592,29.374,51.592,29.374V188.795z"/>
							<path id="XMLID_173_" style="opacity:0.1;" d="M249.099,55.204c0,0,5.722,3.31,14.742,8.528
								c14.255,8.246,23.829,14.182,30.019,19.862c6.19,5.68,18.172,12.878,23.557,15.801c0,0-6.322-2.293-18.168-9.631
								c-11.847-7.338-14.005-11.155-30.833-20.889c-16.829-9.735-19.32-11.176-19.32-11.176L249.099,55.204z"/>
							<path id="XMLID_172_" style="opacity:0.1;" d="M434.318,183.681c-10.193-5.896-44.254-25.529-49.651-28.651
								c-5.396-3.121-18.108-5.572-25.078-9.604c0,0,5.171,3.763,12.255,6.49c7.085,2.726,55.84,30.24,62.474,34.077V183.681z"/>
							<path id="XMLID_171_" style="opacity:0.05;fill:#FFFFFF;" d="M249.068,76.06c0,0,40.897,23.657,51.671,29.89
								c10.774,6.232,28.672,18.737,43.756,26.906c15.084,8.169,26.192,12.862,26.192,12.862s-14.426-4.113-26.361-11.016
								c-11.935-6.904-33.646-20.484-46.74-28.059c-13.094-7.575-48.522-28.068-48.522-28.068L249.068,76.06z"/>
							<path id="XMLID_170_" style="opacity:0.05;fill:#FFFFFF;" d="M434.318,168.27c-10.008-5.789-43.121-24.878-51.042-29.46
								c-7.921-4.582-19.972-13.03-33.403-20.799c-13.431-7.769-24.454-12.557-32.893-15.863c-8.44-3.306-17.738-8.573-17.738-8.573
								s8.859,6.213,22.167,12.26c13.308,6.047,29.251,14.386,43.404,24.441c14.153,10.055,69.505,40.819,69.505,40.819V168.27z"/>
							<path id="XMLID_169_" style="opacity:0.05;fill:#FFFFFF;" d="M249.107,49.41c57.891,32.791,57.633,32.631,73.748,41.953
								c14.981,8.666,34.61,20.728,34.61,20.728s-31.685-16.854-63.369-35.182c-31.683-18.328-44.991-26.026-44.991-26.026
								L249.107,49.41z"/>
							<path id="XMLID_168_" style="opacity:0.1;" d="M434.318,160.183c0,0-69.231-39.973-88.744-51.26
								c-19.512-11.287-41.258-21.716-41.258-21.716s16.211,10.718,40.183,24.622c7.1,4.118,89.818,51.878,89.818,51.878V160.183"/>
							<path id="XMLID_167_" style="opacity:0.1;" d="M249.059,82.267c0,0,41.477,23.993,52.481,30.358
								c11.004,6.366,39.527,23.748,46.332,28.063c0,0-28.092-14.76-65.448-36.369l-33.369-19.303L249.059,82.267z"/>
							<path id="XMLID_164_" style="opacity:0.1;" d="M249.073,72.504c0,0,33.508,19.383,44.023,25.466
								c10.515,6.083,35.047,22.612,45.812,28.839c10.766,6.228,81.891,44.941,95.41,52.762v-3.037
								c-8.387-4.852-76.493-49.069-92.766-58.482c-16.273-9.413-32.927-14.138-43.067-20.005
								c-10.141-5.866-49.407-28.58-49.407-28.58L249.073,72.504z M318.236,110.299c0.002-1.51,13.88,4.825,23.419,10.343
								c8.409,4.864,25.116,16.112,25.114,17.515c-0.002,1.403-16.326-7.361-25.122-12.449
								C332.852,120.62,318.234,111.81,318.236,110.299z"/>
						</g>
						<path id="XMLID_162_" style="opacity:0.05;fill:#FFFFFF;" d="M249.105,60.924c6.574,3.795,25.88,14.701,31.574,19.078
							c5.694,4.377,11.601,11.419,22.606,17.773c0,0-11.356-4.74-17.884-10.93c-6.528-6.19-36.351-22.852-36.351-22.852
							L249.105,60.924z"/>
					</g>
					<polygon id="XMLID_159_" style="fill:#263238;" points="267.45,56.577 266.009,55.747 264.568,54.913 265.648,69.14 					"/>
					<polygon id="XMLID_158_" style="opacity:0.2;fill:#FFFFFF;" points="267.45,56.577 432.456,154.275 434.318,195.961 
						434.318,152.88 					"/>
					<polygon id="XMLID_156_" style="fill:#37474F;" points="434.318,166.483 424.201,163.48 434.318,171.74 					"/>
					<polygon id="XMLID_154_" style="fill:#37474F;" points="445.061,189.709 434.318,195.961 434.318,152.88 445.061,146.507 					
						"/>
					<polygon style="fill:#263238;" points="434.318,152.88 445.061,146.507 259.967,39.683 249.058,45.958 					"/>
					<polygon id="XMLID_152_" style="fill:#37474F;" points="434.318,166.483 437.186,167.501 434.318,171.74 					"/>
					<polygon id="XMLID_142_" style="fill:#263238;" points="437.186,167.501 434.318,169.158 424.201,163.48 434.318,171.74 					
						"/>
					<polygon id="XMLID_140_" style="fill:#37474F;" points="264.568,54.913 266.009,55.747 265.648,69.14 					"/>
				</g>
				<g id="XMLID_2_">
					<polygon id="XMLID_138_" style="fill:#455A64;" points="252.777,138.79 438.037,245.712 438.037,288.793 271.168,192.489 
						269.367,177.846 268.286,190.825 252.777,181.871 					"/>
					<g id="XMLID_16_">
						<g id="XMLID_18_">
							<path id="XMLID_137_" style="opacity:0.05;fill:#FFFFFF;" d="M438.037,252.878c-9.701-5.59-50.493-29.596-55.194-32.777
								c-13.663-9.244-25.442-17.699-43.719-28.395c0,0,8.477,3.735,26.756,15.418c8.577,5.482,35.677,21.85,39.798,24.556
								c4.121,2.706,32.359,19.057,32.359,19.057V252.878z"/>
							<path id="XMLID_136_" style="opacity:0.1;" d="M252.817,172.672c0,0,5.722,3.297,14.742,8.495
								c14.255,8.214,23.829,13.333,30.019,14.801c6.19,1.468,18.172,8.104,23.557,11.4c0,0-6.322-5.007-18.168-11.349
								c-11.847-6.342-14.005-5.017-30.833-14.714c-16.829-9.697-19.32-11.133-19.32-11.133L252.817,172.672z"/>
							<path id="XMLID_135_" style="opacity:0.1;" d="M438.037,257.991c-10.193-5.874-25.022-14.429-30.418-17.539
								c-5.396-3.11-37.34-26.402-44.311-30.419c0,0,5.171,2.207,12.255,7.662c7.085,5.454,55.84,34.162,62.474,37.984V257.991z"/>
							<path id="XMLID_134_" style="opacity:0.05;fill:#FFFFFF;" d="M252.786,151.781c0,0,40.897,23.567,51.671,29.775
								s28.672,14.37,43.756,23.619c15.084,9.249,26.192,17.382,26.192,17.382s-14.426-12.545-26.361-19.422
								c-11.935-6.877-33.646-18.367-46.74-25.912c-13.094-7.545-48.522-27.96-48.522-27.96L252.786,151.781z"/>
							<path id="XMLID_25_" style="opacity:0.05;fill:#FFFFFF;" d="M438.037,273.402c-10.008-5.767-23.889-13.771-31.81-18.336
								c-7.921-4.564-39.204-21.097-52.635-28.837c-13.431-7.739-24.454-15.679-32.893-22.119c-8.44-6.44-17.738-11.91-17.738-11.91
								s8.859,4.016,22.167,13.336c13.308,9.32,29.251,19.391,43.404,25.678s69.505,39.362,69.505,39.362V273.402z"/>
							<path id="XMLID_24_" style="opacity:0.05;fill:#FFFFFF;" d="M252.825,178.476c0,0,58.768,34.572,73.748,43.204
								c14.981,8.632,34.609,19.236,34.609,19.236s-31.685-19.733-63.369-37.99c-31.683-18.257-44.991-25.926-44.991-25.926
								L252.825,178.476z"/>
							<path id="XMLID_23_" style="opacity:0.1;" d="M438.037,281.49c0,0-69.231-39.891-88.744-51.135
								c-19.512-11.244-41.258-25.924-41.258-25.924s16.211,8,40.183,21.777c7.1,4.08,89.818,51.758,89.818,51.758V281.49"/>
							<path id="XMLID_22_" style="opacity:0.1;" d="M252.777,145.563c0,0,41.477,23.901,52.481,30.242
								c11.004,6.341,39.527,21.893,46.332,25.436c0,0-28.092-17.678-65.448-39.204l-33.369-19.229L252.777,145.563z"/>
							<path id="XMLID_19_" style="opacity:0.1;" d="M252.796,158.385c0,0,39.266,22.627,49.407,28.47
								c10.141,5.844,26.794,20.348,43.067,29.725c16.273,9.377,84.379,43.725,92.766,48.558v-3.037
								c-13.519-7.79-84.644-51.128-95.41-57.331c-10.765-6.203-35.297-18.001-45.812-24.06
								c-10.515-6.059-44.023-25.368-44.023-25.368L252.796,158.385z M345.366,209.034c8.796,5.068,25.12,15.154,25.121,16.559
								c0.002,1.405-16.706-6.639-25.114-11.484c-9.539-5.497-23.416-15.185-23.419-16.698
								C321.952,195.896,336.57,203.965,345.366,209.034z"/>
						</g>
						<path id="XMLID_17_" style="opacity:0.05;fill:#FFFFFF;" d="M252.823,166.959c6.574,3.796,25.88,15.182,31.574,17.38
							c5.694,2.198,11.601,1.976,22.606,8.33c0,0-11.356-8.373-17.884-9.72c-6.528-1.348-36.351-19.123-36.351-19.123
							L252.823,166.959z"/>
					</g>
					<polygon id="XMLID_14_" style="fill:#263238;" points="271.168,192.489 269.228,188.03 268.286,190.825 269.367,177.846 					
						"/>
					<polygon id="XMLID_13_" style="opacity:0.2;fill:#FFFFFF;" points="271.168,149.409 436.174,247.107 438.037,288.793 
						438.037,245.712 					"/>
					<polygon id="XMLID_11_" style="fill:#37474F;" points="438.037,275.189 427.92,266.51 438.037,269.933 					"/>
					<polygon id="XMLID_9_" style="fill:#37474F;" points="448.779,239.532 438.037,245.712 438.037,288.793 448.779,282.598 					
						"/>
					<polygon id="XMLID_7_" style="fill:#37474F;" points="438.037,275.189 445.912,267.37 438.037,269.933 					"/>
					<polygon id="XMLID_5_" style="fill:#263238;" points="445.912,267.37 438.037,272.515 427.92,266.51 438.037,269.933 					"/>
					<polygon id="XMLID_3_" style="fill:#37474F;" points="268.286,190.825 269.228,188.03 269.367,177.846 					"/>
				</g>
			</g>
		</g>
		<g>
			<g>
				<path style="fill:#263238;" d="M340,118.801c2.883,1.665,5.362,3.748,7.439,6.248c2.075,2.5,3.795,5.239,5.158,8.215
					c1.365,2.978,2.384,6.125,3.057,9.443c0.672,3.318,1.067,6.608,1.182,9.87c0.076,2.59,0.116,5.274,0.116,8.055
					c0,2.783-0.04,5.363-0.116,7.746c-0.116,3.129-0.51,5.964-1.182,8.504c-0.673,2.541-1.691,4.514-3.057,5.915
					c-1.364,1.403-3.083,2.156-5.158,2.258c-2.077,0.102-4.556-0.677-7.439-2.341c-2.882-1.664-5.362-3.748-7.437-6.247
					c-2.075-2.499-3.796-5.238-5.161-8.216c-1.364-2.977-2.383-6.125-3.056-9.443c-0.673-3.318-1.067-6.608-1.181-9.869
					c-0.078-2.472-0.116-5.096-0.116-7.878c0-2.781,0.037-5.422,0.116-7.923c0.114-3.13,0.508-5.965,1.181-8.505
					c0.673-2.541,1.691-4.512,3.056-5.915c1.365-1.401,3.085-2.154,5.161-2.257C334.638,116.357,337.118,117.137,340,118.801z
					 M346.17,161.776c0.153-4.941,0.153-9.913,0-14.913c-0.078-1.523-0.222-2.969-0.433-4.334c-0.212-1.364-0.548-2.636-1.008-3.821
					c-0.462-1.183-1.077-2.265-1.846-3.241c-0.769-0.976-1.73-1.797-2.883-2.463c-1.153-0.666-2.114-0.955-2.882-0.866
					c-0.769,0.088-1.389,0.273-1.85,0.924c-0.461,0.651-0.831,1.673-1.062,2.782c-0.231,1.11-0.337,2.438-0.374,3.895
					c-0.193,4.801-0.193,9.772,0,14.913c0.037,1.501,0.162,2.934,0.374,4.299c0.211,1.364,0.556,2.645,1.038,3.839
					c0.48,1.195,1.105,2.28,1.874,3.256c0.768,0.976,1.729,1.799,2.882,2.463c1.153,0.667,2.114,0.955,2.883,0.867
					c0.768-0.089,1.393-0.453,1.873-1.093c0.48-0.64,0.827-1.52,1.039-2.641C346.006,164.522,346.131,163.233,346.17,161.776z"/>
				<path style="fill:#37474F;" d="M352.6,182.792c-1.368,1.405-3.082,2.157-5.165,2.268c-2.071,0.099-4.549-0.678-7.433-2.342
					c-2.885-1.664-5.362-3.748-7.434-6.25c-0.986-1.183-1.874-2.416-2.7-3.698l3.526-2.034c0.715,1.06,1.479,2.083,2.293,3.07
					c2.071,2.502,4.549,4.586,7.433,6.25c2.885,1.664,5.363,2.441,7.446,2.342c0.986-0.049,2.054-0.262,2.88-0.608
					C353.201,182.131,352.916,182.465,352.6,182.792z"/>
				<path style="fill:#37474F;" d="M346.818,133.999l-3.525,2.071c-0.136-0.197-0.259-0.407-0.407-0.604
					c-0.777-0.974-1.738-1.8-2.885-2.466c-1.159-0.666-2.12-0.949-2.885-0.863c-0.765,0.086-1.381,0.271-1.849,0.925
					c-0.296,0.432-0.321,0.468,0,0c0.197-0.271,0.407-0.481,0.641-0.653c0.345-0.259,2.848-2.268,3.057-2.429
					c0.358-0.284,0.789-0.456,1.27-0.505c0.777-0.086,1.738,0.197,2.884,0.863c1.159,0.666,2.12,1.492,2.885,2.465
					C346.301,133.186,346.584,133.58,346.818,133.999z"/>
				<path style="fill:#27DEBF;" d="M355.654,142.52c-0.673-3.318-1.691-6.465-3.057-9.443c-1.364-2.976-3.083-5.715-5.158-8.215
					c-2.077-2.5-4.556-4.583-7.439-6.248c-2.882-1.664-5.362-2.444-7.437-2.34c-0.987,0.049-1.888,0.256-2.715,0.599
					c-1.023,1.32-1.825,3.004-2.379,5.097c-0.673,2.54-1.067,5.375-1.181,8.505c-0.078,2.501-0.116,5.142-0.116,7.923
					c0,2.782,0.037,5.406,0.116,7.878c0.114,3.261,0.508,6.551,1.181,9.869c0.673,3.318,1.691,6.466,3.056,9.443
					c1.365,2.978,3.085,5.717,5.161,8.216c2.075,2.499,4.555,4.583,7.437,6.247c2.883,1.665,5.362,2.444,7.439,2.341
					c0.986-0.049,2.059-0.259,2.884-0.602c0.98-1.246,1.718-3.064,2.273-5.157c0.672-2.54,1.002-5.313,1.117-8.442
					c0.076-2.382,0.116-4.962,0.116-7.746c0-2.781-0.04-5.466-0.116-8.055C356.72,149.128,356.325,145.838,355.654,142.52z
					 M349.292,159.113c-0.039,1.457-0.164,2.746-0.374,3.867c-0.212,1.121-0.559,2.001-1.039,2.641
					c-0.198,0.264-0.421,0.481-0.667,0.651c-0.052,0.036-2.882,2.313-3.134,2.484c-0.35,0.238-0.748,0.383-1.195,0.435
					c-0.769,0.088-1.73-0.2-2.883-0.867c-1.153-0.665-2.114-1.487-2.882-2.463c-0.769-0.976-1.394-2.061-1.874-3.256
					c-0.482-1.194-0.827-2.475-1.038-3.839c-0.212-1.365-0.337-2.798-0.374-4.299c-0.193-5.142-0.193-10.113,0-14.914
					c0.037-1.457,0.172-2.741,0.403-3.851c0.231-1.109,0.577-1.989,1.038-2.64c0.188-0.265,0.4-0.483,0.639-0.655
					c0.348-0.251,2.844-2.262,3.055-2.425c0.363-0.281,0.788-0.45,1.275-0.506c0.768-0.089,1.729,0.2,2.882,0.866
					c1.153,0.666,2.114,1.487,2.883,2.463c0.768,0.976,1.383,2.057,1.845,3.241c0.46,1.185,0.796,2.457,1.008,3.821
					c0.212,1.365,0.355,2.811,0.433,4.334C349.445,149.2,349.445,154.172,349.292,159.113z"/>
			</g>
			<g>
				<path style="fill:#263238;" d="M302.697,160.289c-0.424-0.244-0.788-0.691-1.096-1.342c-0.309-0.651-0.461-1.301-0.461-1.953
					v-9.055l-18.161-10.486c-0.425-0.244-0.79-0.691-1.096-1.342c-0.309-0.651-0.462-1.301-0.462-1.953v-9.411
					c0-1.537,0.25-2.665,0.75-3.383l17.239-23.513c0.346-0.452,0.662-0.697,0.951-0.738c0.289-0.041,0.681,0.083,1.182,0.372
					l8.705,5.026c0.424,0.244,0.787,0.691,1.097,1.342c0.307,0.651,0.46,1.303,0.46,1.953v34.087l4.959,2.863
					c0.424,0.244,0.789,0.692,1.096,1.342c0.308,0.652,0.462,1.303,0.462,1.954v9.41c0,0.651-0.154,1.124-0.462,1.419
					c-0.307,0.297-0.672,0.322-1.096,0.078l-4.959-2.863v9.053c0,0.652-0.153,1.126-0.46,1.421
					c-0.309,0.297-0.673,0.323-1.097,0.078L302.697,160.289z M301.428,133.903v-16.334l-8.417,11.474L301.428,133.903z
					 M301.14,147.939"/>
				<path style="fill:#37474F;" d="M317.859,156.882c0.308-0.295,0.462-0.768,0.462-1.419v-2.07l-3.394-1.959l-3.123,2.664
					l4.959,2.863C317.188,157.204,317.553,157.18,317.859,156.882z"/>
				<path style="fill:#37474F;" d="M311.808,161.083v2.071c0,0.653-0.16,1.122-0.468,1.418c-0.308,0.296-0.666,0.321-1.097,0.074
					l-7.544-4.352c-0.419-0.247-0.789-0.69-1.097-1.344c-0.025-0.062-0.037-0.111-0.062-0.16l3.119-2.663
					c0.012,0.049,0.037,0.111,0.062,0.16c0.308,0.641,0.678,1.097,1.097,1.344L311.808,161.083z"/>
				<path style="fill:#37474F;" d="M304.264,145.279l-3.119,2.663l-18.171-10.491c-0.419-0.247-0.789-0.69-1.085-1.344
					c-0.049-0.099-0.074-0.185-0.111-0.284l3.23-2.379c0.308,0.653,0.666,1.097,1.097,1.344L304.264,145.279z"/>
				<path style="fill:#27DEBF;" d="M316.764,142.57l-4.959-2.863V105.62c0-0.65-0.153-1.301-0.46-1.953
					c-0.309-0.651-0.673-1.098-1.097-1.342l-8.705-5.026c-0.156-0.09-0.282-0.134-0.417-0.192l-15.833,21.595
					c-0.5,0.718-0.75,1.846-0.75,3.383v9.411c0,0.651,0.153,1.301,0.462,1.953c0.306,0.651,0.671,1.098,1.096,1.342l18.161,10.486
					v9.055c0,0.651,0.152,1.301,0.461,1.953c0.307,0.651,0.672,1.098,1.096,1.342l5.986,3.456v-6.984l0,0l3.123-2.663l3.394,1.959
					v-7.527c0-0.651-0.154-1.301-0.462-1.954C317.553,143.263,317.188,142.815,316.764,142.57z M304.551,131.239l-3.123,2.476l0,0
					l-8.417-4.86l8.417-11.474l0,0l3.123-2.476V131.239z"/>
			</g>
			<g>
				<path style="fill:#263238;" d="M382.896,206.592c-0.424-0.244-0.789-0.691-1.096-1.342c-0.309-0.651-0.461-1.301-0.461-1.953
					v-9.055l-18.162-10.486c-0.425-0.244-0.79-0.691-1.095-1.342c-0.309-0.651-0.462-1.301-0.462-1.953v-9.411
					c0-1.537,0.25-2.665,0.75-3.383l17.239-23.513c0.346-0.451,0.662-0.697,0.951-0.738s0.681,0.083,1.182,0.372l8.705,5.026
					c0.424,0.244,0.787,0.691,1.097,1.342c0.307,0.651,0.46,1.303,0.46,1.953v34.087l4.959,2.863
					c0.424,0.244,0.788,0.692,1.096,1.342c0.308,0.652,0.462,1.303,0.462,1.954v9.409c0,0.651-0.154,1.124-0.462,1.419
					c-0.307,0.297-0.672,0.321-1.096,0.078l-4.959-2.863v9.053c0,0.652-0.153,1.126-0.46,1.421
					c-0.309,0.297-0.673,0.323-1.097,0.078L382.896,206.592z M381.627,180.206v-16.334l-8.418,11.474L381.627,180.206z
					 M381.339,194.242"/>
				<path style="fill:#37474F;" d="M398.059,203.185c0.308-0.295,0.462-0.768,0.462-1.419v-2.07l-3.394-1.959l-3.123,2.664
					l4.959,2.863C397.387,203.507,397.751,203.483,398.059,203.185z"/>
				<path style="fill:#37474F;" d="M392.007,207.386v2.071c0,0.653-0.16,1.122-0.468,1.418c-0.308,0.296-0.666,0.321-1.097,0.074
					l-7.544-4.352c-0.419-0.247-0.789-0.69-1.097-1.344c-0.025-0.062-0.037-0.111-0.062-0.16l3.119-2.663
					c0.012,0.049,0.037,0.111,0.062,0.16c0.308,0.641,0.678,1.097,1.097,1.344L392.007,207.386z"/>
				<path style="fill:#37474F;" d="M384.463,191.582l-3.119,2.663l-18.171-10.491c-0.419-0.247-0.789-0.69-1.085-1.344
					c-0.049-0.099-0.074-0.185-0.111-0.284l3.23-2.379c0.308,0.653,0.666,1.097,1.097,1.344L384.463,191.582z"/>
				<path style="fill:#27DEBF;" d="M396.963,188.873l-4.959-2.863v-34.087c0-0.65-0.153-1.301-0.46-1.953
					c-0.309-0.651-0.673-1.098-1.097-1.342l-8.705-5.026c-0.156-0.09-0.282-0.135-0.417-0.192l-15.833,21.595
					c-0.5,0.717-0.75,1.846-0.75,3.383v9.411c0,0.651,0.153,1.301,0.462,1.953c0.306,0.651,0.671,1.098,1.095,1.342l18.162,10.486
					v9.055c0,0.651,0.152,1.301,0.461,1.953c0.307,0.651,0.672,1.098,1.096,1.342l5.986,3.456v-6.984l0,0l3.123-2.664l3.394,1.959
					v-7.527c0-0.651-0.154-1.301-0.462-1.954C397.751,189.565,397.387,189.118,396.963,188.873z M384.75,177.543l-3.123,2.476l0,0
					l-8.418-4.86l8.418-11.474l0,0l3.123-2.476V177.543z"/>
			</g>
		</g>
		<g>
			<path style="fill:#FAFAFA;" d="M286.884,177.889c0.081,0.047,0.15,0.134,0.211,0.258c0.059,0.126,0.089,0.252,0.089,0.377v1.811
				c0,0.125-0.03,0.217-0.089,0.272c-0.06,0.058-0.13,0.063-0.211,0.016l-5.26-3.036c-0.081-0.047-0.151-0.132-0.21-0.259
				c-0.06-0.124-0.089-0.249-0.089-0.374v-11.035c0-0.125,0.029-0.217,0.089-0.274c0.059-0.055,0.129-0.061,0.21-0.014l5.172,2.985
				c0.081,0.047,0.15,0.133,0.209,0.258c0.059,0.125,0.089,0.25,0.089,0.376v1.811c0,0.125-0.03,0.217-0.089,0.273
				c-0.059,0.057-0.129,0.063-0.209,0.016l-3.419-1.973v1.844l3.173,1.831c0.082,0.048,0.152,0.134,0.212,0.26
				c0.059,0.125,0.088,0.249,0.088,0.374v1.812c0,0.125-0.029,0.215-0.088,0.273c-0.06,0.057-0.13,0.061-0.212,0.016l-3.173-1.832
				v1.913L286.884,177.889z"/>
			<path style="fill:#FAFAFA;" d="M292.353,174.897c0.082,0.047,0.152,0.134,0.212,0.259c0.058,0.125,0.088,0.25,0.088,0.376v1.725
				c0,0.125-0.03,0.217-0.088,0.273c-0.06,0.057-0.13,0.061-0.212,0.014l-1.009-0.583c-0.681-0.392-1.021-0.065-1.021,0.982v4.201
				c0,0.125-0.029,0.217-0.089,0.273c-0.059,0.057-0.129,0.063-0.211,0.016l-1.398-0.807c-0.082-0.048-0.152-0.134-0.211-0.26
				c-0.059-0.124-0.089-0.249-0.089-0.374v-7.96c0-0.125,0.03-0.217,0.089-0.273c0.059-0.057,0.129-0.063,0.211-0.014l1.287,0.743
				c0.081,0.047,0.152,0.134,0.211,0.258c0.059,0.125,0.089,0.252,0.089,0.377v0.392c0.17-0.153,0.376-0.238,0.615-0.26
				c0.241-0.02,0.527,0.065,0.86,0.258L292.353,174.897z"/>
			<path style="fill:#FAFAFA;" d="M297.446,177.839c0.082,0.046,0.152,0.132,0.212,0.258c0.059,0.125,0.088,0.25,0.088,0.376v1.725
				c0,0.125-0.029,0.217-0.088,0.275c-0.06,0.055-0.13,0.061-0.212,0.013l-1.009-0.583c-0.681-0.393-1.021-0.065-1.021,0.982v4.203
				c0,0.125-0.029,0.217-0.089,0.272c-0.059,0.058-0.129,0.063-0.211,0.016l-1.398-0.807c-0.082-0.047-0.152-0.134-0.211-0.259
				c-0.059-0.125-0.089-0.25-0.089-0.376v-7.96c0-0.125,0.03-0.217,0.089-0.273c0.059-0.057,0.129-0.061,0.211-0.014l1.287,0.743
				c0.081,0.047,0.152,0.134,0.211,0.258c0.059,0.126,0.089,0.252,0.089,0.377v0.393c0.17-0.153,0.376-0.238,0.615-0.26
				c0.241-0.02,0.527,0.066,0.861,0.258L297.446,177.839z"/>
			<path style="fill:#FAFAFA;" d="M304.247,185.556c0.007,0.176,0.012,0.397,0.012,0.665s-0.005,0.484-0.012,0.65
				c-0.014,0.538-0.096,1.004-0.244,1.396c-0.148,0.394-0.35,0.695-0.61,0.904c-0.258,0.209-0.571,0.311-0.937,0.303
				c-0.366-0.005-0.775-0.14-1.227-0.4c-0.451-0.26-0.86-0.598-1.226-1.016c-0.366-0.417-0.679-0.878-0.938-1.387
				c-0.259-0.508-0.462-1.043-0.61-1.607c-0.148-0.564-0.23-1.123-0.244-1.678c-0.007-0.176-0.011-0.396-0.011-0.663
				s0.004-0.485,0.011-0.651c0.007-0.543,0.086-1.01,0.234-1.403c0.148-0.395,0.354-0.693,0.616-0.9
				c0.262-0.207,0.577-0.311,0.943-0.311c0.366,0.001,0.774,0.132,1.226,0.393c0.451,0.26,0.861,0.602,1.227,1.023
				s0.68,0.888,0.943,1.399c0.262,0.51,0.466,1.046,0.61,1.608C304.154,184.443,304.233,185.001,304.247,185.556z M300.209,184.455
				c0.023,0.446,0.124,0.843,0.306,1.193c0.181,0.349,0.42,0.609,0.715,0.78c0.296,0.171,0.535,0.185,0.716,0.046
				c0.181-0.141,0.283-0.42,0.305-0.841c0.016-0.161,0.023-0.35,0.023-0.567c0-0.217-0.007-0.414-0.023-0.594
				c-0.022-0.445-0.124-0.843-0.305-1.193c-0.182-0.349-0.42-0.609-0.716-0.78c-0.295-0.171-0.535-0.185-0.715-0.046
				c-0.182,0.141-0.283,0.42-0.306,0.839c-0.015,0.164-0.022,0.353-0.022,0.569S300.194,184.274,300.209,184.455z"/>
			<path style="fill:#FAFAFA;" d="M309.318,184.692c0.082,0.047,0.152,0.134,0.211,0.258c0.059,0.126,0.089,0.252,0.089,0.377v1.725
				c0,0.125-0.03,0.215-0.089,0.273c-0.059,0.057-0.129,0.061-0.211,0.014l-1.009-0.583c-0.681-0.392-1.022-0.066-1.022,0.981v4.203
				c0,0.125-0.029,0.217-0.088,0.273c-0.06,0.057-0.13,0.063-0.211,0.016l-1.399-0.808c-0.081-0.047-0.152-0.134-0.211-0.259
				c-0.059-0.124-0.089-0.25-0.089-0.376v-7.96c0-0.125,0.03-0.215,0.089-0.273c0.059-0.057,0.13-0.061,0.211-0.014l1.287,0.743
				c0.082,0.048,0.152,0.134,0.212,0.258c0.059,0.126,0.089,0.252,0.089,0.377v0.393c0.169-0.152,0.374-0.238,0.615-0.259
				c0.24-0.02,0.526,0.065,0.86,0.258L309.318,184.692z"/>
			<path style="fill:#FAFAFA;" d="M309.761,191.336c0.014-0.151,0.061-0.275,0.14-0.373c0.077-0.096,0.19-0.103,0.337-0.017
				l1.365,0.787c0.067,0.039,0.124,0.108,0.172,0.21c0.048,0.103,0.072,0.205,0.072,0.307c0,0.046-0.004,0.083-0.011,0.114
				l-0.866,2.899c-0.03,0.096-0.079,0.188-0.149,0.272c-0.071,0.084-0.18,0.084-0.327-0.001l-0.833-0.48
				c-0.066-0.039-0.124-0.108-0.171-0.209c-0.049-0.104-0.073-0.205-0.073-0.307v-0.034L309.761,191.336z"/>
			<path style="fill:#FAFAFA;" d="M318.759,199.196c-0.214-0.124-0.402-0.266-0.566-0.43c-0.162-0.161-0.303-0.329-0.421-0.5
				c-0.118-0.17-0.218-0.338-0.299-0.506c-0.082-0.167-0.149-0.315-0.201-0.448v3.638c0,0.125-0.029,0.217-0.088,0.272
				c-0.06,0.058-0.13,0.063-0.211,0.016l-1.399-0.807c-0.081-0.047-0.152-0.134-0.211-0.259c-0.059-0.125-0.089-0.25-0.089-0.376
				v-11.206c0-0.125,0.03-0.217,0.089-0.273c0.059-0.057,0.13-0.061,0.211-0.014l1.342,0.775c0.082,0.046,0.152,0.132,0.212,0.258
				c0.059,0.125,0.088,0.25,0.088,0.376v0.392c0.067-0.075,0.138-0.153,0.217-0.233c0.078-0.081,0.173-0.136,0.288-0.166
				c0.116-0.031,0.256-0.029,0.423,0.005c0.166,0.033,0.372,0.12,0.615,0.261c0.333,0.191,0.648,0.45,0.944,0.774
				c0.296,0.325,0.555,0.714,0.777,1.165c0.222,0.454,0.401,0.964,0.538,1.534c0.137,0.568,0.212,1.192,0.228,1.873
				c0.007,0.175,0.011,0.408,0.011,0.698c0,0.29-0.004,0.519-0.011,0.685c-0.016,0.663-0.09,1.2-0.228,1.612
				c-0.137,0.411-0.317,0.714-0.538,0.91s-0.48,0.289-0.777,0.277C319.406,199.49,319.092,199.388,318.759,199.196z M319.258,195.35
				c0.023-0.306,0.023-0.624,0-0.956c-0.022-0.411-0.107-0.808-0.255-1.189c-0.148-0.382-0.396-0.673-0.743-0.874
				c-0.164-0.094-0.303-0.135-0.421-0.124c-0.119,0.013-0.217,0.061-0.295,0.147c-0.077,0.087-0.138,0.196-0.183,0.331
				c-0.044,0.132-0.073,0.281-0.089,0.443c-0.015,0.162-0.022,0.357-0.022,0.585c0,0.228,0.007,0.432,0.022,0.61
				c0.016,0.179,0.044,0.362,0.089,0.548c0.045,0.185,0.106,0.365,0.183,0.54c0.078,0.177,0.176,0.338,0.295,0.485
				c0.118,0.149,0.258,0.27,0.421,0.364c0.347,0.201,0.595,0.196,0.743-0.014C319.151,196.035,319.237,195.736,319.258,195.35z"/>
			<path style="fill:#FAFAFA;" d="M321.932,198.328c0-0.751,0.187-1.264,0.561-1.538c0.373-0.273,0.981-0.28,1.825-0.022
				l1.298,0.408c0-0.273-0.049-0.526-0.144-0.759c-0.096-0.231-0.262-0.416-0.5-0.554c-0.17-0.098-0.302-0.136-0.394-0.114
				c-0.093,0.019-0.161,0.046-0.206,0.077c-0.066,0.053-0.129,0.073-0.189,0.063c-0.058-0.012-0.129-0.041-0.209-0.089l-1.41-0.813
				c-0.073-0.043-0.135-0.112-0.183-0.208c-0.048-0.096-0.069-0.199-0.061-0.308c0.016-0.254,0.089-0.485,0.222-0.692
				c0.135-0.208,0.318-0.364,0.55-0.468c0.232-0.106,0.51-0.144,0.832-0.118c0.321,0.027,0.672,0.149,1.049,0.366
				c0.451,0.261,0.844,0.573,1.176,0.937c0.332,0.362,0.608,0.757,0.826,1.186c0.219,0.426,0.379,0.878,0.484,1.353
				c0.102,0.477,0.154,0.965,0.154,1.466v5.175c0,0.125-0.029,0.217-0.088,0.272c-0.059,0.058-0.13,0.063-0.211,0.016l-1.399-0.807
				c-0.082-0.047-0.152-0.134-0.211-0.259c-0.059-0.125-0.088-0.25-0.088-0.376v-0.478c-0.178,0.238-0.398,0.382-0.66,0.43
				c-0.264,0.048-0.609-0.053-1.038-0.3c-0.319-0.184-0.602-0.415-0.85-0.695c-0.247-0.281-0.454-0.588-0.621-0.923
				c-0.166-0.335-0.294-0.693-0.383-1.075C321.977,199.101,321.932,198.716,321.932,198.328z M324.462,200.182
				c0.162,0.094,0.314,0.138,0.455,0.135c0.141-0.005,0.262-0.051,0.366-0.14c0.104-0.088,0.185-0.214,0.244-0.38
				c0.059-0.164,0.089-0.36,0.089-0.589l-1.021-0.35c-0.2-0.058-0.361-0.053-0.483,0.012c-0.122,0.067-0.183,0.207-0.183,0.424
				c0,0.217,0.046,0.394,0.139,0.533C324.16,199.965,324.292,200.083,324.462,200.182z"/>
			<path style="fill:#FAFAFA;" d="M331.585,207.624c0.282,0.164,0.528,0.206,0.743,0.131c0.216-0.076,0.323-0.312,0.323-0.711
				v-1.194c-0.067,0.087-0.138,0.167-0.217,0.242c-0.078,0.073-0.175,0.126-0.289,0.157c-0.114,0.031-0.254,0.03-0.421-0.004
				c-0.166-0.034-0.372-0.12-0.615-0.261c-0.333-0.193-0.648-0.451-0.944-0.774c-0.296-0.325-0.554-0.71-0.777-1.158
				c-0.222-0.447-0.401-0.949-0.538-1.507c-0.137-0.557-0.213-1.164-0.228-1.822c-0.007-0.176-0.011-0.379-0.011-0.613
				c0-0.234,0.004-0.435,0.011-0.601c0.014-0.641,0.09-1.163,0.228-1.567c0.137-0.406,0.317-0.699,0.538-0.886
				c0.223-0.184,0.48-0.271,0.777-0.261c0.296,0.012,0.61,0.114,0.944,0.307c0.243,0.141,0.455,0.296,0.632,0.467
				c0.177,0.171,0.329,0.344,0.455,0.519c0.125,0.176,0.229,0.346,0.311,0.513c0.081,0.166,0.148,0.315,0.199,0.448v-0.392
				c0-0.125,0.03-0.217,0.089-0.275c0.06-0.055,0.13-0.06,0.212-0.013l1.287,0.743c0.081,0.047,0.151,0.132,0.211,0.258
				c0.058,0.125,0.088,0.25,0.088,0.376v8.319c0,0.638-0.076,1.155-0.228,1.551c-0.152,0.397-0.36,0.681-0.626,0.852
				c-0.266,0.17-0.585,0.229-0.955,0.175c-0.37-0.054-0.777-0.208-1.22-0.465c-0.578-0.333-1.049-0.717-1.416-1.15
				c-0.366-0.435-0.652-0.867-0.86-1.3c-0.207-0.432-0.351-0.843-0.432-1.232c-0.082-0.389-0.126-0.712-0.134-0.965
				c-0.007-0.13,0.02-0.223,0.083-0.276c0.063-0.055,0.136-0.06,0.217-0.012l1.442,0.832c0.155,0.09,0.271,0.271,0.344,0.54
				c0.052,0.178,0.131,0.355,0.238,0.53C331.154,207.32,331.333,207.48,331.585,207.624z M330.608,200.827
				c-0.016,0.161-0.023,0.297-0.023,0.406c0,0.108,0.007,0.252,0.023,0.432c0.022,0.411,0.112,0.792,0.272,1.146
				c0.159,0.354,0.401,0.625,0.726,0.813c0.303,0.176,0.535,0.179,0.693,0.017c0.159-0.165,0.258-0.402,0.294-0.71
				c0.037-0.331,0.037-0.69,0-1.076c-0.029-0.348-0.125-0.695-0.288-1.039c-0.163-0.344-0.396-0.603-0.699-0.779
				c-0.318-0.183-0.559-0.194-0.72-0.033C330.723,200.167,330.63,200.441,330.608,200.827z"/>
			<path style="fill:#FAFAFA;" d="M337.609,206.441c0,0.261,0.031,0.496,0.094,0.703c0.063,0.207,0.142,0.389,0.238,0.547
				c0.096,0.158,0.203,0.293,0.323,0.401c0.118,0.107,0.232,0.193,0.343,0.258c0.223,0.128,0.398,0.195,0.527,0.201
				c0.129,0.006,0.238-0.026,0.328-0.101c0.081-0.055,0.141-0.085,0.177-0.093c0.037-0.008,0.1,0.013,0.189,0.065l1.442,0.833
				c0.162,0.094,0.244,0.267,0.244,0.518c0,0.135-0.055,0.312-0.166,0.526c-0.112,0.215-0.284,0.401-0.516,0.556
				c-0.232,0.156-0.535,0.236-0.904,0.238c-0.371,0.002-0.81-0.143-1.321-0.437c-0.48-0.278-0.908-0.631-1.281-1.057
				c-0.374-0.426-0.689-0.911-0.943-1.458c-0.256-0.547-0.448-1.141-0.578-1.785c-0.129-0.644-0.194-1.324-0.194-2.042
				c0-0.661,0.065-1.235,0.194-1.724c0.13-0.49,0.322-0.866,0.578-1.128c0.254-0.262,0.568-0.402,0.943-0.42
				c0.373-0.018,0.801,0.112,1.281,0.39c0.541,0.311,1,0.716,1.382,1.215c0.38,0.5,0.691,1.041,0.932,1.623
				c0.24,0.583,0.414,1.181,0.521,1.796c0.107,0.615,0.161,1.194,0.161,1.741v0.479c0,0.125-0.03,0.217-0.089,0.273
				c-0.059,0.057-0.13,0.063-0.211,0.014L337.609,206.441z M338.607,203.736c-0.311-0.178-0.548-0.172-0.709,0.018
				c-0.164,0.191-0.26,0.455-0.289,0.791l1.997,1.153c-0.03-0.371-0.126-0.745-0.289-1.124
				C339.155,204.196,338.918,203.916,338.607,203.736z"/>
			<path style="fill:#FAFAFA;" d="M350.878,217.108c0,0.125-0.029,0.215-0.089,0.272c-0.058,0.058-0.129,0.063-0.209,0.016
				l-1.399-0.808c-0.082-0.047-0.152-0.132-0.211-0.259c-0.059-0.124-0.089-0.249-0.089-0.374v-4.322
				c0-0.491-0.077-0.927-0.232-1.313c-0.155-0.386-0.4-0.675-0.732-0.867c-0.334-0.193-0.575-0.184-0.727,0.024
				c-0.152,0.208-0.228,0.557-0.228,1.047v4.322c0,0.125-0.03,0.217-0.089,0.273c-0.059,0.057-0.129,0.063-0.211,0.015l-1.398-0.807
				c-0.082-0.047-0.152-0.134-0.211-0.259c-0.06-0.124-0.089-0.25-0.089-0.376v-7.96c0-0.125,0.029-0.215,0.089-0.273
				c0.059-0.057,0.129-0.061,0.211-0.014l1.342,0.775c0.082,0.047,0.152,0.132,0.211,0.258c0.059,0.125,0.089,0.25,0.089,0.376
				v0.392c0.059-0.078,0.132-0.156,0.222-0.23c0.089-0.073,0.196-0.123,0.321-0.147c0.126-0.025,0.272-0.02,0.438,0.013
				c0.167,0.034,0.361,0.114,0.583,0.243c0.355,0.205,0.681,0.469,0.976,0.793c0.296,0.325,0.549,0.708,0.761,1.147
				c0.211,0.441,0.374,0.941,0.493,1.499c0.118,0.557,0.177,1.174,0.177,1.846V217.108z"/>
			<path style="fill:#FAFAFA;" d="M357.901,216.533c0.007,0.176,0.011,0.397,0.011,0.665c0,0.267-0.004,0.484-0.011,0.65
				c-0.015,0.538-0.096,1.004-0.244,1.396c-0.148,0.394-0.351,0.695-0.61,0.904c-0.259,0.208-0.572,0.309-0.938,0.303
				c-0.366-0.006-0.774-0.138-1.226-0.4c-0.451-0.26-0.859-0.598-1.227-1.016c-0.366-0.415-0.678-0.878-0.937-1.386
				c-0.26-0.509-0.462-1.044-0.61-1.608c-0.148-0.563-0.23-1.123-0.244-1.678c-0.007-0.176-0.011-0.397-0.011-0.665
				s0.004-0.484,0.011-0.65c0.007-0.543,0.085-1.011,0.233-1.404c0.147-0.393,0.353-0.692,0.615-0.899
				c0.262-0.207,0.577-0.312,0.943-0.311c0.367,0.001,0.775,0.133,1.227,0.393c0.451,0.261,0.86,0.601,1.226,1.023
				c0.366,0.422,0.68,0.888,0.943,1.399c0.264,0.51,0.467,1.046,0.612,1.608C357.806,215.419,357.887,215.978,357.901,216.533z
				 M353.862,215.43c0.023,0.447,0.124,0.844,0.306,1.194c0.181,0.349,0.419,0.609,0.715,0.78c0.296,0.171,0.535,0.185,0.715,0.046
				c0.182-0.141,0.283-0.42,0.306-0.84c0.015-0.162,0.022-0.351,0.022-0.568s-0.007-0.414-0.022-0.595
				c-0.023-0.444-0.124-0.842-0.306-1.192c-0.181-0.349-0.419-0.609-0.715-0.78c-0.296-0.171-0.535-0.185-0.715-0.046
				c-0.182,0.141-0.283,0.42-0.306,0.84c-0.014,0.161-0.022,0.351-0.022,0.568S353.848,215.252,353.862,215.43z"/>
			<path style="fill:#FAFAFA;" d="M361.551,220.264c0,0.261,0.037,0.485,0.111,0.669c0.075,0.187,0.196,0.327,0.366,0.426
				l0.888,0.512c0.081,0.048,0.152,0.134,0.209,0.258c0.06,0.126,0.089,0.252,0.089,0.377v1.725c0,0.125-0.029,0.217-0.089,0.272
				c-0.058,0.058-0.129,0.063-0.209,0.017l-1.055-0.609c-0.348-0.201-0.665-0.46-0.949-0.779c-0.284-0.317-0.527-0.68-0.727-1.085
				c-0.2-0.406-0.354-0.849-0.466-1.329c-0.11-0.479-0.166-0.981-0.166-1.505v-2.87l-0.821-0.474
				c-0.081-0.046-0.152-0.133-0.211-0.258c-0.059-0.125-0.089-0.25-0.089-0.376v-1.725c0-0.125,0.03-0.217,0.089-0.273
				c0.059-0.057,0.13-0.063,0.211-0.014l0.821,0.473v-2.785c0-0.125,0.03-0.217,0.089-0.273c0.059-0.057,0.129-0.061,0.211-0.014
				l1.399,0.808c0.08,0.046,0.151,0.132,0.209,0.258c0.059,0.125,0.089,0.25,0.089,0.376v2.785l1.253,0.723
				c0.082,0.047,0.152,0.134,0.212,0.258c0.059,0.126,0.088,0.252,0.088,0.377v1.725c0,0.125-0.029,0.217-0.088,0.274
				c-0.06,0.055-0.13,0.06-0.212,0.013l-1.253-0.724V220.264z"/>
			<path style="fill:#FAFAFA;" d="M369.018,219.16l1.365,0.787c0.082,0.048,0.152,0.134,0.211,0.258
				c0.059,0.126,0.089,0.252,0.089,0.377v1.725c0,0.125-0.03,0.217-0.089,0.275c-0.059,0.055-0.129,0.06-0.211,0.014l-1.365-0.789
				v5.774c0,0.125-0.029,0.217-0.088,0.273c-0.059,0.057-0.13,0.061-0.211,0.014l-1.399-0.807c-0.081-0.047-0.152-0.134-0.211-0.259
				c-0.059-0.124-0.088-0.25-0.088-0.376v-5.774l-0.766-0.442c-0.082-0.047-0.152-0.132-0.212-0.258
				c-0.059-0.125-0.088-0.25-0.088-0.376v-1.726c0-0.125,0.029-0.217,0.088-0.273c0.06-0.057,0.13-0.061,0.212-0.015l0.766,0.442
				v-0.461c0-0.524,0.06-0.955,0.183-1.295c0.122-0.338,0.29-0.586,0.504-0.742c0.214-0.155,0.47-0.22,0.766-0.199
				c0.296,0.023,0.618,0.135,0.965,0.335l1.053,0.609c0.082,0.047,0.152,0.132,0.211,0.259c0.059,0.125,0.089,0.249,0.089,0.374
				v1.726c0,0.125-0.03,0.215-0.089,0.273c-0.059,0.057-0.129,0.061-0.211,0.014l-0.998-0.577c-0.177-0.102-0.302-0.106-0.372-0.01
				c-0.07,0.096-0.106,0.253-0.106,0.47V219.16z"/>
			<path style="fill:#FAFAFA;" d="M377.217,227.686c0.007,0.176,0.011,0.397,0.011,0.665s-0.004,0.484-0.011,0.65
				c-0.014,0.538-0.096,1.004-0.244,1.396c-0.148,0.394-0.352,0.693-0.609,0.903c-0.26,0.21-0.573,0.311-0.938,0.305
				c-0.366-0.006-0.775-0.14-1.227-0.4c-0.45-0.261-0.86-0.598-1.226-1.016c-0.366-0.417-0.679-0.878-0.938-1.387
				c-0.259-0.508-0.462-1.044-0.61-1.607c-0.148-0.563-0.229-1.124-0.243-1.678c-0.007-0.176-0.012-0.397-0.012-0.664
				s0.005-0.484,0.012-0.65c0.007-0.543,0.084-1.011,0.232-1.404c0.148-0.394,0.353-0.692,0.615-0.901
				c0.264-0.207,0.578-0.311,0.944-0.309c0.366,0.001,0.775,0.131,1.226,0.393c0.451,0.26,0.861,0.601,1.227,1.023
				c0.365,0.421,0.68,0.889,0.943,1.399c0.262,0.51,0.466,1.046,0.61,1.608C377.122,226.572,377.203,227.131,377.217,227.686z
				 M373.178,226.583c0.023,0.447,0.125,0.844,0.306,1.194c0.181,0.349,0.42,0.609,0.715,0.78c0.296,0.171,0.535,0.185,0.716,0.046
				c0.182-0.141,0.283-0.42,0.305-0.841c0.014-0.162,0.023-0.35,0.023-0.567c0-0.217-0.008-0.414-0.023-0.595
				c-0.022-0.444-0.123-0.841-0.305-1.192c-0.182-0.349-0.42-0.609-0.716-0.78c-0.295-0.171-0.535-0.185-0.715-0.046
				c-0.181,0.141-0.283,0.42-0.306,0.839c-0.014,0.162-0.022,0.353-0.022,0.569S373.164,226.404,373.178,226.583z"/>
			<path style="fill:#FAFAFA;" d="M378.206,224.925c0-0.125,0.029-0.217,0.088-0.274c0.059-0.055,0.129-0.061,0.211-0.013
				l1.398,0.807c0.082,0.047,0.153,0.133,0.212,0.258c0.059,0.125,0.088,0.25,0.088,0.376v4.322c0,0.489,0.071,0.923,0.211,1.3
				c0.141,0.378,0.374,0.661,0.699,0.849c0.325,0.188,0.556,0.173,0.693-0.045c0.137-0.217,0.205-0.571,0.205-1.059v-4.322
				c0-0.125,0.03-0.217,0.089-0.275c0.06-0.055,0.13-0.06,0.212-0.014l1.398,0.808c0.081,0.047,0.151,0.134,0.211,0.258
				c0.059,0.125,0.088,0.252,0.088,0.377v7.96c0,0.125-0.029,0.216-0.088,0.272c-0.06,0.058-0.13,0.063-0.211,0.016l-1.287-0.743
				c-0.082-0.048-0.152-0.134-0.212-0.26c-0.058-0.124-0.088-0.249-0.088-0.374v-0.393c-0.06,0.09-0.131,0.171-0.217,0.242
				c-0.085,0.07-0.19,0.118-0.317,0.142c-0.125,0.024-0.272,0.019-0.438-0.014c-0.166-0.033-0.364-0.116-0.593-0.248
				c-0.716-0.414-1.288-1.057-1.713-1.93c-0.426-0.872-0.638-1.979-0.638-3.323V224.925z"/>
			<path style="fill:#FAFAFA;" d="M391.207,240.392c0,0.125-0.029,0.215-0.089,0.272c-0.058,0.058-0.129,0.063-0.209,0.016
				l-1.399-0.807c-0.081-0.048-0.152-0.134-0.211-0.26c-0.059-0.124-0.089-0.249-0.089-0.374v-4.322c0-0.49-0.077-0.927-0.232-1.313
				c-0.155-0.385-0.4-0.674-0.732-0.867c-0.333-0.193-0.575-0.184-0.727,0.024c-0.152,0.209-0.228,0.557-0.228,1.047v4.322
				c0,0.125-0.029,0.217-0.089,0.273c-0.059,0.057-0.129,0.063-0.211,0.016l-1.398-0.808c-0.081-0.047-0.152-0.134-0.211-0.259
				c-0.059-0.124-0.089-0.25-0.089-0.376v-7.96c0-0.125,0.03-0.215,0.089-0.273c0.059-0.057,0.13-0.061,0.211-0.014l1.342,0.775
				c0.082,0.047,0.152,0.134,0.212,0.258c0.058,0.126,0.088,0.252,0.088,0.377v0.393c0.059-0.08,0.134-0.157,0.223-0.231
				c0.088-0.073,0.195-0.123,0.322-0.147c0.125-0.024,0.271-0.019,0.438,0.014c0.166,0.034,0.36,0.113,0.582,0.242
				c0.356,0.205,0.681,0.469,0.978,0.793c0.295,0.325,0.549,0.708,0.76,1.149c0.211,0.441,0.376,0.94,0.494,1.498
				c0.118,0.557,0.177,1.174,0.177,1.846V240.392z"/>
			<path style="fill:#FAFAFA;" d="M394.702,233.818c0.215,0.123,0.403,0.266,0.566,0.429c0.162,0.162,0.303,0.329,0.421,0.5
				c0.119,0.171,0.219,0.34,0.3,0.507c0.082,0.166,0.148,0.315,0.2,0.448v-3.638c0-0.125,0.03-0.217,0.089-0.275
				c0.059-0.055,0.13-0.061,0.211-0.014l1.398,0.808c0.082,0.047,0.152,0.132,0.211,0.258c0.059,0.125,0.089,0.25,0.089,0.376
				v11.206c0,0.125-0.03,0.217-0.089,0.273c-0.059,0.057-0.129,0.063-0.211,0.016l-1.342-0.775
				c-0.081-0.047-0.152-0.134-0.211-0.259c-0.059-0.125-0.089-0.25-0.089-0.376v-0.392c-0.066,0.087-0.138,0.167-0.215,0.243
				c-0.078,0.073-0.175,0.126-0.289,0.157c-0.114,0.031-0.255,0.03-0.423-0.004c-0.166-0.034-0.371-0.122-0.615-0.261
				c-0.332-0.193-0.646-0.451-0.943-0.777c-0.296-0.324-0.555-0.713-0.778-1.165c-0.222-0.451-0.401-0.963-0.537-1.531
				c-0.137-0.569-0.213-1.193-0.227-1.873c-0.009-0.176-0.011-0.409-0.011-0.699c0-0.29,0.002-0.519,0.011-0.685
				c0.014-0.663,0.09-1.2,0.227-1.611c0.136-0.412,0.315-0.714,0.537-0.91c0.223-0.197,0.482-0.29,0.778-0.279
				C394.056,233.523,394.37,233.626,394.702,233.818z M394.204,237.663c-0.023,0.306-0.023,0.624,0,0.956
				c0.022,0.412,0.107,0.809,0.254,1.189c0.149,0.383,0.396,0.673,0.744,0.874c0.162,0.094,0.303,0.135,0.421,0.123
				c0.118-0.011,0.217-0.059,0.294-0.146c0.078-0.085,0.14-0.195,0.183-0.33c0.044-0.134,0.075-0.283,0.089-0.444
				c0.014-0.161,0.023-0.358,0.023-0.585c0-0.228-0.008-0.431-0.023-0.612c-0.015-0.178-0.045-0.361-0.089-0.545
				c-0.043-0.185-0.105-0.365-0.183-0.542c-0.077-0.176-0.176-0.337-0.294-0.486c-0.118-0.148-0.259-0.268-0.421-0.362
				c-0.348-0.201-0.595-0.195-0.744,0.014C394.311,236.979,394.225,237.278,394.204,237.663z"/>
		</g>
	</g>
</g>
</svg>
