<?xml version="1.0" encoding="utf-8"?>
<!-- Generator: Adobe Illustrator 27.5.0, SVG Export Plug-In . SVG Version: 6.00 Build 0)  -->
<svg version="1.1" xmlns="http://www.w3.org/2000/svg" xmlns:xlink="http://www.w3.org/1999/xlink" x="0px" y="0px"
	 viewBox="0 0 600 500" style="enable-background:new 0 0 600 500;" xml:space="preserve">
<g id="BACKGROUND">
	<rect style="fill:#FFFFFF;" width="600" height="500"/>
	<g>
		<path style="fill:#FAFAF9;" d="M575.294,284.68c-1.643-18.508-24.56-25.365-38.489-37.661
			c-31.835-28.102-17.152-88.669-51.765-113.268c-6.979-4.96-15.307-7.764-23.743-9.23c-16.32-2.837-33.459-0.789-48.651,5.816
			c-24.534,10.665-42.985,32.311-67.455,43.122c-23.957,10.583-51.581,9.744-77.126,3.968
			c-25.546-5.775-49.771-16.178-74.636-24.402c-16.632-5.501-33.845-10.071-51.363-9.922c-17.517,0.149-35.535,5.463-48.231,17.534
			c-10.295,9.788-16.388,23.239-20.287,36.899c-12.518,43.863-3.623,93.311,23.395,130.062
			c12.226,16.63,28.015,30.958,36.611,49.723c9.7,21.173,2.217,48.525-8.892,68.993l354.405-0.463
			c-2.864-22.335-3.75-44.471,1.256-66.425c5.006-21.954,17.915-43.101,38.091-53.101c11.374-5.637,24.308-7.456,35.821-12.802
			C565.75,308.175,576.416,297.325,575.294,284.68z"/>
		<path style="fill:#FAFAF9;" d="M550.245,219.214c3.186,2.079,7.427,3.34,10.744,1.478c1.354-0.76,2.409-1.97,3.234-3.285
			c3.089-4.922,3.118-11.184,2.089-16.903c-1.781-9.895-14.276-28.535-25.412-16.698C531.525,193.771,540.569,212.9,550.245,219.214
			z"/>
		<path style="fill:#FAFAF9;" d="M506.748,351.721c-1.863,1.713-3.659,3.574-4.77,5.848c-1.111,2.274-1.456,5.04-0.381,7.332
			c1.933,4.123,7.34,5.102,11.89,4.896c13.753-0.622,27.696-8.035,33.483-20.53c5.113-11.044-8.441-12.24-16.315-11.222
			C521.898,339.177,513.019,345.953,506.748,351.721z"/>
		<path style="fill:#FAFAF9;" d="M44.363,252.879c2.228,1.977,5.661,2.774,8.277,1.35c2.14-1.164,3.348-3.499,4.224-5.772
			c2.316-6.016,6.388-31.17-7.201-25.806C39.618,226.615,36.556,245.949,44.363,252.879z"/>
		<path style="fill:#FAFAF9;" d="M330.852,80.18c5.459,2.568,10.523,7.613,10.236,13.639c-0.256,5.373-4.648,9.643-9.276,12.385
			c-8.265,4.896-18.041,6.758-27.646,6.882c-6.409,0.083-13.094-0.659-18.51-4.086c-5.415-3.426-9.165-10.132-7.48-16.315
			C283.412,73.468,317.243,73.777,330.852,80.18z"/>
	</g>
</g>
<g id="OBJECTS">
	<g>
		<g>
			
				<ellipse transform="matrix(0.7071 -0.7071 0.7071 0.7071 -74.9201 277.1924)" style="fill:#9E6E55;" cx="297.141" cy="229.033" rx="120.967" ry="120.967"/>
			
				<ellipse transform="matrix(0.7071 -0.7071 0.7071 0.7071 -76.6424 273.0342)" style="fill:#CC8155;" cx="291.26" cy="229.033" rx="120.967" ry="120.967"/>
			<path style="fill:#4F4655;" d="M253.222,107.84l-0.173-0.553c6.942-2.177,14.131-3.764,21.366-4.719l0.076,0.574
				C267.289,104.092,260.133,105.673,253.222,107.84z"/>
			<path style="fill:#4F4655;" d="M173.165,182.255l-0.538-0.214c11.966-30.185,34.74-54.468,64.124-68.376l0.247,0.523
				C207.747,128.033,185.077,152.206,173.165,182.255z"/>
			<circle style="fill:#E3D8DD;" cx="291.308" cy="229.046" r="111.966"/>
			<circle style="fill:#F8EFF3;" cx="291.308" cy="229.046" r="105.535"/>
			<path style="fill:#4F4655;" d="M333.607,136.8c-11.523-5.292-23.813-8.337-36.531-9.05l0.033-0.577
				c12.79,0.716,25.151,3.779,36.74,9.102L333.607,136.8z"/>
			<path style="fill:#4F4655;" d="M368.466,163.164c-3.207-3.754-6.72-7.305-10.442-10.557l0.38-0.436
				c3.743,3.27,7.278,6.842,10.503,10.616L368.466,163.164z"/>
			<path style="fill:#4F4655;" d="M352.257,147.929c-1.378-1.037-2.8-2.051-4.223-3.013l0.323-0.479
				c1.433,0.967,2.862,1.987,4.248,3.03L352.257,147.929z"/>
			<circle style="fill:#E3D8DD;" cx="291.308" cy="229.046" r="26.84"/>
			<circle style="fill:#CE913D;" cx="291.308" cy="229.046" r="21.801"/>
			<path style="fill:#4F4655;" d="M276.143,241.294c-2.791-3.451-4.328-7.801-4.328-12.248c0-10.749,8.744-19.493,19.493-19.493
				v0.579c-10.429,0-18.914,8.485-18.914,18.914c0,4.316,1.491,8.536,4.199,11.884L276.143,241.294z"/>
			<path style="fill:#4F4655;" d="M291.308,253.192v-0.578c2.842,0,5.619-0.499,8.254-1.486l0.202,0.542
				C297.064,252.681,294.219,253.192,291.308,253.192z"/>
			<path style="fill:#4F4655;" d="M304.706,249.138l-0.321-0.481c1.703-1.138,3.256-2.497,4.614-4.039l0.434,0.383
				C308.042,246.58,306.451,247.972,304.706,249.138z"/>
			<path style="fill:#4F4655;" d="M312.604,240.437l-0.51-0.273c1.82-3.395,2.782-7.24,2.782-11.117h0.578
				C315.455,233.019,314.469,236.958,312.604,240.437z"/>
			<circle style="fill:#B4753D;" cx="291.308" cy="229.046" r="10.109"/>
			<g>
				<path style="fill:#D69874;" d="M246.446,142.087c1.278,2.214,0.52,5.044-1.694,6.323c-2.214,1.278-5.045,0.52-6.323-1.694
					c-1.278-2.214-0.52-5.044,1.694-6.323C242.337,139.114,245.168,139.873,246.446,142.087z"/>
				<path style="fill:#D69874;" d="M208.977,176.168c2.214,1.278,2.972,4.109,1.694,6.323c-1.278,2.214-4.109,2.972-6.323,1.694
					c-2.214-1.278-2.972-4.109-1.694-6.323C203.932,175.648,206.763,174.89,208.977,176.168z"/>
				<path style="fill:#D69874;" d="M204.348,273.908c2.214-1.278,5.044-0.52,6.323,1.694c1.278,2.214,0.52,5.044-1.694,6.323
					c-2.214,1.278-5.045,0.52-6.323-1.694C201.376,278.017,202.134,275.186,204.348,273.908z"/>
				<path style="fill:#D69874;" d="M238.429,311.378c1.278-2.214,4.109-2.972,6.323-1.694c2.214,1.278,2.972,4.109,1.694,6.323
					c-1.278,2.214-4.109,2.972-6.323,1.694C237.91,316.422,237.151,313.591,238.429,311.378z"/>
				<path style="fill:#D69874;" d="M336.17,316.006c-1.278-2.214-0.52-5.045,1.694-6.323c2.214-1.278,5.044-0.52,6.323,1.694
					c1.278,2.214,0.52,5.044-1.694,6.323C340.278,318.978,337.448,318.22,336.17,316.006z"/>
				<path style="fill:#D69874;" d="M373.639,281.925c-2.214-1.278-2.972-4.109-1.694-6.323c1.278-2.214,4.109-2.972,6.323-1.694
					c2.214,1.278,2.972,4.109,1.694,6.323C378.684,282.444,375.853,283.203,373.639,281.925z"/>
				<path style="fill:#D69874;" d="M378.268,184.185c-2.214,1.278-5.045,0.52-6.323-1.694c-1.278-2.214-0.52-5.044,1.694-6.323
					c2.214-1.278,5.044-0.52,6.323,1.694C381.24,180.076,380.481,182.907,378.268,184.185z"/>
				<path style="fill:#D69874;" d="M344.186,146.715c-1.278,2.214-4.109,2.972-6.323,1.694c-2.214-1.278-2.972-4.109-1.694-6.323
					c1.278-2.214,4.109-2.972,6.323-1.694C344.706,141.671,345.465,144.501,344.186,146.715z"/>
			</g>
			<g>
				
					<rect x="283.074" y="197.255" transform="matrix(0.8099 -0.5866 0.5866 0.8099 -54.0392 232.6417)" style="fill:#707585;" width="97.547" height="4.85"/>
				
					<rect x="364.948" y="170.717" transform="matrix(0.8099 -0.5866 0.5866 0.8099 -31.5059 249.0825)" style="fill:#5E6370;" width="7.072" height="4.85"/>
				<polygon style="fill:#555864;" points="372.202,179.697 363.414,167.566 379.416,165.223 				"/>
			</g>
			<g>
				
					<rect x="259.308" y="157.778" transform="matrix(0.7252 -0.6885 0.6885 0.7252 -64.7452 235.4254)" style="fill:#707585;" width="6.57" height="82.108"/>
				
					<rect x="234.042" y="167.861" transform="matrix(0.7253 -0.6885 0.6885 0.7253 -53.3638 210.7105)" style="fill:#5E6370;" width="6.57" height="8.712"/>
				<polygon style="fill:#555864;" points="244.218,164.74 229.502,178.71 228.554,162.976 				"/>
			</g>
			
				<rect x="223.37" y="278.987" transform="matrix(0.2967 -0.955 0.955 0.2967 -74.4583 459.5521)" style="fill:#707585;" width="102.809" height="2.682"/>
			<circle style="fill:#FFB03D;" cx="291.308" cy="229.046" r="5.982"/>
			<g>
				<g>
					<rect x="288.317" y="123.512" style="fill:#9E6E55;" width="5.982" height="15.589"/>
					<rect x="288.317" y="318.992" style="fill:#9E6E55;" width="5.982" height="15.589"/>
				</g>
				<g>
					<rect x="381.254" y="226.055" style="fill:#9E6E55;" width="15.589" height="5.982"/>
					<rect x="185.773" y="226.055" style="fill:#9E6E55;" width="15.589" height="5.982"/>
				</g>
			</g>
			
				<rect x="264.421" y="205.419" transform="matrix(0.7251 -0.6887 0.6887 0.7251 -70.8075 239.627)" style="fill:#4F4655;" width="0.579" height="6.151"/>
			
				<rect x="257.645" y="199.043" transform="matrix(0.725 -0.6888 0.6888 0.725 -67.7539 233.0418)" style="fill:#4F4655;" width="0.579" height="4.637"/>
			
				<rect x="245.594" y="176.952" transform="matrix(0.725 -0.6887 0.6887 0.725 -62.3326 221.2356)" style="fill:#4F4655;" width="0.579" height="23.447"/>
			
				<rect x="319.455" y="189.228" transform="matrix(0.8046 -0.5938 0.5938 0.8046 -46.8906 236.517)" style="fill:#4F4655;" width="33.058" height="0.579"/>
			<path style="fill:#4F4655;" d="M367.271,334.858l-0.332-0.475c4.477-3.134,8.797-6.631,12.845-10.395l0.393,0.423
				C376.111,328.194,371.769,331.708,367.271,334.858z"/>
			<path style="fill:#4F4655;" d="M351.514,344.166l-0.255-0.52c3.848-1.89,7.623-4.007,11.221-6.288l0.31,0.488
				C359.174,340.14,355.381,342.265,351.514,344.166z"/>
			<path style="fill:#4F4655;" d="M293.656,357.145c-11.618,0-19.103-1.452-19.26-1.483l0.114-0.567
				c0.332,0.068,33.635,6.521,69.335-8.114l0.219,0.536C325.067,355.303,306.74,357.145,293.656,357.145z"/>
		</g>
		<g>
			<path style="fill:#8F91A4;" d="M448.183,296.829c0,0-0.244,5.602-2.314,9.865c-2.07,4.263-4.263,7.794-5.602,11.448
				c-1.34,3.654-2.801,8.16-2.801,8.16s4.506,4.628,6.942,6.82c2.436,2.192,4.871,4.993,6.089,7.186
				c1.218,2.192,5.968,6.942,9.012,12.422c3.045,5.48,12.666,15.954,15.832,18.512s5.602,6.577,7.307,8.769
				c1.705,2.192,7.916,8.282,7.916,8.282s-1.096,4.993-5.115,5.846c0,0-6.455-3.776-10.108-6.577
				c-3.654-2.801-8.891-6.455-12.057-8.769c-3.166-2.314-5.968-5.846-8.038-7.794c-2.07-1.949-7.916-6.698-10.108-8.891
				c-2.192-2.192-7.916-8.891-8.891-10.108c-0.974-1.218-4.506-4.263-4.506-4.263s-0.852,2.314-0.487,4.263
				c0.365,1.949,1.949,9.743,2.558,15.467c0.609,5.724,2.192,12.179,1.827,18.512c-0.365,6.333,1.218,16.198,1.583,18.755
				c0.365,2.557,3.288,18.512,3.288,18.512s0.243,0.487-2.923,0.974c-3.167,0.487-5.602,1.705-6.942,1.827
				c-1.34,0.122-3.775,0-3.775,0s-2.07-4.993-3.41-14.98c-1.34-9.987-4.141-24.601-5.237-29.473
				c-1.096-4.872-3.532-17.781-5.115-22.896c-1.583-5.115-2.192-11.448-2.192-14.006c0-2.558-0.244-13.884-0.487-19.608
				c-0.243-5.724,0.487-7.429,0.853-9.987c0.365-2.557,1.705-17.05,0.609-18.268c-1.096-1.218,10.961,0,10.961,0H448.183z"/>
			<path style="fill:#7F8096;" d="M447.697,300.759c0.41-2.233,0.486-3.93,0.486-3.93h-25.332c0,0-12.057-1.218-10.961,0
				c0.459,0.51,0.49,3.347,0.346,6.66c2.692-1.201,5.335-2.105,8.434-2.217c1.765-0.064,3.536,0.092,5.295-0.062
				c4.204-0.367,8.168-2.483,12.388-2.423C441.539,298.831,444.581,300.116,447.697,300.759z"/>
			<path style="fill:#4B4145;" d="M421.796,206.66c-1.265-1.047-1.817-2.776-1.768-4.417c0.049-1.642,0.627-3.22,1.294-4.721
				c0.881-1.984,1.958-3.931,3.559-5.397c1.6-1.466,3.802-2.4,5.946-2.065c1.587,0.248,3.004,1.152,4.576,1.487
				c1.77,0.378,3.606,0.014,5.415,0.059c3.515,0.086,7.089,1.956,8.62,5.122c0.425,0.879,0.69,1.833,1.169,2.684
				c0.58,1.029,1.471,1.88,2.525,2.412c0.621,0.313,1.293,0.516,1.91,0.837c2.297,1.193,3.467,3.759,4.475,6.143
				c0.754,1.785,1.327,3.658,2.741,4.983c0.817,0.766,1.798,1.346,2.57,2.157c1.587,1.668,2.092,4.095,2.164,6.396
				c0.072,2.301-0.218,4.618,0.085,6.9c0.395,2.976,1.825,5.805,3.987,7.887c0.955,0.92,2.079,1.74,2.629,2.947
				c0.878,1.926-0.042,4.293-1.618,5.708c-0.495,0.445-1.061,0.836-1.407,1.405c-0.883,1.455-0.046,3.563-1.087,4.909
				c-0.713,0.922-2.093,1.095-3.195,0.716c-1.102-0.38-1.99-1.196-2.835-1.998c-3.819-3.624-7.481-7.41-11.112-11.223
				c-1.061-1.114-2.128-2.238-3.376-3.137c-1.307-0.941-2.784-1.613-4.205-2.371c-5.097-2.717-9.716-6.822-11.723-12.238
				c-0.743-2.005-1.11-4.131-1.826-6.145C429.771,211.374,426.38,206.874,421.796,206.66z"/>
			<g>
				<path style="fill:#FFB03D;" d="M440.019,224.441c0,0,2.378,0.107,3.901,0.472s3.288,1.218,3.532,1.4
					c0.244,0.183,3.958,2.618,3.958,2.618s-2.009,22.375-1.644,24.067c0.365,1.692,1.827,25.258,1.644,27.633
					c-0.183,2.375-1.096,16.624-1.096,16.624c-3.769-1.79-8.239,0.084-12.411,0.139c-1.38,0.018-2.755-0.17-4.134-0.178
					c-5.799-0.033-11.48,3.094-17.176,2.008c-2.643-0.504-5.17-1.906-7.85-1.669c-0.445-1.65,0.402-3.289,0.992-4.892
					c0.903-2.457,1.199-5.134,0.854-7.729c-0.372-2.796-0.332-6.076,0.379-8.805c0.711-2.73,1.806-5.369,2.203-8.162
					c0.425-2.997,0.031-6.077,0.599-9.05c0.401-2.101,1.27-4.078,1.95-6.106c2.732-8.139,2.404-16.944,2.047-25.522
					c0.853-0.466,1.632-0.911,2.581-1.124c0.845-0.19,1.712-0.275,2.545-0.513c0.934-0.266,1.804-0.718,2.725-1.027
					c1.15-0.387,2.362-0.548,3.565-0.707c1.24-0.164,2.48-0.327,3.72-0.491c0.564-0.075,1.149-0.147,1.69,0.027
					c0.685,0.221,1.287,0.828,2,0.723c0.23-0.034,0.458-0.143,0.684-0.09c0.161,0.038,0.29,0.152,0.426,0.246
					C438.227,224.698,439.422,224.67,440.019,224.441z"/>
				<g>
					<path style="fill:#4F4655;" d="M443.216,230.462c-0.622,0-1.243-0.031-1.859-0.117c-0.402-0.056-0.806-0.136-1.197-0.212
						c-0.385-0.076-0.783-0.155-1.176-0.21c-0.906-0.125-1.842-0.131-2.748-0.137l-17.718-0.106l0.002-0.347l17.718,0.106
						c0.916,0.006,1.864,0.011,2.793,0.14c0.402,0.056,0.806,0.136,1.197,0.212c0.385,0.076,0.783,0.155,1.176,0.21
						c1.438,0.199,2.923,0.095,4.359-0.006c1.165-0.082,2.367-0.166,3.553-0.092l-0.023,0.347c-1.164-0.074-2.355,0.01-3.507,0.091
						C444.942,230.401,444.079,230.462,443.216,230.462z"/>
					<g>
						<path style="fill:#4F4655;" d="M427.149,237.777c-0.667,0.063-1.335,0.155-1.985,0.255c-1.443,0.223-2.933,0.452-4.384,0.23
							l-0.052,0.343c1.499,0.229,3.019-0.004,4.489-0.231c0.655-0.101,1.328-0.194,1.997-0.256L427.149,237.777z"/>
						<path style="fill:#4F4655;" d="M441.713,238.766c-0.515,0.066-1.048,0.133-1.568,0.168c-2.085,0.142-4.201-0.234-6.247-0.598
							c-1.871-0.332-3.803-0.653-5.728-0.611l0.055,0.346c1.883-0.039,3.773,0.281,5.614,0.607c1.759,0.312,3.57,0.633,5.384,0.633
							c0.315,0,0.63-0.01,0.946-0.031c0.53-0.036,1.069-0.104,1.59-0.17c1.28-0.162,2.604-0.331,3.846-0.012l0.086-0.337
							C444.381,238.426,443.026,238.598,441.713,238.766z"/>
					</g>
					<path style="fill:#4F4655;" d="M442.004,254.13c-1.677-0.899-3.644-1.074-5.545-1.242c-0.819-0.072-1.664-0.147-2.482-0.278
						c-0.936-0.15-1.868-0.382-2.768-0.606c-0.828-0.205-1.685-0.417-2.537-0.565c-2.125-0.367-3.835-0.23-5.226,0.42l-0.147-0.314
						c1.456-0.681,3.234-0.828,5.431-0.448c0.864,0.149,1.727,0.363,2.561,0.57c0.894,0.223,1.818,0.451,2.739,0.599
						c0.807,0.13,1.646,0.204,2.459,0.276c1.937,0.172,3.94,0.349,5.68,1.282L442.004,254.13z"/>
					<path style="fill:#4F4655;" d="M439.335,265.829c-0.87,0-1.739-0.246-2.586-0.486c-0.504-0.142-1.025-0.29-1.533-0.382
						c-1.154-0.208-2.357-0.14-3.522-0.074c-0.998,0.054-2.032,0.114-3.047,0.002c-0.654-0.072-1.324-0.214-1.972-0.35
						c-1.61-0.342-3.133-0.664-4.53-0.035l-0.142-0.316c1.497-0.677,3.149-0.326,4.744,0.011c0.639,0.136,1.3,0.275,1.938,0.345
						c0.985,0.11,2.005,0.051,2.99-0.003c1.183-0.068,2.409-0.136,3.602,0.079c0.525,0.094,1.056,0.244,1.567,0.389
						c1.172,0.332,2.282,0.646,3.386,0.366l0.086,0.337C439.989,265.794,439.661,265.829,439.335,265.829z"/>
					<path style="fill:#4F4655;" d="M442.274,278.5c-4.884-0.527-9.933-1.07-14.937-1.07c-0.097,0-0.192,0-0.288,0.001l-0.392,0.002
						c-0.974,0.009-1.976,0.015-2.958-0.13c-0.69-0.102-1.385-0.28-2.057-0.453c-1.391-0.357-2.705-0.696-4.036-0.431l-0.068-0.341
						c1.408-0.279,2.822,0.084,4.191,0.436c0.663,0.169,1.348,0.346,2.021,0.445c0.956,0.141,1.95,0.132,2.904,0.127l0.393-0.003
						c5.099-0.022,10.275,0.534,15.264,1.071L442.274,278.5z"/>
					<g>
						<path style="fill:#4F4655;" d="M445.415,289.85c-1.327,0.424-2.704,0.251-4.159,0.069c-0.765-0.096-1.556-0.194-2.332-0.198
							c-1.302-0.001-2.632,0.271-3.898,0.538c-0.76,0.159-1.546,0.326-2.323,0.427c-0.188,0.025-0.378,0.031-0.567,0.049
							c0.008,0.115,0.017,0.232,0.026,0.349c0.195-0.019,0.391-0.029,0.586-0.054c0.79-0.103,1.583-0.27,2.349-0.432
							c1.237-0.26,2.517-0.529,3.791-0.529c0.011,0,0.023,0,0.034,0c0.757,0.002,1.537,0.099,2.291,0.194
							c1.428,0.178,2.907,0.366,4.308-0.083L445.415,289.85z"/>
						<g>
							<path style="fill:#4F4655;" d="M428.138,290.765c-0.442-0.023-0.887-0.044-1.324-0.072c-1.108-0.07-2.254-0.141-3.368-0.385
								c-0.508-0.112-1.019-0.263-1.513-0.409c-0.655-0.193-1.332-0.393-2.022-0.508c-2.079-0.352-4.262,0.08-6.185,0.458
								l0.068,0.341c1.985-0.391,4.041-0.79,6.06-0.458c0.669,0.113,1.336,0.31,1.981,0.5c0.499,0.148,1.017,0.301,1.537,0.415
								c1.14,0.25,2.299,0.322,3.42,0.392c0.445,0.028,0.896,0.054,1.346,0.078V290.765z"/>
							<path style="fill:#4F4655;" d="M429.051,290.811v0.342c0.379,0.013,0.757,0.03,1.137,0.03c0.323,0,0.647-0.013,0.971-0.026
								v-0.342C430.457,290.844,429.753,290.835,429.051,290.811z"/>
						</g>
					</g>
				</g>
			</g>
			<path style="fill:#FF4D4F;" d="M503.512,285.39c-0.845-0.485-1.69-0.971-2.535-1.456c-4.02-2.308-8.056-4.628-11.705-7.487
				c-7.417-5.814-12.189-14.155-17.893-21.656c-0.957-1.258-1.771-2.625-2.42-4.067c-0.271-0.602-0.514-1.216-0.814-1.804
				c-1.184-2.314-3.521-3.735-4.635-5.994c-1.411-2.86-3.189-5.594-4.77-8.365c-0.318-0.558-0.638-1.118-1.037-1.621
				c-0.315-0.398-0.677-0.757-1.056-1.094c-1.275-1.135-2.743-2.027-4.202-2.912c-1.448-0.879-2.911-1.765-4.521-2.29
				c0.139,11.726-9.483,21.469-9.483,21.469s1.218,5.846,0.853,8.525c-0.365,2.679-0.853,5.115-0.853,9.134
				c0,4.019,1.218,10.23,2.558,15.832s1.288,16.576,1.288,16.576c1.955,0.079,3.911,0.158,5.866,0.238
				c1.426,0.058,2.87,0.114,4.265-0.184c0.787-0.168,1.552-0.447,2.351-0.542c1.127-0.133,2.26,0.109,3.387,0.244
				c1.603,0.192,3.232,0.168,4.829-0.072c0.102-2.836-1.181-5.513-2.366-8.092c-1.61-3.503-3.09-7.065-4.569-10.626
				c-0.402-0.966-0.807-1.947-0.95-2.983c-0.14-1.016-0.022-2.046,0.026-3.07c0.099-2.077-0.088-4.168-0.553-6.194
				c-0.158-0.688-0.349-1.383-0.307-2.088c0.046-0.758,0.358-1.47,0.544-2.206c0.378-1.491,0.236-3.056,0.193-4.593
				c-0.046-1.684,0.366-3.179,0.564-4.852c0.919,1.427,1.837,2.854,2.756,4.281c0.318,0.495,0.639,0.992,1.039,1.423
				c0.414,0.446,0.905,0.812,1.377,1.197c1.275,1.04,2.45,2.222,3.373,3.579c0.886,1.303,2.254,2.419,3.318,3.608
				c3.75,4.192,7.574,8.316,11.399,12.441c1.604,1.73,3.221,3.472,5.129,4.858c1.546,1.124,3.258,1.995,4.961,2.862
				c4.691,2.387,9.382,4.773,14.073,7.16c1.875-2.049,3.282-4.524,4.082-7.183C505.873,286.745,504.693,286.068,503.512,285.39z"/>
			<path style="fill:#FF4D4F;" d="M419.723,226.289c0.151,6.54,2.953,12.689,5.703,18.624c1.984,4.282-2.284,9.224-2.646,13.93
				c-0.207,2.692,0.168,5.412-0.163,8.092c-0.81,6.558-5.7,12.018-6.775,18.537c-0.478,2.899-0.223,6.05-1.738,8.567
				c-1.691,0.018-3.474-1.036-5.088-1.543c-1.769-0.555-3.681-0.192-5.532-0.302c-2.568-0.153-5.067-1.266-6.898-3.073
				c0,0,2.516-2.4,3.247-6.297c0.731-3.897,3.288-7.916,3.776-10.474c0.487-2.558,1.705-9.27,3.288-12.186
				c1.583-2.916,3.871-6.661,4.371-9.584c0.5-2.923,1.505-5.846,1.87-6.759c0,0-2.923-1.279-7.125-1.553
				c-4.202-0.274-8.769-1.37-10.321-2.74s-8.769-6.485-10.596-9.043c-1.827-2.558-8.038-7.125-9.134-8.038
				c-1.096-0.913-8.221-9.956-10.413-15.528c-2.192-5.572-5.389-13.519-5.389-13.519s2.74-3.471,6.211-3.745
				c0,0,1.188,2.557,2.192,3.654c1.005,1.096,5.572,8.312,7.033,11.235c1.462,2.923,8.769,10.596,10.504,11.6
				c1.736,1.005,5.687,4.25,6.954,6.098c1.267,1.848,6.291,5.411,8.026,5.867c1.735,0.457,5.115,1.005,6.668,1.37
				c1.553,0.365,6.942-1.187,7.673-1.462C416.152,227.744,419.723,226.289,419.723,226.289z"/>
			<path style="fill:#FFD2C8;" d="M417.066,235.874c1.931,3.702,7.35,8.604,8.613,9.719c-0.071-0.228-0.149-0.455-0.253-0.68
				c-2.735-5.903-5.516-12.017-5.695-18.516l-4.309,1.621l3.288,5.981L417.066,235.874z"/>
			<path style="fill:#FFD2C8;" d="M450.131,237.609l-1.553-1.187l2.649-6.577l-3.305-3.201c0.139,11.726-9.483,21.469-9.483,21.469
				S446.734,245.62,450.131,237.609z"/>
			<path style="fill:#FF8774;" d="M438.622,217.484c0,0-0.548,5.663,0,6.394c0.548,0.731,1.522,0.487,1.705,0.609
				c0.183,0.122-0.67,4.872-2.558,6.394c-1.888,1.522-4.81,3.288-7.307,3.106c-2.497-0.183-4.08-2.801-4.019-5.541
				c0.061-2.74,0.487-3.532,0.731-4.019c0.244-0.487,1.522-0.183,1.705-0.974c0.183-0.792,0.183-4.932,0.183-4.932L438.622,217.484z
				"/>
			<path style="fill:#FF957B;" d="M421.907,203.813c0,0-0.639,13.336,5.937,17.172c6.577,3.836,11.418-2.101,12.97-4.567
				c1.553-2.466,2.192-5.572,2.192-5.572s0.365-4.11-0.639-5.754c-1.005-1.644-1.827-1.736-2.923-1.736
				c-1.096,0-3.562-2.192-4.476-2.375c-0.913-0.183-4.202,0.639-5.937-1.461c-1.735-2.101-1.461-1.553-1.918-1.279
				c-1.069,0.642-2.255,1.206-2.772,2.341c-0.176,0.385-0.295,0.794-0.465,1.182C423.478,202.676,422.754,203.29,421.907,203.813z"
				/>
			<g>
				<path style="fill:#4F4655;" d="M435.82,393.236l-0.131-0.158c-1.691,1.396-3.83,2.189-6.021,2.233l0.007,0.348
					c2.237-0.046,4.419-0.848,6.159-2.256C435.828,393.347,435.824,393.292,435.82,393.236z"/>
				<path style="fill:#4F4655;" d="M425.082,355.364l0.154,0.312c1.043-0.513,2.086-1.025,3.13-1.537l-0.154-0.312
					C427.168,354.339,426.125,354.851,425.082,355.364z"/>
				
					<rect x="425.863" y="395.673" transform="matrix(0.9719 -0.2354 0.2354 0.9719 -81.1775 111.5584)" style="fill:#4F4655;" width="1.772" height="0.346"/>
				<path style="fill:#4F4655;" d="M464.682,368.115l-0.097-0.334c-0.965,0.281-1.951,0.09-3-0.11
					c-0.67-0.129-1.361-0.262-2.052-0.262c-0.035,0-0.071,0.001-0.107,0.001c-1.14,0.024-2.254,0.436-3.237,0.8l0.12,0.325
					c1.004-0.372,2.043-0.756,3.124-0.777c0.696-0.024,1.4,0.121,2.088,0.253C462.561,368.212,463.638,368.414,464.682,368.115z"/>
				<path style="fill:#4F4655;" d="M466.273,368.275c0.508-0.167,1.072-0.173,1.584-0.018l0.102-0.332
					c-0.583-0.176-1.218-0.169-1.794,0.02L466.273,368.275z"/>
				<path style="fill:#4F4655;" d="M435.438,301.332c-0.014,0.071-1.341,7.084,2.891,10.58l0.221-0.267
					c-4.072-3.365-2.785-10.178-2.772-10.246L435.438,301.332z"/>
				<path style="fill:#4F4655;" d="M429.905,329.006l0.235,0.255c0.775-0.71,0.891-0.797,0.903-0.803l-0.093-0.147v-0.174
					C430.867,328.137,430.852,328.137,429.905,329.006z"/>
				<path style="fill:#4F4655;" d="M422.749,356.064l-0.142-0.316c-2.4,1.086-5.25,1.057-7.624-0.075l-0.149,0.314
					c1.262,0.602,2.653,0.903,4.044,0.903C420.205,356.89,421.533,356.616,422.749,356.064z"/>
				<path style="fill:#4F4655;" d="M431.642,348.039c0.056-0.182,0.099-0.303,0.099-0.303s0.091,0.078,0.234,0.203l-0.082-0.312
					l-0.055-0.036c-0.046-0.03-4.645-3.095-7.253-5.613c-2.809-2.712-4.331-4.586-4.331-6.725c0-0.581,0.035-1.525,0.079-2.722
					c0.131-3.504,0.329-8.798-0.08-12.278c-0.283-2.4,0.023-5.65,0.293-8.517c0.029-0.309,0.058-0.612,0.085-0.91
					c0.166-0.246,1.641-2.466,1.996-4.591l-0.343-0.056c-0.247,1.482-1.087,3.048-1.585,3.881c0.17-1.968,0.254-3.597,0.004-4.45
					l-0.332,0.097c0.297,1.023,0.08,3.327-0.171,5.996c-0.271,2.885-0.578,6.153-0.293,8.59c0.407,3.454,0.21,8.732,0.079,12.225
					c-0.044,1.2-0.08,2.147-0.08,2.734c0,2.263,1.56,4.198,4.437,6.976c2.476,2.389,6.715,5.257,7.247,5.614L431.642,348.039z"/>
				<path style="fill:#4F4655;" d="M437.466,326.301l-0.012-0.172c-0.026,0.001-2.645,0.197-4.93,1.201l0.14,0.319
					c2.228-0.981,4.788-1.172,4.814-1.174l-0.012-0.172l0,0L437.466,326.301z"/>
			</g>
			<path style="fill:#B87C48;" d="M409.941,445.123l32.967-0.02c0,0,0.819-1.74,0.297-2.742c-0.522-1.002-0.988-1.936-0.956-2.815
				c0.032-0.879,0.255-2.936-0.87-4.193c-1.125-1.257-0.786-1.472-1.976-0.971c-1.189,0.502-3.285,1.22-4.464,0.462
				c-1.179-0.758-2.211-1.123-3-0.83c-0.788,0.293-5.838,4.411-8.045,4.992c-2.207,0.581-5.652,1.531-9.078,1.727
				C411.392,440.929,410.106,442.555,409.941,445.123z"/>
			<path style="fill:#905D48;" d="M442.25,439.545c0.011-0.288,0.039-0.71,0.036-1.182c-1.77,0.599-7.015,2.638-10.792,6.746
				l11.415-0.007c0,0,0.819-1.74,0.297-2.742C442.684,441.358,442.218,440.424,442.25,439.545z"/>
			<path style="fill:#905D48;" d="M413.108,441.013c-2.143,0.585-3.034,2.031-3.167,4.109l8.935,0.94
				C416.981,443.43,414.344,441.432,413.108,441.013z"/>
			<rect x="409.941" y="445.123" style="fill:#E49F55;" width="32.992" height="0.94"/>
			<g>
				<path style="fill:#4F4655;" d="M434.405,438.238c-0.359,0-0.698-0.145-1.013-0.305c-0.355-0.181-0.699-0.364-1.041-0.546
					c-1.011-0.539-1.967-1.047-3.077-1.404l-0.166-0.053l0.054-0.166c0.322-0.975,2.152-0.952,2.827-0.861
					c1.401,0.184,2.602,0.892,3.216,1.891c0.095,0.157,0.203,0.366,0.201,0.599c-0.008,0.472-0.467,0.803-0.888,0.841
					C434.48,438.237,434.442,438.238,434.405,438.238z M429.573,435.716c1.056,0.362,1.973,0.85,2.94,1.365
					c0.339,0.181,0.682,0.363,1.035,0.542c0.303,0.154,0.609,0.287,0.94,0.264c0.271-0.024,0.566-0.23,0.57-0.499
					c0.002-0.144-0.075-0.29-0.149-0.414c-0.559-0.911-1.668-1.557-2.965-1.729l0,0
					C431.325,435.165,429.967,435.184,429.573,435.716z"/>
				<path style="fill:#4F4655;" d="M429.418,436.171l-0.218-0.235c-0.075-0.08-1.816-1.985-1.427-3.594
					c0.098-0.409,0.31-0.68,0.594-0.763c0.245-0.073,0.517,0.014,0.746,0.233c0.546,0.527,0.933,1.867,0.383,4.049L429.418,436.171z
					 M428.543,431.901c-0.027,0-0.054,0.003-0.08,0.011c-0.157,0.045-0.286,0.232-0.354,0.511c-0.267,1.109,0.682,2.462,1.128,3.019
					c0.398-1.842,0.063-2.966-0.365-3.379C428.762,431.956,428.647,431.901,428.543,431.901z"/>
				<path style="fill:#4F4655;" d="M420.731,442.305c-1.523-0.713-2.647-2.059-2.694-2.115l0.267-0.221
					c0.011,0.013,1.123,1.342,2.574,2.022L420.731,442.305z"/>
				<path style="fill:#4F4655;" d="M422.811,441.276c-1.007-0.384-2.305-1.581-2.359-1.631l0.235-0.255
					c0.014,0.012,1.304,1.202,2.248,1.562L422.811,441.276z"/>
				<path style="fill:#4F4655;" d="M425.316,440.483c-1.155-0.336-2.505-1.589-2.561-1.642l0.237-0.253
					c0.014,0.012,1.346,1.249,2.421,1.56L425.316,440.483z"/>
				<path style="fill:#4F4655;" d="M427.467,439.697c-1.054,0-2.694-1.609-2.884-1.799l0.246-0.246
					c0.505,0.506,1.986,1.808,2.721,1.693l0.05,0.344C427.557,439.694,427.513,439.697,427.467,439.697z"/>
				<path style="fill:#4F4655;" d="M429.273,438.529c-1.075-0.355-2.637-1.318-2.704-1.358l0.183-0.296
					c0.016,0.01,1.593,0.982,2.629,1.324L429.273,438.529z"/>
				<path style="fill:#4F4655;" d="M430.446,437.943c-0.913-0.241-2.584-1.387-2.654-1.436l0.197-0.285
					c0.017,0.011,1.691,1.16,2.546,1.384L430.446,437.943z"/>
			</g>
			<path style="fill:#B87C48;" d="M487.324,423.72l19.712-26.425c0,0-0.904-1.697-2.019-1.879c-1.115-0.182-2.142-0.367-2.827-0.919
				c-0.685-0.552-2.199-1.961-3.88-1.812c-1.68,0.149-1.65-0.251-1.96,1.002c-0.31,1.253-0.988,3.362-2.301,3.853
				c-1.313,0.491-2.223,1.1-2.46,1.907c-0.237,0.807,0.041,7.317-0.814,9.433c-0.856,2.116-2.155,5.445-4.049,8.307
				C484.832,420.048,485.366,422.051,487.324,423.72z"/>
			<path style="fill:#905D48;" d="M502.189,394.497c-0.225-0.181-0.546-0.456-0.925-0.736c-0.579,1.777-2.084,7.199-1.053,12.683
				l6.825-9.15c0,0-0.904-1.698-2.019-1.879C503.901,395.234,502.874,395.049,502.189,394.497z"/>
			<path style="fill:#905D48;" d="M485.927,418.723c-0.813,2.067-0.188,3.646,1.397,4.997l6.1-6.596
				C490.181,417.067,487.002,417.984,485.927,418.723z"/>
			
				<rect x="481.076" y="410.315" transform="matrix(0.5984 -0.8012 0.8012 0.5984 -129.2963 563.6183)" style="fill:#E49F55;" width="32.992" height="0.94"/>
			<g>
				<path style="fill:#4F4655;" d="M490.847,402.821c-0.858,0-2.35-0.14-3.092-1.036c-0.269-0.323-0.359-0.655-0.257-0.932
					c0.09-0.241,0.321-0.407,0.634-0.459c0.753-0.119,2.054,0.371,3.473,2.116l0.202,0.249l-0.319,0.034
					C491.457,402.796,491.207,402.821,490.847,402.821z M488.362,400.724c-0.062,0-0.12,0.004-0.174,0.013
					c-0.19,0.032-0.319,0.116-0.365,0.237c-0.058,0.155,0.015,0.37,0.198,0.59c0.729,0.878,2.379,0.924,3.095,0.904
					C489.99,401.176,488.979,400.724,488.362,400.724z"/>
				<path style="fill:#4F4655;" d="M488.218,414.28l-0.018-0.346c0.018-0.001,1.748-0.097,3.16-0.851l0.163,0.305
					C490.04,414.182,488.291,414.277,488.218,414.28z"/>
				<path style="fill:#4F4655;" d="M489.225,412.022l-0.063-0.341c0.017-0.003,1.742-0.326,2.595-0.868l0.185,0.294
					C491.033,411.684,489.299,412.008,489.225,412.022z"/>
				<path style="fill:#4F4655;" d="M489.96,409.695l-0.061-0.341c0.018-0.003,1.806-0.332,2.699-1.007l0.208,0.278
					C491.847,409.348,490.037,409.682,489.96,409.695z"/>
				<path style="fill:#4F4655;" d="M490.298,407.665l-0.05-0.343c0.708-0.103,2.626-0.513,2.983-1.167l0.305,0.165
					C493.032,407.245,490.576,407.624,490.298,407.665z"/>
				<path style="fill:#4F4655;" d="M490.903,405.639l-0.126-0.323c0.017-0.007,1.74-0.69,2.634-1.315l0.199,0.285
					C492.683,404.934,490.975,405.611,490.903,405.639z"/>
				<path style="fill:#4F4655;" d="M491.103,404.263l-0.111-0.328c0.019-0.007,1.942-0.662,2.633-1.211l0.217,0.271
					C493.103,403.583,491.185,404.236,491.103,404.263z"/>
				<path style="fill:#4F4655;" d="M494.52,407.288c-0.119,0-0.236-0.007-0.35-0.015c-0.112-0.007-0.252-0.016-0.384-0.077
					c-0.122-0.057-0.215-0.149-0.283-0.216c-0.876-0.884-1.495-1.988-1.791-3.198v-0.001c-0.012-0.05-0.051-0.154-0.095-0.276
					c-0.201-0.552-0.259-0.757-0.206-0.887c0.143-0.35,0.615-0.318,0.902-0.296l0.084,0.006c0.739,0.041,1.462,0.303,2.037,0.738
					c0.845,0.64,1.39,1.653,1.457,2.711c0.034,0.529-0.092,0.941-0.363,1.195C495.253,407.228,494.885,407.288,494.52,407.288z
					 M492.049,403.7c0.281,1.148,0.869,2.197,1.7,3.035c0.066,0.066,0.121,0.118,0.182,0.147c0.074,0.033,0.168,0.039,0.26,0.045
					c0.415,0.025,0.838,0.036,1.099-0.208c0.243-0.228,0.272-0.626,0.254-0.92c-0.061-0.958-0.554-1.877-1.321-2.458
					c-0.52-0.393-1.176-0.63-1.845-0.668l-0.09-0.006c-0.163-0.013-0.508-0.035-0.556,0.083c0.003,0.064,0.144,0.45,0.21,0.635
					C491.994,403.525,492.035,403.642,492.049,403.7L492.049,403.7z"/>
			</g>
			<path style="fill:#FF957B;" d="M437.587,424.22c-3.167,0.487-5.602,1.705-6.942,1.827c-0.19,0.017-0.405,0.029-0.629,0.037
				l2.268,7.876c0.738-0.104,1.637,0.228,2.657,0.884c1.179,0.758,3.275,0.04,4.464-0.462c0.172-0.072,0.305-0.125,0.422-0.167
				l-2.174-10.006C437.63,424.213,437.61,424.216,437.587,424.22z"/>
			<path style="fill:#FF957B;" d="M494.048,397.539c1.313-0.491,1.991-2.6,2.301-3.853c0.04-0.163,0.075-0.295,0.108-0.407
				l-6.168-4.08c-0.457,1.285-1.559,3.581-3.766,4.576l6.259,4.376C493.146,397.93,493.557,397.723,494.048,397.539z"/>
			<path style="fill:#FFD2C8;" d="M444.934,284.08v0.968c3.712-0.768,7.507,0.971,11.291,0.752v-0.968
				C452.441,285.052,448.646,283.313,444.934,284.08z"/>
			<path style="fill:#FFD2C8;" d="M408.439,278.432c-1.505-0.42-3.044-1.039-4.58-0.753v1.219c1.536-0.286,3.075,0.333,4.58,0.753
				c1.989,0.555,4.073,0.772,6.134,0.64v-1.219C412.512,279.204,410.428,278.987,408.439,278.432z"/>
			<path style="fill:#FF957B;" d="M522.017,301.731c-1.096-1.187-5.526-4.932-5.526-4.932s5.435,3.106,5.891,3.243
				c0.457,0.137,0.822-0.228,0.548-0.822c-0.274-0.594-2.786-2.832-4.156-3.836c-1.37-1.005-2.603-2.01-2.603-2.01
				c1.096-0.411,0.594-1.005,0-1.233c-0.594-0.228-2.786-1.781-3.608-2.055c-0.822-0.274-1.736-0.32-3.106-0.457
				c-1.37-0.137-2.744-1.172-2.744-1.172l-0.039,0.024c-0.616,1.656-1.45,3.227-2.505,4.645l0.006,0.009c0,0,1.445,0.97,2.537,1.655
				c1.093,0.685,2.196,2.055,2.881,3.014c0.685,0.959,2.832,4.659,3.654,4.293c0.822-0.365-0.32-3.06-0.32-3.06
				s0.868,0.548,2.283,1.918c1.416,1.37,3.882,4.841,4.202,4.796c0.32-0.046,0.822,0.046,0.365-1.096
				c-0.457-1.142-4.202-6.189-4.202-6.189s6.44,6.052,7.447,5.641C523.499,303.912,523.113,302.918,522.017,301.731z"/>
			<path style="fill:#4F4655;" d="M516.171,293.547l0.217,0.001c-0.138-0.111-0.216-0.175-0.216-0.175
				c0.145-0.054,0.259-0.112,0.352-0.172l-0.365-0.001c-0.013,0.001-1.457,0.094-2.643-0.573l-0.169,0.303
				c0.991,0.556,2.113,0.623,2.59,0.623C516.075,293.553,516.159,293.547,516.171,293.547z"/>
			<path style="fill:#FF957B;" d="M361.422,192.095c1.032-0.93,2.612-2.061,4.437-2.37c-0.296-0.94-1.072-3.811-1.269-6.401
				c-0.228-2.998-0.225-3.079-0.225-3.079c-0.148-0.38-0.297-0.76-0.445-1.14c-0.127-0.324-0.762-1.456-0.945-1.697
				c-0.363-0.477-0.726-0.954-1.089-1.432c-0.102-0.134-0.209-0.272-0.357-0.353c-0.314-0.17-0.708-0.034-1.054-0.121
				c-0.597-0.151-1.518-1.939-2.765-0.908c-0.262,0.217-0.328,0.475-0.382,0.811c-0.4-0.204-0.897-0.204-1.297-0.001
				c-0.4,0.204-0.46,0.607-0.529,1.051c-1.142-0.046-1.461,1.279-1.324,1.553c0.137,0.274,0.868,1.05,1.964,2.147
				c1.096,1.096,1.873,3.014,1.873,3.014c-0.502,0.32-0.913,1.187-0.868,1.735c0.046,0.548,1.781,4.247,3.014,5.298
				C361.011,190.928,361.314,191.688,361.422,192.095z"/>
			<g>
				<path style="fill:#4F4655;" d="M361.75,177.056c-0.251-0.449-0.839-1.199-1.107-1.534c-0.056-0.005-0.114-0.006-0.168-0.02
					c-0.096-0.024-0.201-0.093-0.314-0.184l0.04,0.18l0.035,0.073c0.009,0.011,0.903,1.104,1.211,1.655L361.75,177.056z"/>
				<path style="fill:#4F4655;" d="M357.104,177.908c-0.523-0.739-1.45-1.549-1.478-1.572l-0.088-0.093
					c-0.013,0.07-0.025,0.139-0.037,0.212c-0.079-0.003-0.145,0.014-0.216,0.023l0.102,0.107c0.009,0.008,0.936,0.818,1.435,1.523
					L357.104,177.908z"/>
				<path style="fill:#4F4655;" d="M358.143,183.039l-0.236-0.115c0.065,0.146,0.107,0.245,0.107,0.245
					c-0.048,0.031-0.09,0.086-0.136,0.126l0.007,0.004c0.113,0.229,0.564,1.154,0.773,1.726l0.325-0.119
					c-0.244-0.672-0.791-1.768-0.815-1.815L358.143,183.039z"/>
				<path style="fill:#4F4655;" d="M357.195,175.516c0.009,0.011,0.881,1.064,1.176,1.508l0.289-0.192
					c-0.305-0.459-1.163-1.494-1.182-1.513l-0.098-0.171c-0.02,0.081-0.037,0.166-0.052,0.258c-0.079-0.04-0.165-0.067-0.25-0.091
					L357.195,175.516z"/>
			</g>
			<g>
				<path style="fill:#4F4655;" d="M415.454,241.552l-2.484,2.2c0.107,0.043,0.167,0.069,0.167,0.069
					c-0.038,0.096-0.087,0.225-0.138,0.362c0.043-0.036,0.088-0.07,0.129-0.107l2.556-2.264L415.454,241.552z"/>
				<path style="fill:#4F4655;" d="M405.73,233.94c0.5,0.029,0.988,0.249,1.342,0.602l0.244-0.246
					c-0.412-0.411-0.983-0.667-1.566-0.702L405.73,233.94z"/>
				<path style="fill:#4F4655;" d="M403,231.229l0.084,0.224c0.127,0.345,0.258,0.703,0.464,1.024
					c0.298,0.468,0.724,0.771,1.169,0.83l0.045-0.344c-0.342-0.046-0.679-0.291-0.923-0.673c-0.185-0.29-0.304-0.614-0.43-0.957
					l-0.084-0.227c-0.394-1.032-0.95-1.983-1.629-2.847c-0.168-0.039-0.325-0.077-0.474-0.115v0.058l0.041,0.048
					C402.002,229.142,402.586,230.144,403,231.229z"/>
				<path style="fill:#4F4655;" d="M376.457,220.669c0.685-0.17,1.392-0.346,1.985-0.075l0.145-0.316
					c-0.707-0.32-1.508-0.122-2.214,0.054l-0.211,0.052c-0.975,0.237-1.665,0.141-2.053-0.281l-0.063-0.069l-0.15,0.024
					c0.182,0.229,0.354,0.444,0.519,0.646c0.236,0.094,0.5,0.154,0.811,0.154c0.304,0,0.643-0.045,1.017-0.135L376.457,220.669z"/>
				<path style="fill:#4F4655;" d="M379.763,220.528c0.462-0.062,0.946-0.035,1.4,0.081l0.086-0.337
					c-0.497-0.126-1.025-0.159-1.533-0.088L379.763,220.528z"/>
			</g>
			<path style="fill:#4F4655;" d="M413.71,262.036c-1.168-1.328-2.67-2.325-4.342-2.886l0.111-0.33
				c1.73,0.581,3.282,1.612,4.491,2.985L413.71,262.036z"/>
			<polygon style="fill:#4F4655;" points="417.591,262.746 415.405,262.508 415.443,262.163 417.63,262.4 			"/>
			<g>
				<path style="fill:#FF957B;" d="M447.028,206.049c-1.154-0.473-2.621,0.503-2.621,0.503s0.061,5.146-0.609,6.242
					C447.757,212.186,448.183,206.523,447.028,206.049z"/>
				<path style="fill:#FF8774;" d="M446.074,207.027c-0.607-0.249-1.337,0.071-1.667,0.25c-0.008,1.07-0.056,3.09-0.286,4.424
					C446.604,211.022,446.854,207.346,446.074,207.027z"/>
			</g>
			<g>
				
					<rect x="448.109" y="276.946" transform="matrix(0.9868 -0.1617 0.1617 0.9868 -38.9097 76.233)" style="fill:#4F4655;" width="1.397" height="0.348"/>
				<path style="fill:#4F4655;" d="M478.937,274.212c-0.404,0.164-0.861,0.203-1.282,0.113l-0.072,0.339
					c0.172,0.037,0.348,0.055,0.524,0.055c0.328,0,0.658-0.063,0.962-0.186L478.937,274.212z"/>
				<path style="fill:#4F4655;" d="M485.935,273.473c-0.1-0.098-0.196-0.2-0.295-0.299c-0.551,0.101-1.149,0.202-1.743,0.301
					c-1.018,0.169-2.071,0.345-2.833,0.517l0.077,0.339c0.753-0.171,1.8-0.346,2.813-0.514
					C484.634,273.704,485.321,273.589,485.935,273.473z"/>
				<path style="fill:#4F4655;" d="M455.052,275.599c-1.007,0.769-2.39,0.878-3.841,0.922l0.011,0.348
					c1.153-0.036,2.697-0.093,3.862-0.873C455.07,275.864,455.059,275.732,455.052,275.599z"/>
				<path style="fill:#4F4655;" d="M452.931,246.626l0.069,0.28c0.407,1.647,0.96,3.269,1.645,4.821l0.037,0.082
					c0.184,0.418,0.375,0.85,0.403,1.291c0.008,0.142,0,0.285-0.007,0.427c-0.009,0.175-0.018,0.357,0,0.541
					c0.026,0.264,0.119,0.485,0.253,0.655c0.036-0.214,0.066-0.431,0.1-0.648c-0.002-0.014-0.006-0.028-0.008-0.041
					c-0.016-0.158-0.008-0.32,0.001-0.49c0.008-0.155,0.016-0.31,0.005-0.465c-0.031-0.503-0.235-0.964-0.432-1.41l-0.036-0.083
					c-0.677-1.533-1.225-3.137-1.627-4.765l-0.068-0.279c-0.363-1.479-0.773-3.157-2.074-4.052l-0.197,0.286
					C452.19,243.598,452.568,245.137,452.931,246.626z"/>
			</g>
			<g>
				<path style="fill:#4F4655;" d="M431.432,213.392c-0.068-0.012-0.136-0.023-0.203-0.033c-0.406-0.062-0.825-0.127-1.035-0.477
					c-0.189-0.315-0.16-0.791,0.088-1.499c0.578-1.643,0.629-4.981,0.629-5.014l0.348,0.005c-0.002,0.139-0.053,3.428-0.65,5.125
					c-0.206,0.587-0.245,0.992-0.117,1.206c0.127,0.211,0.434,0.258,0.789,0.313c0.071,0.011,0.141,0.022,0.212,0.034
					L431.432,213.392z"/>
				<path style="fill:#FFFFFF;" d="M435.059,216.335c0.202-0.073,0.409-0.153,0.624-0.152c0.215,0.002,0.446,0.106,0.527,0.305
					c-0.387,0.637-1.006,1.114-1.691,1.406c-0.685,0.292-1.435,0.41-2.18,0.43c-1.061,0.03-1.175-1.082-0.247-1.381
					c0.343-0.111,0.754-0.07,1.109-0.123C433.832,216.725,434.459,216.55,435.059,216.335z"/>
				<g>
					<path style="fill:#4F4655;" d="M427.022,207.421c0,0.58-0.24,1.05-0.536,1.05c-0.296,0-0.536-0.47-0.536-1.05
						c0-0.58,0.24-1.051,0.536-1.051C426.782,206.37,427.022,206.84,427.022,207.421z"/>
					<path style="fill:#4F4655;" d="M428.264,205.337c0.186,0.053,0.384,0.126,0.493,0.286c-0.203,0.172-0.502,0.137-0.766,0.105
						c-0.601-0.073-1.209-0.08-1.811-0.024c-0.297,0.028-0.592,0.071-0.884,0.131c-0.24,0.048-0.635,0.246-0.873,0.21
						c-0.575-0.087,0.086-0.535,0.276-0.614c0.502-0.208,1.069-0.29,1.609-0.317C426.965,205.082,427.63,205.155,428.264,205.337z"
						/>
					<path style="fill:#4F4655;" d="M434.934,207.603c0,0.58,0.24,1.05,0.536,1.05s0.536-0.47,0.536-1.05
						c0-0.58-0.24-1.05-0.536-1.05S434.934,207.023,434.934,207.603z"/>
					<path style="fill:#4F4655;" d="M433.692,205.52c-0.187,0.053-0.384,0.126-0.493,0.286c0.203,0.172,0.502,0.137,0.766,0.105
						c0.601-0.073,1.209-0.08,1.811-0.024c0.297,0.028,0.592,0.072,0.884,0.131c0.24,0.049,0.635,0.246,0.873,0.21
						c0.575-0.087-0.086-0.535-0.276-0.614c-0.502-0.208-1.069-0.29-1.609-0.317C434.991,205.264,434.326,205.338,433.692,205.52z"
						/>
				</g>
			</g>
		</g>
		<g>
			<g>
				<path style="fill:#FF4D4F;" d="M171.651,446.081h34.253c0,0,0.913-1.644,0-2.466c-0.913-0.822-5.389-3.288-8.495-3.745
					c-3.106-0.457-10.048-1.918-11.692-3.928c-1.644-2.01-2.466-2.74-3.654-2.375c-1.187,0.365-2.557,1.827-4.293,1.462
					c-1.736-0.365-2.923-1.825-3.836-1.552c-0.914,0.273-2.375,0.821-2.284,2.283c0.091,1.461,0.731,2.342,0.457,4.003
					c-0.274,1.661-0.282,3.031-0.461,3.579C171.468,443.889,171.651,446.081,171.651,446.081z"/>
				<path style="fill:#774D4F;" d="M171.651,446.081h34.253c0,0,0.429-0.793,0.393-1.553h-34.725
					C171.585,445.282,171.651,446.081,171.651,446.081z"/>
				<path style="fill:#FFB3B0;" d="M177.771,438.225c-0.995-0.426-4.416-0.907-5.887-1.1c0.193,0.798,0.403,1.551,0.224,2.636
					c-0.274,1.661-0.282,3.031-0.461,3.579c-0.071,0.217-0.084,0.693-0.075,1.188h9.396
					C180.968,444.528,179.05,438.773,177.771,438.225z"/>
				<path style="fill:#FFB3B0;" d="M205.904,443.615c-0.813-0.732-4.445-2.762-7.424-3.522c-3.53,1.139-5.455,4.436-5.455,4.436
					h13.272C206.28,444.194,206.183,443.866,205.904,443.615z"/>
			</g>
			<path style="fill:#FFAF90;" d="M173.935,433.477c0.913-0.273,2.101,1.187,3.836,1.552c1.736,0.365,3.106-1.096,4.293-1.462
				c0.235-0.072,0.454-0.089,0.67-0.074l-0.624-6.363c-3.399,0.615-7.792,0.985-10.188,1.002l1.029,5.722
				C173.289,433.687,173.64,433.565,173.935,433.477z"/>
			<path style="fill:#FFAF90;" d="M114.498,416.219c-1.392-0.418-2.332-1.345-2.895-2.069l-3.343,6.994c0,0,5.846,4.932,6.759,4.932
				c0.913,0,1.279-1.096,1.279-1.096l3.239-6.455C118.126,417.783,116.043,416.683,114.498,416.219z"/>
			<g>
				<path style="fill:#FF4D4F;" d="M102.15,430.692l31.224,14.084c0,0,1.509-1.123,1.014-2.248c-0.494-1.125-3.56-5.213-6.204-6.907
					c-2.643-1.693-8.37-5.88-9.043-8.388c-0.673-2.508-1.121-3.512-2.354-3.667c-1.233-0.155-3.082,0.614-4.514-0.433
					c-1.432-1.047-1.914-2.866-2.859-2.992c-0.945-0.127-2.502-0.228-3.02,1.142c-0.518,1.37-0.297,2.435-1.229,3.836
					c-0.932,1.401-1.503,2.647-1.891,3.073C102.885,428.619,102.15,430.692,102.15,430.692z"/>
				<path style="fill:#774D4F;" d="M102.15,430.692l31.224,14.084c0,0,0.717-0.546,0.996-1.254l-31.654-14.278
					C102.419,429.937,102.15,430.692,102.15,430.692z"/>
				<path style="fill:#FFB3B0;" d="M110.958,426.048c-0.732-0.798-3.652-2.642-4.914-3.423c-0.152,0.807-0.27,1.58-0.879,2.495
					c-0.933,1.401-1.504,2.647-1.892,3.073c-0.154,0.169-0.361,0.597-0.557,1.052l8.565,3.863
					C111.281,433.108,111.899,427.073,110.958,426.048z"/>
				<path style="fill:#FFB3B0;" d="M134.388,442.528c-0.44-1.001-2.917-4.346-5.319-6.264c-3.686-0.413-6.796,1.801-6.796,1.801
					l12.098,5.457C134.492,443.211,134.539,442.872,134.388,442.528z"/>
			</g>
			<g>
				<path style="fill:#555864;" d="M182.49,410.427c0-4.384-1.583-10.474-1.583-13.397c0-2.923,0.243-9.134-1.34-16.807
					c-1.583-7.673-1.096-16.563-1.218-18.999c-0.122-2.436-0.974-6.82-1.34-10.474c-0.365-3.654,0.243-7.551-0.122-9.621
					c-0.365-2.07-3.288-13.397-4.019-18.512c-0.731-5.115-2.192-9.5-3.532-13.397c-1.34-3.897-2.192-11.692-2.923-14.615
					c-0.405-1.62-0.622-3.65-0.736-5.139c-2.473,0.424-7.676,0.513-9.007,0.602c-1.37,0.091-12.057-0.365-14.98,0
					c-2.923,0.365-7.855,0.116-10.048,0.012c-1.042-0.049-1.605-0.138-2.061-0.266c0,0,0.508,1.989,0.417,3.633
					c-0.091,1.644,0.365,10.87,0.548,17.081c0.183,6.211,1.279,10.778,2.01,13.245c0.731,2.466,2.74,8.312,2.649,9.865
					c-0.091,1.553-3.014,7.368-3.867,14.919c-0.853,7.551-2.923,16.32-4.872,21.678c-1.949,5.359-3.654,9.324-5.724,16.51
					c-2.07,7.186-5.028,14.493-6.245,16.929c-1.218,2.436-3.532,9.5-3.532,9.5s1.096,2.314,3.532,3.045
					c2.436,0.731,6.211,3.045,6.577,3.045c0.365,0,3.775-5.724,5.846-8.647c2.07-2.923,3.323-8.282,5.637-11.326
					c2.314-3.045,4.628-10.352,5.602-12.301c0.974-1.949,4.263-7.375,5.481-10.542c1.218-3.167,3.776-10.961,4.75-13.762
					c0.974-2.801,8.404-22.044,8.404-22.044s0.853,6.455,1.705,9.987c0.852,3.532,2.192,5.724,2.192,7.307
					c0,1.583,1.461,10.474,1.949,15.589c0.487,5.115,0.365,10.961,2.071,18.634c1.705,7.673,1.949,16.685,2.314,18.877
					c0.365,2.192,2.314,12.301,2.557,14.128c0.244,1.827,0.244,2.314,0.609,2.801c0.365,0.487,9.743-0.122,14.249-1.34
					c0,0,0.244-0.609,0-2.558C184.195,422.119,182.49,414.812,182.49,410.427z"/>
				<path style="fill:#555864;" d="M182.49,410.427c0-4.384-1.583-10.474-1.583-13.397c0-2.923,0.243-9.134-1.34-16.807
					c-1.583-7.673-1.096-16.563-1.218-18.999c-0.122-2.436-0.974-6.82-1.34-10.474c-0.365-3.654,0.243-7.551-0.122-9.621
					c-0.365-2.07-3.288-13.397-4.019-18.512c-0.731-5.115-2.192-9.5-3.532-13.397c-1.34-3.897-2.192-11.692-2.923-14.615
					c-0.405-1.62-0.622-3.65-0.736-5.139c-2.473,0.424-7.676,0.513-9.007,0.602c-1.37,0.091-12.057-0.365-14.98,0
					c-2.923,0.365-7.855,0.116-10.048,0.012c-1.042-0.049-1.605-0.138-2.061-0.266c0,0,0.508,1.989,0.417,3.633
					c-0.091,1.644,0.365,10.87,0.548,17.081c0.183,6.211,1.279,10.778,2.01,13.245c0.731,2.466,2.74,8.312,2.649,9.865
					c-0.091,1.553-3.014,7.368-3.867,14.919c-0.853,7.551-2.923,16.32-4.872,21.678c-1.949,5.359-3.654,9.324-5.724,16.51
					c-2.07,7.186-5.028,14.493-6.245,16.929c-1.218,2.436-3.532,9.5-3.532,9.5s1.096,2.314,3.532,3.045
					c2.436,0.731,6.211,3.045,6.577,3.045c0.365,0,3.775-5.724,5.846-8.647c2.07-2.923,3.323-8.282,5.637-11.326
					c2.314-3.045,4.628-10.352,5.602-12.301c0.974-1.949,4.263-7.375,5.481-10.542c1.218-3.167,3.776-10.961,4.75-13.762
					c0.974-2.801,8.404-22.044,8.404-22.044s0.853,6.455,1.705,9.987c0.852,3.532,2.192,5.724,2.192,7.307
					c0,1.583,1.461,10.474,1.949,15.589c0.487,5.115,0.365,10.961,2.071,18.634c1.705,7.673,1.949,16.685,2.314,18.877
					c0.365,2.192,2.314,12.301,2.557,14.128c0.244,1.827,0.244,2.314,0.609,2.801c0.365,0.487,9.743-0.122,14.249-1.34
					c0,0,0.244-0.609,0-2.558C184.195,422.119,182.49,414.812,182.49,410.427z"/>
				<g>
					<path style="fill:#39333E;" d="M157.488,325.918c-0.399-1.671-0.776-3.248-1.012-4.43c-0.127-0.635-0.265-1.307-0.406-1.995
						c-0.664-3.232-1.417-6.896-1.417-8.689c0-0.65-0.206-1.468-0.496-2.303c-0.429-1.691,0.003-4.522,0.008-4.551l-0.343-0.054
						c-0.014,0.09-0.261,1.714-0.19,3.261c-0.651-1.509-1.382-2.798-1.436-2.894l-0.302,0.172c0.024,0.043,2.413,4.248,2.413,6.369
						c0,1.829,0.757,5.51,1.424,8.759c0.141,0.687,0.279,1.359,0.406,1.993c0.237,1.189,0.615,2.769,1.015,4.443
						c0.817,3.419,1.742,7.293,1.662,8.666c-0.118,2.008-2.152,5.858-2.172,5.897l-0.051,0.611c0.131-0.338,0.205-0.53,0.205-0.53
						s0.04,0.303,0.109,0.796l0.061-0.745c0.212-0.403,2.077-4,2.196-6.008C159.242,333.261,158.31,329.36,157.488,325.918z"/>
					<path style="fill:#39333E;" d="M162.061,357.289c-0.188-0.113-0.376-0.225-0.57-0.325c-0.34-0.176-0.694-0.312-1.052-0.428
						c0.043,0.145,0.073,0.281,0.106,0.417c0.267,0.094,0.535,0.188,0.786,0.318c0.188,0.097,0.369,0.207,0.55,0.316
						c0.183,0.11,0.366,0.22,0.556,0.319c1.275,0.662,2.766,0.771,4.082,0.865l0.025-0.346c-1.282-0.093-2.735-0.198-3.946-0.827
						C162.415,357.503,162.238,357.397,162.061,357.289z"/>
					
						<rect x="170.061" y="396.581" transform="matrix(0.0657 -0.9978 0.9978 0.0657 -237.5448 541.1945)" style="fill:#39333E;" width="0.347" height="1.738"/>
					<path style="fill:#39333E;" d="M179.855,396.013l-0.165-0.305c-1.611,0.873-3.618,1.962-5.671,1.789l-0.029,0.346
						c0.158,0.014,0.314,0.019,0.47,0.019C176.446,397.862,178.324,396.844,179.855,396.013z"/>
					<path style="fill:#39333E;" d="M139.799,370.413l-0.099,0.332c1.226,0.367,2.515,0.551,3.804,0.551
						c0.676,0,1.352-0.055,2.019-0.156c0.044-0.129,0.089-0.259,0.133-0.39C143.711,371.074,141.681,370.975,139.799,370.413z"/>
					<rect x="168.089" y="358.584" style="fill:#39333E;" width="1.096" height="0.348"/>
					<path style="fill:#39333E;" d="M127.808,395.225l-0.002-0.348c-0.037,0.001-0.075,0.001-0.112,0.001
						c-2.613,0-5.181-0.465-7.633-1.384l-0.122,0.325c2.491,0.933,5.1,1.406,7.755,1.406
						C127.732,395.225,127.77,395.225,127.808,395.225z"/>
					<polygon style="fill:#39333E;" points="136.731,369.485 136.652,369.824 138.12,370.164 138.198,369.825 					"/>
					<path style="fill:#39333E;" d="M130.017,394.41l-0.033,0.346c0.259,0.024,0.519,0.036,0.778,0.036
						c0.449,0,0.897-0.036,1.341-0.107l-0.055-0.344C131.377,394.451,130.692,394.475,130.017,394.41z"/>
					
						<rect x="141.118" y="331.356" transform="matrix(0.9699 -0.2437 0.2437 0.9699 -76.5139 44.5675)" style="fill:#39333E;" width="1.506" height="0.347"/>
					<path style="fill:#39333E;" d="M135.186,333.189c0.013,0.13,0.018,0.244,0.018,0.346c0.709-0.145,1.379-0.453,2.031-0.758
						c0.794-0.371,1.615-0.755,2.474-0.809l-0.021-0.346c-0.925,0.058-1.776,0.455-2.599,0.841
						C136.445,332.763,135.829,333.05,135.186,333.189z"/>
				</g>
			</g>
			<g>
				<path style="fill:#FFA08B;" d="M138.25,209.961c0,0,1.31,6.7,0.64,8.588c-0.67,1.888,3.593,8.221,7.186,8.16
					c3.593-0.061,6.455-7.794,6.455-7.794s-0.548-5.237,0-7.429C153.078,209.293,138.25,209.961,138.25,209.961z"/>
				<path style="fill:#7C5645;" d="M138.768,211.485c0,0-2.74-1.583-3.227-2.984c-0.487-1.4-0.792-2.375-1.766-3.349
					c-0.974-0.974-2.01-3.349-2.436-4.872c-0.426-1.522-1.34-3.715-1.949-4.993c-0.609-1.279-0.243-5.298,1.644-7.368
					c1.888-2.07,2.862-5.176,4.384-6.089c1.522-0.913,3.897,0.183,6.211-0.304c2.314-0.487,5.359-1.705,6.333-1.766
					c0.974-0.061,3.532,0.365,5.115,1.827c1.583,1.462,2.206,3.045,3.904,3.836c1.698,0.792,2.429,1.279,2.855,1.705
					c0.426,0.426,0,3.349,0.305,4.445c0.304,1.096-0.354,6.514-3.161,8.22C154.174,201.499,138.768,211.485,138.768,211.485z"/>
				<path style="fill:#FFAF90;" d="M135.967,200.89c0,0,0.304,5.541,1.157,7.429c0.853,1.888,5.176,5.968,7.49,6.394
					c2.314,0.426,7.125-0.244,8.525-2.436c1.401-2.192,3.227-6.759,3.654-8.769c0.426-2.009,0-9.865,0-9.865
					s0.122-1.218-0.913-1.035c-1.034,0.182-2.012-0.067-2.92-0.594c-0.907-0.528-1.902-1.163-2.924-0.924
					c-0.691,0.162-1.222,0.695-1.79,1.122c-1.456,1.096-3.372,1.56-5.168,1.253c-0.395-0.067-0.801-0.17-1.189-0.069
					c-0.335,0.087-0.618,0.318-0.953,0.405c-0.673,0.173-1.467-0.252-2.044,0.135c-0.262,0.176-0.403,0.479-0.525,0.77
					c-0.4,0.955-0.726,1.942-0.973,2.948C137.206,198.421,137.307,201.012,135.967,200.89z"/>
				<path style="fill:#FFAF90;" d="M135.94,199.635c0,0,0.061-2.959,0-4.072c-0.061-1.113-0.67-1.808-1.522-1.495
					c-0.852,0.313-0.822,1.845-0.67,3.687C133.9,199.597,134.905,199.986,135.94,199.635z"/>
				<g>
					<path style="fill:#4F4655;" d="M147.415,205.771l-0.133-0.321c0.227-0.094,0.484-0.202,0.637-0.391
						c0.179-0.223,0.218-0.58,0.104-0.955c-0.071-0.235-0.185-0.454-0.306-0.685c-0.06-0.116-0.122-0.232-0.176-0.35
						c-0.679-1.455-0.516-3.181-0.385-4.568l0.346,0.033c-0.127,1.345-0.286,3.019,0.353,4.388c0.053,0.113,0.111,0.225,0.17,0.336
						c0.123,0.236,0.25,0.48,0.331,0.745c0.147,0.485,0.085,0.96-0.166,1.273C147.981,205.535,147.668,205.665,147.415,205.771z"/>
					<path style="fill:#4F4655;" d="M147.61,210.182c-1.31,0-2.617-0.134-3.902-0.4l0.07-0.34c1.788,0.371,3.616,0.478,5.436,0.325
						l0.029,0.346C148.699,210.159,148.155,210.182,147.61,210.182z"/>
					<path style="fill:#4F4655;" d="M152.347,198.363c0,0.538-0.286,0.974-0.639,0.974s-0.639-0.436-0.639-0.974
						c0-0.538,0.286-0.974,0.639-0.974S152.347,197.824,152.347,198.363z"/>
					<path style="fill:#4F4655;" d="M153.713,196.155c-0.499-0.446-1.264-0.49-1.958-0.466c-0.661,0.022-1.355,0.092-1.906,0.44
						c-0.102,0.065-0.117,0.234-0.025,0.309c0.092,0.075,0.225,0.083,0.348,0.082c0.518-0.005,1.031-0.103,1.547-0.145
						c0.516-0.042,1.056-0.024,1.519,0.187c0.256,0.117,0.494,0.293,0.779,0.309c0.085,0.005,0.179-0.009,0.238-0.068
						c0.096-0.098,0.039-0.26-0.059-0.354C154.095,196.355,153.815,196.245,153.713,196.155z"/>
					<ellipse style="fill:#4F4655;" cx="142.6" cy="198.363" rx="0.639" ry="0.974"/>
					<path style="fill:#4F4655;" d="M140.594,196.155c0.499-0.446,1.264-0.49,1.958-0.466c0.661,0.022,1.355,0.092,1.906,0.44
						c0.102,0.065,0.117,0.234,0.026,0.309c-0.092,0.075-0.225,0.083-0.348,0.082c-0.518-0.005-1.03-0.103-1.547-0.145
						c-0.516-0.042-1.056-0.024-1.519,0.187c-0.256,0.117-0.494,0.293-0.779,0.309c-0.085,0.005-0.18-0.009-0.238-0.068
						c-0.096-0.098-0.039-0.26,0.06-0.354C140.212,196.355,140.493,196.245,140.594,196.155z"/>
				</g>
			</g>
			<g>
				<path style="fill:#FFAF90;" d="M235.453,223.801c-0.228-0.091,0.228-0.502,0-1.096c-0.228-0.594-1.005-0.274-1.324-0.32
					c-0.32-0.046-0.046-0.502-0.502-1.074c-0.457-0.572-1.69-0.25-1.69-0.25s0.959-1.69,1.324-2.466
					c0.365-0.777,1.964-3.608,1.964-4.339c0-0.731-0.411-1.279-1.324-0.685c-0.913,0.594-2.649,3.38-4.384,6.311
					c-1.735,2.931-2.466,4.147-3.836,6.065c-1.37,1.918-2.919,3.355-2.919,3.355l0,0.001c1.09,0.772,3.157,2.419,3.861,4.216
					c0.822-0.538,2.391-1.305,3.396-1.863c1.233-0.685,2.923-1.827,3.836-2.354c0.913-0.527,2.238-3.995,2.284-4.68
					C236.184,223.938,235.681,223.893,235.453,223.801z"/>
				<g>
					<path style="fill:#4F4655;" d="M235.335,223.579l-0.042,0.018l-0.024,0.038c-0.016,0.026-1.606,2.599-1.805,2.865
						c-0.281,0.375-1.234,1.459-1.912,1.518c-0.519,0.044-0.833-0.388-0.954-0.596c0.2-0.118,0.421-0.262,0.694-0.468
						c1.078-0.814,2.6-4.092,2.809-4.549l0.039-0.019c-0.004,0-0.009,0-0.012,0c-0.126-0.018-0.159-0.101-0.182-0.227l-0.065,0.031
						l-0.021,0.048c-0.017,0.037-1.665,3.673-2.741,4.486c-1.181,0.891-1.441,0.743-1.595,0.652
						c-0.254-0.146-0.27-0.274-0.213-0.446c0.047-0.142,0.499-0.799,0.861-1.328c0.285-0.415,0.554-0.807,0.678-1.019
						c0.28-0.474,1.061-2.957,1.203-3.412l0.523-0.197c-0.35,0.013-0.64,0.087-0.64,0.087s0.046-0.081,0.111-0.196l-0.228,0.086
						l-0.021,0.067c-0.314,1.013-0.968,3.031-1.196,3.418c-0.12,0.203-0.386,0.591-0.669,1.002c-0.521,0.759-0.841,1.232-0.897,1.4
						c-0.111,0.334,0.002,0.592,0.343,0.788c0.115,0.066,0.236,0.107,0.382,0.107c0.158,0,0.347-0.05,0.587-0.168
						c0.144,0.248,0.508,0.746,1.127,0.746c0.033,0,0.068-0.002,0.103-0.005c0.173-0.015,0.353-0.089,0.532-0.183
						c0.024,0.266,0.097,0.672,0.345,0.824c0.104,0.064,0.254,0.098,0.439,0.098c0.426,0,1.039-0.193,1.702-0.609
						c0.076-0.124,0.153-0.259,0.228-0.397l-0.081-0.042l-0.072,0.05c-1.029,0.726-1.854,0.781-2.065,0.653
						c-0.144-0.089-0.21-0.464-0.218-0.743c0.693-0.477,1.299-1.274,1.308-1.285c0.195-0.261,1.587-2.51,1.796-2.848
						c0.005-0.002,0.01-0.005,0.016-0.007c-0.017-0.006-0.04-0.012-0.055-0.019c-0.09-0.036-0.066-0.134-0.027-0.261
						C235.393,223.555,235.369,223.564,235.335,223.579z"/>
					<path style="fill:#4F4655;" d="M229.504,225.173c0.263-0.496,0.287-0.995,0.067-1.372l-0.035-0.06l-0.069-0.01
						c-0.425-0.064-0.838,0.102-1.194,0.262c-0.664,0.296-1.314,0.642-1.941,1.02c-0.087,0.126-0.175,0.255-0.266,0.385l0.174,0.004
						l0.037-0.023c0.678-0.421,1.39-0.799,2.114-1.123c0.311-0.139,0.637-0.273,0.963-0.247c0.185,0.395-0.01,0.846-0.106,1.028
						c-0.539,1.02-1.583,1.76-2.723,1.932l0.043,0.286C227.798,227.07,228.923,226.271,229.504,225.173z"/>
				</g>
				<path style="fill:#FFB03D;" d="M222.072,228.84c0,0-7.673,5.48-10.23,7.795c-2.557,2.314-6.333,5.724-7.551,6.698
					c-1.218,0.974-4.506,2.801-7.794,3.897c-3.288,1.096-7.551,4.263-8.891,3.654s-4.141-6.333-5.115-7.795
					c-0.974-1.461-1.827-3.532-2.923-4.628c-1.096-1.096-2.679-2.436-3.532-4.141c-0.852-1.705-3.166-5.602-3.166-5.602
					s-1.583-1.827-2.558-3.593s-2.679-2.497-5.115-2.984c-2.436-0.487-8.799-2.131-9.256-2.253c-0.457-0.122-5.853,1.463-6.333,2.07
					c-0.48,0.608-3.532,4.75-3.532,4.75c-0.731-1.979-3.714-5.115-3.714-5.115l-7.064-0.304c0,0-2.009,1.005-3.288,1.644
					c-1.279,0.639-7.947,3.471-9.865,4.75c-1.918,1.279-3.288,5.298-4.11,7.125c-0.822,1.827-2.74,5.937-3.014,8.677
					c-0.274,2.74-0.822,6.942-1.461,9.956c-0.639,3.014,0,7.581,0,9.956s0.548,6.759,0.822,8.312c0.274,1.553,0,3.288,1.005,3.745
					c1.005,0.457,4.019,1.096,6.759,0.548c2.74-0.548,3.785-1.005,3.785-1.005s0.051,2.466,0.003,3.654
					c-0.049,1.187,0.597,2.375,0.414,4.384c-0.183,2.01-0.091,1.736-0.365,3.471s0.639,2.283,2.009,2.74
					c1.37,0.457,1.462,0.731,3.654,0.834c2.192,0.104,7.125,0.353,10.048-0.012c2.923-0.365,13.61,0.091,14.98,0
					c1.37-0.091,6.851-0.183,9.225-0.639c2.375-0.457,1.979-2.192,1.674-2.984c-0.304-0.792-0.426-5.359-0.183-7.368
					c0.244-2.009-0.913-4.445,0.061-9.682c0.974-5.237,0.304-6.516,0.304-10.048s0.061-6.698,0.061-6.698s1.035,0.913,1.827,1.522
					c0.792,0.609,1.888,1.827,3.593,2.638c1.705,0.811,3.654,2.843,4.872,3.086c1.218,0.244,3.41,1.461,4.628,2.314
					c1.218,0.853,4.141,3.045,6.089,3.41c1.949,0.365,4.141,0,8.282-2.436c4.141-2.436,10.717-6.82,12.179-8.16
					c1.461-1.34,4.993-6.333,6.455-7.794c1.461-1.462,3.897-3.532,5.237-5.48c1.34-1.949,5.724-8.038,5.724-8.038
					C225.847,231.154,222.072,228.84,222.072,228.84z M126.797,262.819c-0.086,0.426-0.269,2.497-0.269,2.497
					s-1.279,0.122-2.01,0.792c0,0-0.304-2.436,0-3.654c0.305-1.218,0.548-4.529,0.548-5.644s0.792-7.631,1.462-8.91
					c0,0,0.365,2.618,0.244,4.993c-0.122,2.375-0.28,3.776-0.109,4.993C126.833,259.105,126.882,262.393,126.797,262.819z"/>
				<path style="fill:#4F4655;" d="M146.058,289.941c-0.004-0.048-0.398-4.746-0.15-7.53c0.252-2.818,0.112-6.646-0.001-9.72
					c-0.114-3.14,0.147-6.666,0.15-6.702l0.346,0.027c-0.002,0.035-0.263,3.542-0.149,6.662c0.113,3.086,0.253,6.925-0.001,9.766
					c-0.246,2.753,0.146,7.422,0.15,7.468L146.058,289.941z"/>
				<g>
					<path style="fill:#4F4655;" d="M145.66,232.524h0.347c0.018-2.591,0.239-5.772,0.24-5.842l-0.243-1.583l-0.343,0.053
						l0.242,1.544C145.9,226.73,145.678,229.922,145.66,232.524z"/>
					<path style="fill:#4F4655;" d="M146.248,248.587c0.252-2.69,0.041-7.886-0.113-11.68c-0.055-1.352-0.103-2.547-0.122-3.408
						h-0.347c0.019,0.866,0.066,2.064,0.121,3.422c0.154,3.784,0.364,8.967,0.114,11.633c-0.246,2.629-0.045,5.152,0.117,7.178
						c0.076,0.959,0.142,1.788,0.138,2.401l0.347,0.002c0.005-0.628-0.062-1.463-0.14-2.43
						C146.205,253.691,146.005,251.185,146.248,248.587z"/>
				</g>
				<path style="fill:#FFDDC3;" d="M142.361,221.594c0,0-3.52-1.583-3.282-4.75c0,0-2.868,2.618-3.782,4.445
					c0,0,2.436,2.984,4.506,3.836C139.803,225.126,139.012,222.325,142.361,221.594z"/>
				<path style="fill:#FFDDC3;" d="M152.367,216.844c-0.467,2.436-2.76,5.115-2.76,5.115s2.679,0.426,3.715,3.471
					c1.766-2.192,2.618-5.541,2.618-5.541C154.296,218.61,152.367,216.844,152.367,216.844z"/>
				<g>
					<path style="fill:#CDCCE4;" d="M154.022,244.307c0,0,2.284-0.822,3.471-1.187c1.187-0.365,2.192,0,2.192,0l4.933,15.013
						l0.548,2.433l-4.658,2.284l-7.947-0.913l-4.156-15.254L154.022,244.307z"/>
					<path style="fill:#F8EFF3;" d="M137.888,252.239l-1.403-2.576c0,0,1.827-0.91,4.384-1.763c2.558-0.852,6.485-2.497,8.312-3.136
						c1.827-0.64,5.389-1.644,5.389-1.644l1.247,2.945l-17.324,7.161L137.888,252.239z"/>
					<path style="fill:#CC8155;" d="M159.32,250.261c-0.913-2.848-2.101-5.497-2.101-5.497s-4.019,1.279-6.668,2.466
						c-2.649,1.187-8.951,2.804-10.139,3.594c-1.187,0.79-4.476,2.401-4.476,2.401s1.345,4.077,1.951,5.572
						c0.262,0.646,0.578,1.466,0.856,2.197c0.447-0.176,0.898-0.342,1.329-0.553c0.794-0.388,1.559-0.834,2.371-1.183
						c1.241-0.534,2.569-0.831,3.887-1.125c0.62-0.138,1.489-0.879,2.073-1.129l1.827,6.255c-1.121,1.103-2.598,2.032-4,2.743
						c-0.847,0.429-1.654,0.993-2.431,1.538c-0.751,0.527-1.545,0.974-2.362,1.378l0.001,0.003c0,0,0.891,3.062,1.165,3.244
						c0.274,0.183,3.197-1.005,5.8-2.192s9.911-3.894,11.646-4.733c1.736-0.839,3.562-1.982,3.562-1.982
						S160.233,253.109,159.32,250.261z"/>
				</g>
				<path style="fill:#FFAF90;" d="M148.405,257.004c0,0,0.776-0.228,1.05-0.731c0.274-0.502,1.553-2.146,2.238-2.603
					c0.685-0.457,0.868,0.183,0.731,0.502c-0.137,0.32-0.868,1.187-0.365,1.324c0.502,0.137,4.247-2.192,5.343-2.923
					c1.096-0.731,2.558-2.147,2.923-2.284c0.365-0.137,0.776,0.228,0.548,0.731c-0.228,0.503-3.274,3.425-5.055,4.704
					c0,0,2.817-1.644,4.964-3.197c2.147-1.553,2.261-1.119,2.398-0.913c0.137,0.206,0.046,0.571-0.822,1.302
					c-0.868,0.731-4.818,3.844-4.818,3.844s3.677-1.629,4.385-2.086c0.708-0.457,1.096-0.297,1.21-0.206
					c0.114,0.091,0.206,0.685-0.708,1.324c-0.913,0.64-4.555,3.311-6.714,4.202c0,0,1.05,0.137,1.713,0.114
					c0.662-0.023,0.548,0.639-0.16,0.982c-0.708,0.342-2.421,0.799-4.156,1.142c-1.735,0.343-2.877,1.026-2.877,1.026
					L148.405,257.004z"/>
				<path style="fill:#CC7B3D;" d="M166.656,289.205c-0.215,0.092-0.465,0.168-0.759,0.225c-2.375,0.457-7.855,0.548-9.225,0.639
					c-1.37,0.091-12.057-0.365-14.98,0c-2.923,0.365-7.855,0.116-10.048,0.012c-1.979-0.094-2.254-0.327-3.295-0.708
					c0,0.004-0.115,2.614,0.555,2.857c0.67,0.243,9.865,0.122,14.31,0s15.833-0.548,18.573-0.487
					c2.74,0.061,4.689-0.183,4.871-0.365c0.183-0.183,0-2.174,0-2.174H166.656z"/>
				<g>
					<path style="fill:#4F4655;" d="M198.584,252.328l-0.278-0.208c-0.121,0.162-0.968,1.289-1.089,1.452l0.278,0.208
						C197.616,253.617,198.462,252.49,198.584,252.328z"/>
					<path style="fill:#4F4655;" d="M185.353,257.235l-0.346-0.034c-0.052,0.547-0.305,1.085-0.694,1.475l0.246,0.244
						C185.01,258.468,185.292,257.87,185.353,257.235z"/>
					<path style="fill:#4F4655;" d="M188.039,250.952c-1.27,1.266-2.192,2.889-2.584,4.636l0.339,0.077
						c0.402-1.792,1.367-3.465,2.74-4.739l0.032-0.044C188.372,250.928,188.198,250.95,188.039,250.952z"/>
					<path style="fill:#4F4655;" d="M198.886,250.229l0.337,0.082c0.493-2.013,1.646-3.785,2.762-5.498l-0.013-0.009
						c-0.193,0.107-0.394,0.214-0.6,0.323C200.347,246.711,199.344,248.356,198.886,250.229z"/>
					<path style="fill:#4F4655;" d="M126.541,247.993c0.074-0.507,0.194-1.015,0.315-1.514c0.039-0.162,0.078-0.323,0.115-0.484
						c0.465-2.001,0.663-4.04,0.602-6.089l0.031,0.01c0.19-0.585,0.452-1.144,0.78-1.663l-0.294-0.185
						c-0.222,0.351-0.403,0.725-0.566,1.106c-0.023-0.384-0.035-0.767-0.076-1.152l-0.44-2.242l-0.34,0.067l0.438,2.228
						c0.284,2.629,0.125,5.268-0.473,7.843c-0.037,0.159-0.076,0.32-0.115,0.481c-0.216,0.893-0.422,1.81-0.373,2.704
						c0.128-0.538,0.258-0.962,0.383-1.202C126.528,247.9,126.534,247.944,126.541,247.993z"/>
					<g>
						<path style="fill:#4F4655;" d="M131.369,263.421c-1.51,0.753-3.115,1.301-4.775,1.629l-0.037-0.053
							c-0.018,0.193-0.029,0.32-0.029,0.32s-0.064,0.007-0.157,0.021l0.067,0.096l0.111-0.022c1.709-0.328,3.363-0.886,4.918-1.656
							L131.369,263.421z"/>
						<path style="fill:#4F4655;" d="M147.837,257.065c-0.27,0.116-0.492,0.281-0.707,0.442c-0.267,0.199-0.519,0.386-0.836,0.458
							c-1.305,0.29-2.654,0.591-3.917,1.134c-0.516,0.221-1.019,0.485-1.505,0.74c-0.29,0.151-0.58,0.304-0.874,0.447
							c-1.304,0.637-2.683,1.116-4.098,1.423c-0.147,0.032-0.294,0.062-0.441,0.091c-0.417,0.086-0.848,0.174-1.266,0.304
							c-0.612,0.191-1.187,0.476-1.749,0.767l0.083,0.347c0.572-0.297,1.157-0.59,1.77-0.781c0.401-0.125,0.822-0.212,1.232-0.296
							c0.149-0.029,0.297-0.06,0.445-0.093c1.442-0.312,2.848-0.8,4.177-1.45c0.297-0.146,0.59-0.298,0.882-0.452
							c0.481-0.252,0.977-0.512,1.481-0.729c1.234-0.53,2.567-0.827,3.856-1.114c0.39-0.087,0.684-0.306,0.968-0.519
							c0.207-0.155,0.404-0.302,0.636-0.401L147.837,257.065z"/>
						<path style="fill:#4F4655;" d="M157.488,277.145l-0.27-0.217c0.433-0.538,1.228-0.727,2.302-0.55l0.286,0.05
							c0.646,0.115,1.315,0.233,1.878-0.025c0.142-0.066,0.275-0.154,0.415-0.247c0.086-0.056,0.172-0.114,0.26-0.166
							c0.766-0.453,1.66-0.521,2.525-0.585c0.709-0.053,1.443-0.108,2.083-0.381l0.136,0.319c-0.693,0.296-1.455,0.353-2.193,0.408
							c-0.863,0.066-1.677,0.127-2.374,0.538c-0.083,0.05-0.163,0.103-0.244,0.157c-0.145,0.097-0.296,0.197-0.463,0.275
							c-0.66,0.302-1.383,0.175-2.083,0.051l-0.283-0.048C158.806,276.613,157.93,276.598,157.488,277.145z"/>
						<path style="fill:#4F4655;" d="M154.223,278.557l-0.087-0.337l1.37-0.356c0.318-0.083,0.64-0.184,0.776-0.425l0.302,0.172
							c-0.202,0.358-0.617,0.493-0.99,0.59L154.223,278.557z"/>
						<path style="fill:#4F4655;" d="M130.734,283.002c-0.007,0-0.015,0-0.022,0c-0.368-0.005-0.738-0.092-1.068-0.252
							c-0.079-0.038-0.157-0.082-0.234-0.125c-0.173-0.096-0.337-0.188-0.511-0.221c-0.283-0.059-0.576,0.045-0.886,0.151
							c-0.279,0.096-0.561,0.182-0.878,0.19l0.007-0.348c0.007,0.001,0.014,0.001,0.021,0.001c0.241,0,0.483-0.084,0.738-0.171
							c0.339-0.117,0.691-0.237,1.064-0.165c0.229,0.045,0.425,0.154,0.614,0.26c0.072,0.041,0.144,0.08,0.217,0.116
							c0.284,0.138,0.602,0.213,0.919,0.216c0.273-0.008,0.564-0.05,0.86-0.106l0.259-0.046c0.976-0.167,1.964-0.158,2.935,0.028
							l-0.066,0.341c-0.93-0.181-1.875-0.189-2.811-0.028l-0.254,0.046C131.347,282.944,131.044,283.002,130.734,283.002z"/>
						<path style="fill:#4F4655;" d="M137.836,283.044c-0.55,0-1.108-0.047-1.66-0.142l0.059-0.341
							c0.538,0.091,1.076,0.124,1.62,0.136l0.001,0.348C137.849,283.044,137.842,283.044,137.836,283.044z"/>
					</g>
					<path style="fill:#4F4655;" d="M124.663,265.997c-0.048,0.037-0.1,0.069-0.144,0.11c0,0-0.022-0.187-0.049-0.47l-0.098,0.179
						l-3.293,3.512l-0.016-0.001c0,0.006,0,0.012,0,0.018l-0.338,0.361c-0.342,0.364-0.696,0.74-1.147,0.925l0.132,0.321
						c0.52-0.214,0.918-0.636,1.268-1.009l0.091-0.097c-0.008,0.525-0.015,1.051,0.018,1.571l0.347-0.023
						c-0.041-0.633-0.044-1.275-0.023-1.914l3.229-3.444L124.663,265.997z"/>
					<path style="fill:#4F4655;" d="M167.95,249.267l0.052-0.519c0.216-2.274,0.151-4.777-0.197-7.649l-0.008-0.064
						c-0.104-0.857-0.212-1.743,0.098-2.517l-0.322-0.129c-0.344,0.856-0.23,1.787-0.121,2.688l0.005,0.036
						c-0.147-0.048-0.286-0.159-0.379-0.276c-0.086-0.107-0.158-0.228-0.233-0.356c-0.076-0.128-0.153-0.257-0.244-0.374
						c-0.247-0.317-0.588-0.541-0.889-0.739l-0.191,0.29c0.293,0.192,0.594,0.39,0.806,0.661c0.083,0.107,0.151,0.223,0.22,0.339
						c0.079,0.132,0.16,0.269,0.261,0.395c0.196,0.244,0.441,0.374,0.686,0.407c0.311,2.71,0.37,5.092,0.164,7.254l-0.051,0.516
						c-0.14,1.365-0.283,2.771,0.199,4.016c0.006-0.38,0.01-0.598,0.01-0.598s0.09,0.079,0.228,0.199
						C167.705,251.74,167.825,250.488,167.95,249.267z"/>
					<g>
						<path style="fill:#4F4655;" d="M147.12,265.706c1.106-0.646,2.132-1.421,3.048-2.323l-0.243-0.246
							c-0.895,0.88-1.896,1.636-2.976,2.268L147.12,265.706z"/>
						<path style="fill:#4F4655;" d="M146.117,265.868c-0.868,0.445-1.69,1.02-2.417,1.53c-2.033,1.428-4.421,2.315-6.729,3.174
							c-1.275,0.473-2.592,0.964-3.844,1.541c-0.338,0.156-0.675,0.32-1.012,0.484c-1.189,0.579-2.419,1.176-3.721,1.418
							c-0.191,0.036-0.387,0.064-0.584,0.094c-0.777,0.116-1.58,0.236-2.193,0.755l-0.201,0.32c0.35-0.116,0.512-0.185,0.512-0.185
							s0.001,0.04,0.001,0.07c0.531-0.399,1.24-0.513,1.931-0.616c0.201-0.029,0.4-0.06,0.596-0.096
							c1.348-0.251,2.599-0.859,3.809-1.447c0.335-0.163,0.669-0.325,1.006-0.481c1.24-0.57,2.551-1.059,3.82-1.53
							c2.329-0.866,4.738-1.762,6.808-3.215c0.711-0.5,1.517-1.063,2.356-1.495L146.117,265.868z"/>
					</g>
				</g>
			</g>
		</g>
		<g>
			<g>
				
					<ellipse transform="matrix(0.9255 -0.3787 0.3787 0.9255 -119.567 159.9989)" style="fill:#E4BE64;" cx="347.016" cy="384.001" rx="17.347" ry="17.347"/>
				<path style="fill:#C19055;" d="M361.31,384.001c0,7.894-6.399,14.294-14.294,14.294c-7.894,0-14.294-6.4-14.294-14.294
					c0-7.894,6.4-14.294,14.294-14.294C354.91,369.707,361.31,376.106,361.31,384.001z"/>
				<path style="fill:#4F4655;" d="M358.666,374.172c-0.471-0.559-0.99-1.09-1.54-1.577l0.192-0.217
					c0.56,0.497,1.088,1.038,1.569,1.608L358.666,374.172z"/>
				<path style="fill:#4F4655;" d="M347.017,399.531c-8.565,0-15.531-6.967-15.531-15.53c0-8.565,6.967-15.531,15.531-15.531
					c2.131,0,4.198,0.425,6.142,1.262l-0.115,0.267c-1.907-0.823-3.935-1.24-6.027-1.24c-8.404,0-15.242,6.838-15.242,15.242
					s6.838,15.241,15.242,15.241c8.404,0,15.241-6.837,15.241-15.241c0-2.26-0.482-4.434-1.434-6.463l0.262-0.122
					c0.969,2.068,1.461,4.282,1.461,6.585C362.547,392.564,355.58,399.531,347.017,399.531z"/>
				
					<ellipse transform="matrix(0.9251 -0.3798 0.3798 0.9251 -119.8343 160.5565)" style="fill:#E49F55;" cx="347.016" cy="384.001" rx="12.546" ry="12.546"/>
				
					<text transform="matrix(1 0 0 1 340.8896 390.5547)" style="fill:#FFFFFF; font-family:'Montserrat-SemiBold'; font-size:19.4816px;">$</text>
				<circle style="fill:#EECF90;" cx="381.089" cy="404.318" r="17.347"/>
				
					<ellipse transform="matrix(0.1609 -0.987 0.987 0.1609 -79.2773 715.3881)" style="fill:#D8AA64;" cx="381.089" cy="404.318" rx="14.294" ry="14.294"/>
				<path style="fill:#4F4655;" d="M396.955,404.318h-0.289c0-5.665-3.081-10.891-8.042-13.638l0.14-0.253
					C393.816,393.225,396.955,398.548,396.955,404.318z"/>
				<path style="fill:#4F4655;" d="M381.089,420.184c-8.749,0-15.866-7.117-15.866-15.866c0-8.749,7.117-15.866,15.866-15.866v0.289
					c-8.589,0-15.577,6.987-15.577,15.577c0,8.589,6.987,15.576,15.577,15.576V420.184z"/>
				<circle style="fill:#E4BE64;" cx="381.09" cy="404.318" r="12.546"/>
				
					<text transform="matrix(1 0 0 1 372.4854 410.8721)" style="fill:#FFFFFF; font-family:'Montserrat-SemiBold'; font-size:19.4816px;"></text>
			</g>
			<g>
				<rect x="328.655" y="51.628" style="fill:#EAF0FF;" width="52.562" height="39.903"/>
				<rect x="328.655" y="46.658" style="fill:#C2D8E9;" width="52.562" height="4.97"/>
				<g>
					<g>
						<path style="fill:#88A6B2;" d="M337.189,48.813h-3.722v-3.605c0-1.028,0.833-1.861,1.861-1.861l0,0
							c1.028,0,1.861,0.833,1.861,1.861V48.813z"/>
					</g>
					<g>
						<path style="fill:#88A6B2;" d="M376.405,48.813h-3.722v-3.605c0-1.028,0.833-1.861,1.861-1.861l0,0
							c1.028,0,1.861,0.833,1.861,1.861V48.813z"/>
					</g>
				</g>
				<g>
					<g>
						<rect x="333.19" y="54.866" style="fill:#C2D8E9;" width="6.683" height="6.683"/>
						<rect x="345.459" y="54.866" style="fill:#C2D8E9;" width="6.683" height="6.683"/>
						<rect x="357.728" y="54.866" style="fill:#C2D8E9;" width="6.683" height="6.683"/>
						<rect x="369.997" y="54.866" style="fill:#C2D8E9;" width="6.683" height="6.683"/>
					</g>
					<g>
						<rect x="333.19" y="63.986" style="fill:#C2D8E9;" width="6.683" height="6.683"/>
						<rect x="345.459" y="63.986" style="fill:#C2D8E9;" width="6.683" height="6.683"/>
						<rect x="357.728" y="63.986" style="fill:#C2D8E9;" width="6.683" height="6.683"/>
						<rect x="369.997" y="63.986" style="fill:#C2D8E9;" width="6.683" height="6.683"/>
					</g>
					<g>
						<rect x="333.19" y="73.106" style="fill:#C2D8E9;" width="6.683" height="6.683"/>
						<rect x="345.459" y="73.106" style="fill:#C2D8E9;" width="6.683" height="6.683"/>
						<rect x="357.728" y="73.106" style="fill:#C2D8E9;" width="6.683" height="6.683"/>
						<rect x="369.997" y="73.106" style="fill:#C2D8E9;" width="6.683" height="6.683"/>
					</g>
					<g>
						<rect x="333.19" y="82.226" style="fill:#C2D8E9;" width="6.683" height="6.683"/>
						<rect x="345.459" y="82.226" style="fill:#C2D8E9;" width="6.683" height="6.683"/>
						<rect x="357.728" y="82.226" style="fill:#C2D8E9;" width="6.683" height="6.683"/>
						<rect x="369.997" y="82.226" style="fill:#C2D8E9;" width="6.683" height="6.683"/>
					</g>
				</g>
				<path style="fill:#78A363;" d="M348.777,62.033c1.005-2.437,7.764-7.536,7.764-7.536l-0.548-0.868
					c-4.293,2.002-7.673,6.577-7.673,6.577l-4.11-1.998l-0.411,1.268L348.777,62.033z"/>
				<path style="fill:#78A363;" d="M360.687,86.427c1.005-2.437,7.764-7.536,7.764-7.536l-0.548-0.868
					c-4.293,2.002-7.673,6.577-7.673,6.577l-4.111-1.998l-0.411,1.268L360.687,86.427z"/>
				<polygon style="fill:#FF4D4F;" points="376.137,62.579 373.339,65.377 370.541,62.579 369.422,63.699 372.22,66.496 
					369.422,69.294 370.541,70.414 373.339,67.616 376.137,70.414 377.256,69.294 374.459,66.496 377.256,63.699 				"/>
				<polygon style="fill:#FF4D4F;" points="339.33,72.53 336.532,75.328 333.734,72.53 332.615,73.65 335.412,76.447 
					332.615,79.245 333.734,80.364 336.532,77.567 339.33,80.365 340.449,79.245 337.651,76.447 340.449,73.65 				"/>
				<rect x="364.411" y="44.571" style="fill:#4F4655;" width="3.116" height="0.578"/>
				<rect x="345.555" y="44.571" style="fill:#4F4655;" width="15.964" height="0.578"/>
				<rect x="330.174" y="93.11" style="fill:#4F4655;" width="0.578" height="3.129"/>
				<rect x="330.174" y="63.986" style="fill:#4F4655;" width="0.578" height="24.923"/>
			</g>
			<g>
				<rect x="432.301" y="100.902" style="fill:#FFB03D;" width="34.332" height="47.976"/>
				<polygon style="fill:#FFDDC3;" points="456.163,154.374 429.367,154.374 429.367,105.157 461.688,105.157 461.688,146.237 				
					"/>
				<polygon style="fill:#FFDDC3;" points="456.163,154.374 454.14,147.411 461.688,146.237 				"/>
				<g>
					<rect x="455.479" y="109.869" style="fill:#4F4655;" width="2.696" height="0.405"/>
					<rect x="433.572" y="109.869" style="fill:#4F4655;" width="16.46" height="0.405"/>
					<rect x="433.572" y="115.811" style="fill:#4F4655;" width="24.603" height="0.405"/>
					<rect x="433.572" y="121.753" style="fill:#4F4655;" width="24.603" height="0.405"/>
					<rect x="444.31" y="127.695" style="fill:#4F4655;" width="13.865" height="0.405"/>
					<rect x="433.572" y="127.695" style="fill:#4F4655;" width="5.126" height="0.405"/>
					<rect x="433.572" y="133.637" style="fill:#4F4655;" width="24.603" height="0.405"/>
					<rect x="433.572" y="139.579" style="fill:#4F4655;" width="24.603" height="0.405"/>
				</g>
				<rect x="452.783" y="145.521" style="fill:#4F4655;" width="5.392" height="0.405"/>
				<rect x="433.572" y="145.521" style="fill:#4F4655;" width="15.03" height="0.405"/>
				<rect x="464.355" y="99.581" style="fill:#4F4655;" width="0.404" height="23.695"/>
				<rect x="427.753" y="129.765" style="fill:#4F4655;" width="0.404" height="19.882"/>
				<rect x="427.753" y="122.576" style="fill:#4F4655;" width="0.404" height="2.572"/>
			</g>
			<g>
				<g>
					<path style="fill:#C2D8E9;" d="M147.866,154.456L147.866,154.456c-1.603,1.153-3.837,0.788-4.99-0.815l-12.923-17.966
						l5.804-4.175l12.923,17.966C149.834,151.069,149.469,153.303,147.866,154.456z"/>
					
						<rect x="132.6" y="132.518" transform="matrix(0.8118 -0.5839 0.5839 0.8118 -55.0729 105.527)" style="fill:#B5C9EC;" width="7.15" height="11.367"/>
					<path style="fill:#C2D8E9;" d="M140.704,111.026c6.232,8.664,4.261,20.74-4.403,26.972c-8.664,6.232-20.74,4.261-26.972-4.403
						c-6.232-8.664-4.261-20.74,4.403-26.972C122.396,100.391,134.472,102.362,140.704,111.026z"/>
					<path style="fill:#EAF0FF;" d="M136.778,113.85c4.672,6.496,3.194,15.549-3.301,20.222c-6.496,4.673-15.549,3.194-20.222-3.301
						c-4.672-6.496-3.194-15.549,3.301-20.222C123.052,105.876,132.106,107.354,136.778,113.85z"/>
					<path style="fill:#4F4655;" d="M125.052,138.908c-0.899,0-1.804-0.073-2.709-0.221c-4.374-0.714-8.209-3.089-10.797-6.687
						c-5.343-7.428-3.647-17.818,3.781-23.16c4.412-3.173,10.108-3.983,15.238-2.169l-0.193,0.546
						c-4.953-1.754-10.449-0.97-14.706,2.094c-3.473,2.498-5.765,6.199-6.454,10.42c-0.689,4.222,0.307,8.459,2.805,11.932
						c2.498,3.473,6.199,5.765,10.42,6.454c4.223,0.69,8.459-0.307,11.932-2.805c5.342-3.842,7.776-10.452,6.201-16.841l0.561-0.139
						c1.632,6.619-0.889,13.469-6.424,17.45C131.852,137.834,128.499,138.908,125.052,138.908z"/>
					<path style="fill:#4F4655;" d="M138.018,112.959c-1.092-1.519-2.421-2.819-3.951-3.867l0.327-0.477
						c1.585,1.085,2.963,2.432,4.094,4.005L138.018,112.959z"/>
				</g>
				
					<rect x="135.981" y="140.221" transform="matrix(0.8069 -0.5907 0.5907 0.8069 -60.8434 108.9775)" style="fill:#4F4655;" width="0.578" height="14.667"/>
			</g>
			<g>
				<rect x="208.373" y="49.584" style="fill:#D2943D;" width="56.338" height="41.698"/>
				<rect x="210.514" y="52.672" style="fill:#FFF0DE;" width="51.685" height="34.553"/>
				<polygon style="fill:#FFB03D;" points="226.505,60.048 226.505,55.034 202.779,55.034 202.779,91.282 258.387,91.282 
					258.387,60.048 				"/>
				<rect x="195.112" y="88.556" style="fill:#4F4655;" width="42.91" height="0.578"/>
				<rect x="246.174" y="88.556" style="fill:#4F4655;" width="5.201" height="0.578"/>
				<rect x="232.245" y="55.994" style="fill:#4F4655;" width="26.142" height="0.578"/>
			</g>
			<g>
				<path style="fill:#8F91A4;" d="M79.291,279.944l6.583-18.497c-2.061-0.734-4.27-1.154-6.583-1.154
					c-10.853,0-19.651,8.798-19.651,19.651c0,10.853,8.798,19.651,19.651,19.651s19.651-8.798,19.651-19.651
					c0-1.828-0.269-3.589-0.735-5.268L79.291,279.944z"/>
				<path style="fill:#CC8155;" d="M83.727,275.506l18.915-5.268c-1.714-6.166-6.351-11.099-12.333-13.229L83.727,275.506z"/>
				<polygon style="fill:#4F4655;" points="57.845,303.089 57.267,303.089 57.267,291.588 68.871,291.588 68.871,292.167 
					57.845,292.167 				"/>
				<polygon style="fill:#4F4655;" points="95.298,262.557 94.845,262.198 100.919,254.556 109.661,254.556 109.661,255.135 
					101.198,255.135 				"/>
				<path style="fill:#FFD2C8;" d="M79.291,299.595c10.853,0,19.651-8.798,19.651-19.651c0-1.828-0.269-3.589-0.735-5.268
					l-18.916,5.268l-4.025,19.235C76.566,299.45,77.911,299.595,79.291,299.595z"/>
				<polygon style="fill:#4F4655;" points="101.348,301.083 100.769,301.083 100.769,287.424 93.184,287.424 93.184,286.846 
					101.348,286.846 				"/>
				<path style="fill:#4F4655;" d="M62.193,279.603l-0.571-0.093c1.395-8.53,6.124-12.89,9.845-15.046l0.29,0.502
					C68.144,267.059,63.552,271.298,62.193,279.603z"/>
				<path style="fill:#4F4655;" d="M74.339,263.711l-0.216-0.538c2.175-0.872,3.737-1.075,3.803-1.082l0.072,0.574
					C77.982,262.667,76.438,262.868,74.339,263.711z"/>
			</g>
			<g>
				<path style="fill:#C2D8E9;" d="M540.313,225.54v-4.266l-7.966-0.836c-0.224-1.493-0.606-2.932-1.142-4.298l6.474-4.701
					l-2.133-3.694l-7.307,3.255c-0.929-1.163-1.984-2.218-3.147-3.147l3.255-7.307l-3.694-2.133l-4.701,6.474
					c-1.365-0.536-2.804-0.919-4.297-1.142l-0.836-7.966h-4.266l-0.836,7.966c-1.493,0.224-2.932,0.606-4.297,1.143l-4.701-6.474
					l-3.694,2.133l3.255,7.307c-1.163,0.929-2.218,1.984-3.147,3.147l-7.307-3.255l-2.133,3.694l6.474,4.701
					c-0.536,1.366-0.919,2.804-1.142,4.298l-7.967,0.836v4.266l7.967,0.835c0.224,1.493,0.606,2.932,1.142,4.298l-6.474,4.701
					l2.133,3.694l7.307-3.255c0.929,1.163,1.984,2.218,3.147,3.147l-3.255,7.307l3.694,2.133l4.702-6.474
					c1.365,0.536,2.804,0.919,4.297,1.143l0.836,7.966h4.266l0.836-7.966c1.493-0.224,2.932-0.606,4.297-1.142l4.701,6.474
					l3.694-2.133l-3.255-7.307c1.163-0.929,2.218-1.984,3.147-3.147l7.307,3.255l2.133-3.694l-6.474-4.701
					c0.536-1.365,0.919-2.804,1.142-4.298L540.313,225.54z M512.685,231.413c-4.421,0-8.005-3.584-8.005-8.005
					c0-4.421,3.584-8.005,8.005-8.005s8.005,3.584,8.005,8.005C520.69,227.828,517.106,231.413,512.685,231.413z"/>
				<path style="fill:#A7C0D7;" d="M512.685,211.115c-6.789,0-12.292,5.503-12.292,12.292c0,6.789,5.503,12.292,12.292,12.292
					c6.789,0,12.292-5.503,12.292-12.292C524.977,216.618,519.473,211.115,512.685,211.115z M512.685,231.413
					c-4.421,0-8.005-3.584-8.005-8.005c0-4.421,3.584-8.005,8.005-8.005s8.005,3.584,8.005,8.005
					C520.69,227.828,517.106,231.413,512.685,231.413z"/>
				<path style="fill:#4F4655;" d="M512.685,238.405c-8.27,0-14.998-6.728-14.998-14.997h0.405c0,8.046,6.547,14.593,14.593,14.593
					c2.322,0,4.541-0.529,6.597-1.574l0.183,0.362C517.353,237.861,515.071,238.405,512.685,238.405z"/>
				<path style="fill:#4F4655;" d="M523.026,234.27l-0.28-0.294c1.085-1.031,1.999-2.216,2.72-3.521l0.355,0.195
					C525.079,231.992,524.139,233.209,523.026,234.27z"/>
				<path style="fill:#4F4655;" d="M527.229,227.083l-0.393-0.1c0.293-1.161,0.442-2.364,0.442-3.576
					c0-8.046-6.547-14.593-14.592-14.593v-0.404c8.27,0,14.997,6.728,14.997,14.997
					C527.682,224.652,527.529,225.889,527.229,227.083z"/>
			</g>
			<g>
				<rect x="212.8" y="382.57" style="fill:#C2D8E9;" width="5.563" height="27.543"/>
				<rect x="200.879" y="392.231" style="fill:#CC8155;" width="5.563" height="17.882"/>
				<rect x="237.275" y="375.519" style="fill:#555864;" width="5.563" height="34.593"/>
				<rect x="224.721" y="386.503" style="fill:#FFB03D;" width="5.563" height="23.61"/>
				<g>
					
						<rect x="241.511" y="361.841" transform="matrix(0.7685 -0.6399 0.6399 0.7685 -174.758 241.2625)" style="fill:#4F4655;" width="9.026" height="0.579"/>
					
						<rect x="235.782" y="368.739" transform="matrix(0.7694 -0.6387 0.6387 0.7694 -180.8951 236.9428)" style="fill:#4F4655;" width="3.916" height="0.578"/>
					<polygon style="fill:#4F4655;" points="203.847,382.792 203.474,382.349 215.531,372.16 227.453,377.199 233.895,371.847 
						234.264,372.292 227.552,377.868 227.39,377.8 215.633,372.831 					"/>
					<polygon style="fill:#555864;" points="248.139,358.184 250.579,360.625 251.974,357.139 					"/>
				</g>
			</g>
		</g>
		<g>
			<g>
				<path style="fill:#728889;" d="M525.185,401.969c-0.016-1.232-0.032-2.463-0.047-3.695c-0.032-2.483-0.06-4.997,0.521-7.412
					c0.593-2.464,1.799-4.73,2.993-6.965c1.848-3.46,3.695-6.919,5.543-10.379c-0.574,6.974,2.521,13.813,1.102,20.666
					c-0.913,4.407-3.686,8.164-6.386,11.764c-0.227,0.302-0.494,0.629-0.869,0.68c-0.28,0.038-0.555-0.093-0.793-0.246
					C526.045,405.604,525.203,403.402,525.185,401.969z"/>
				<path style="fill:#819B89;" d="M517.789,361.204c0,0-0.724,9.053-12.557,34.947c-11.832,25.893,5.336,49.931,5.336,49.931
					C544.971,406.741,517.789,361.204,517.789,361.204z"/>
				<g>
					<path style="fill:#4F4655;" d="M512.964,437.479c-3.376-6.132-4.412-19.969,1.291-35.858
						c6.627-18.46,4.941-30.433,4.923-30.552l0.572-0.086c0.018,0.12,1.725,12.238-4.95,30.833
						c-5.644,15.72-4.645,29.361-1.33,35.384L512.964,437.479z"/>
					<path style="fill:#4F4655;" d="M512.136,408.623c-0.002-0.072-0.2-7.268-1.889-9.878l0.486-0.314
						c1.777,2.747,1.974,9.876,1.982,10.179L512.136,408.623z"/>
					<path style="fill:#4F4655;" d="M515.317,400.299l-0.463-0.346c0.128-0.171,3.154-4.186,6.278-5.693l0.251,0.522
						C518.386,396.227,515.347,400.259,515.317,400.299z"/>
					<path style="fill:#4F4655;" d="M517.207,391.928c-0.259-1.692-1.179-6.29-2.307-7.236l0.371-0.443
						c1.528,1.278,2.469,7.334,2.508,7.591L517.207,391.928z"/>
					<path style="fill:#4F4655;" d="M519.646,381.057l-0.529-0.233c0.057-0.129,1.406-3.162,3.219-3.952l0.231,0.531
						C520.963,378.103,519.66,381.028,519.646,381.057z"/>
				</g>
				<path style="fill:#819B89;" d="M540.061,421.989c-13.146,6.458-18.288,24.092-18.288,24.092h25.169
					c30.782-16.161,34.041-39.702,34.041-39.702C576.637,411.899,554.546,414.872,540.061,421.989z"/>
				<path style="fill:#9ABB9E;" d="M510.568,446.081c0,0-9.496-26.239,9.032-42.285c21.28-18.43,34.042-31.909,34.585-37.523
					C554.184,366.273,579.353,413.951,510.568,446.081z"/>
				<g>
					<path style="fill:#4F4655;" d="M511.343,442.857c-0.008-0.351-0.008-8.789,15.302-23.096
						c15.164-14.172,24.37-38.675,24.462-38.921l0.542,0.201c-0.091,0.247-9.344,24.877-24.609,39.142
						c-15.083,14.095-15.12,22.578-15.119,22.662L511.343,442.857z"/>
					<path style="fill:#4F4655;" d="M514.671,435.035l-0.287-0.502c0.077-0.044,7.83-4.467,13.556-5.361l0.088,0.572
						C522.41,430.621,514.748,434.991,514.671,435.035z"/>
					<path style="fill:#4F4655;" d="M520.342,427.133l-0.52-0.255c0.029-0.059,2.889-5.925,3.155-12.017l0.578,0.025
						C523.284,421.101,520.372,427.074,520.342,427.133z"/>
					<path style="fill:#4F4655;" d="M528.856,418.388l-0.271-0.511c0.284-0.151,6.979-3.703,10.241-4.37l0.115,0.567
						C535.762,414.725,528.925,418.352,528.856,418.388z"/>
					<path style="fill:#4F4655;" d="M535.54,410.513l-0.565-0.127c0.016-0.07,1.582-7.103,1.582-9.891h0.578
						C537.136,403.346,535.605,410.222,535.54,410.513z"/>
					<path style="fill:#4F4655;" d="M541.713,401.253l-0.359-0.454c0.205-0.162,5.026-3.966,7.756-4.922l0.192,0.547
						C546.662,397.347,541.761,401.213,541.713,401.253z"/>
					<path style="fill:#4F4655;" d="M546.796,391.935l-0.57-0.102c0.008-0.046,0.816-4.66,0.008-7.276l0.554-0.171
						C547.637,387.137,546.831,391.74,546.796,391.935z"/>
				</g>
				<g>
					<path style="fill:#4F4655;" d="M531.766,445.164l-0.522-0.249c0.125-0.264,3.243-6.557,17.829-13.945
						c14.452-7.32,24.271-17.399,24.368-17.501l0.416,0.402c-0.098,0.102-9.98,10.248-24.522,17.614
						C534.923,438.786,531.797,445.101,531.766,445.164z"/>
					<path style="fill:#4F4655;" d="M535.312,440.819l-0.108-0.568c0.272-0.05,6.666-1.244,10.26,0.011l-0.19,0.547
						C541.825,439.604,535.376,440.808,535.312,440.819z"/>
					<path style="fill:#4F4655;" d="M540.568,436.612l-0.511-0.269c0.026-0.051,2.641-5.031,3.572-8.491l0.558,0.151
						C543.239,431.525,540.595,436.563,540.568,436.612z"/>
					<path style="fill:#4F4655;" d="M558.542,432.457c-3.034-1.633-10.28-0.406-10.351-0.395l-0.099-0.569
						c0.306-0.053,7.517-1.272,10.724,0.457L558.542,432.457z"/>
					<path style="fill:#4F4655;" d="M558.131,426.363l-0.513-0.267c0.024-0.045,2.374-4.604,2.569-7.98l0.578,0.034
						C560.561,421.651,558.23,426.172,558.131,426.363z"/>
					<path style="fill:#4F4655;" d="M564.481,421.934l-0.213-0.538c0.189-0.073,4.627-1.812,6.99-1.377l-0.106,0.57
						C568.954,420.177,564.525,421.916,564.481,421.934z"/>
				</g>
			</g>
			<g>
				<path style="fill:#819B89;" d="M282.692,425.908c0,0-6.759,2.879-13.884-2.237c-7.125-5.115-5.024-15.893-12.971-21.922
					C255.838,401.75,277.668,405.736,282.692,425.908z"/>
				<path style="fill:#9ABB9E;" d="M293.012,417.646c5.632,0.533,11.706-0.576,15.886-4.388c3.471-3.165,5.416-7.95,9.458-10.344
					c-3.154-1.115-6.632,0.011-9.799,1.088c-3.588,1.221-7.231,2.469-10.334,4.646C295.121,410.825,293.418,413.878,293.012,417.646
					z"/>
				<path style="fill:#9ABB9E;" d="M286.314,395.486c-1.929,0.027-3.881-0.097-5.727-0.656c-1.847-0.558-3.594-1.578-4.78-3.1
					c-1.617-2.075-2.173-5.009-4.328-6.518c1.821-0.085,3.625-0.003,5.442,0.135c1.202,0.091,2.421,0.237,3.525,0.722
					c1.392,0.612,2.499,1.72,3.515,2.851C285.46,390.591,286.581,393.258,286.314,395.486z"/>
				<path style="fill:#819B89;" d="M292.046,381.842c0.625-1.989,1.568-4.045,3.366-5.101c1.214-0.713,2.662-0.875,4.062-1.022
					c1.258-0.132,2.515-0.264,3.773-0.396c-1.656,1.797-2.824,4.019-4.815,5.437C296.613,382.056,294.202,382.428,292.046,381.842z"
					/>
				<path style="fill:#9ABB9E;" d="M289.451,378.896c-1.598-2.015-2.505-4.568-2.537-7.139c-0.031-2.572,0.814-5.146,2.362-7.199
					c1.003,2.242,1.885,4.448,2.235,6.879C291.862,373.867,291.012,377,289.451,378.896z"/>
				<g>
					<rect x="289.192" y="372.338" style="fill:#4F4655;" width="0.578" height="73.743"/>
					<path style="fill:#4F4655;" d="M289.226,433.579c-0.048-0.092-4.984-9.209-17.644-14.942l0.239-0.526
						c12.851,5.819,17.868,15.104,17.918,15.197L289.226,433.579z"/>
					<path style="fill:#4F4655;" d="M289.727,421.936l-0.492-0.305c0.049-0.078,4.997-7.924,15.47-10.911l0.158,0.556
						C294.616,414.2,289.775,421.859,289.727,421.936z"/>
					<path style="fill:#4F4655;" d="M289.225,400.239c-0.036-0.07-3.703-7.047-10.613-11.336l0.305-0.493
						c7.051,4.377,10.785,11.491,10.822,11.562L289.225,400.239z"/>
					<path style="fill:#4F4655;" d="M289.693,384.957l-0.424-0.393c0.15-0.162,3.715-3.962,7.758-5.672l0.225,0.533
						C293.326,381.085,289.729,384.918,289.693,384.957z"/>
				</g>
			</g>
			<g>
				<path style="fill:#728889;" d="M64.747,379.315c-1.296,2.828-2.817,6.663-2.817,6.663l2.017-8.633
					c-1.819-4.368-3.641-8.111-5.306-11.196l-3.907,3.337l1.887-6.913c-2.916-4.929-4.975-7.422-4.975-7.422
					c-3.048,11.297-4.02,21.61-3.61,30.906l4.75,2.845l-4.632-0.731c0.934,13.83,4.92,25.317,9.593,34.313l9.004,0.866l-7.922,1.149
					c7.838,14.172,17.035,21.583,17.035,21.583C76.544,416.854,70.806,394.537,64.747,379.315z"/>
				<path style="fill:#728889;" d="M93.706,422.625l5.327-1.584c3.299-5.703,6.317-12.472,8.527-20.425c0,0-2.026,0.452-5.043,1.818
					l-0.367,6.542l-1.336-5.723c-8.746,4.481-23.107,15.877-24.952,42.829c0,0,12-6.823,22.024-23.12L93.706,422.625z"/>
				
					<rect x="72.415" y="423.724" transform="matrix(0.543 -0.8397 0.8397 0.543 -314.9171 269.5585)" style="fill:#4F4655;" width="35.572" height="0.775"/>
				<path style="fill:#9ABB9E;" d="M86.642,398.888l6.206-3.594c1.438-6.387,2.673-13.101,3.548-19.974l-4.685,0.972l5.053-4.052
					c0.935-8.473,1.292-17.144,0.774-25.702l-5.827,1.974l5.63-4.692c-0.408-4.922-1.115-9.795-2.183-14.558
					c0,0-12.791,13.579-20.153,38.861l3.466,14.202l-4.652-9.829c-4.757,18.895-6.257,43.644,2.043,73.586
					c0,0,10.015-21.016,16.504-48.694L86.642,398.888z"/>
				<path style="fill:#4F4655;" d="M91.689,364.946l-0.715-0.493c-1.279,1.858-3.769,3.153-4.99,3.706
					c2.123-11.382,3.923-19.297,3.964-19.475l-0.756-0.173c-0.057,0.25-3.559,15.658-6.576,34.532
					c-1.395-2.861-2.662-8.01-2.676-8.068l-0.843,0.206c0.066,0.272,1.639,6.669,3.297,9.258
					c-1.253,7.977-2.401,16.507-3.162,24.743c-1.933-4.643-4.572-16.585-4.602-16.719l-0.847,0.185
					c0.135,0.613,3.286,14.871,5.299,18.197c-0.267,3.09-0.476,6.13-0.61,9.072l0.774,0.036c0.302-6.624,0.98-13.743,1.856-20.827
					c0.988-0.662,5.677-3.902,7.618-7.108l-0.742-0.45c-1.554,2.568-5.124,5.265-6.728,6.398c1.301-10.27,2.995-20.394,4.545-28.779
					C86.684,368.829,90.029,367.357,91.689,364.946z"/>
				<path style="fill:#4F4655;" d="M64.057,418.345c-6.459-17.314-10.228-41.691-10.265-41.935l0.766-0.118
					c0.037,0.244,3.795,24.543,10.225,41.784L64.057,418.345z"/>
			</g>
			<g>
				<rect x="495.549" y="445.849" style="fill:#4F4655;" width="71.914" height="0.463"/>
				<rect x="365.475" y="445.849" style="fill:#4F4655;" width="121.981" height="0.463"/>
				<rect x="344.808" y="445.849" style="fill:#4F4655;" width="12.356" height="0.463"/>
				<rect x="57.556" y="445.849" style="fill:#4F4655;" width="275.769" height="0.463"/>
				<rect x="24.772" y="445.849" style="fill:#4F4655;" width="23.02" height="0.463"/>
			</g>
		</g>
	</g>
</g>
</svg>
